<svg xmlns="http://www.w3.org/2000/svg" viewBox="0 0 70.876 70.876"><defs><style>.a{fill:#fff;stroke-linecap:round;stroke-linejoin:round;stroke-miterlimit:10;stroke-width:3px;}.a,.b{stroke:#d95f2d;}.b{fill:#d95f2d;stroke-width:2px;}</style></defs><g transform="translate(-1000.9 -961.038)"><g transform="translate(1002.4 962.538)"><path class="a" d="M1036.338,1914.9a33.938,33.938,0,1,1-33.938,33.938A33.923,33.923,0,0,1,1036.338,1914.9Z" transform="translate(-1002.4 -1914.9)"/></g><path class="b" d="M1033.929,975.9a10.839,10.839,0,0,0-10.829,10.829.839.839,0,0,0,1.675.112h0a9.154,9.154,0,1,1,18.308,0,10.223,10.223,0,0,1-3.238,7.256,58.886,58.886,0,0,1-6.475,5.359.8.8,0,0,0-.335.67v6.587a.839.839,0,1,0,1.674.112h0v-6.252a53.715,53.715,0,0,0,6.252-5.247,12.159,12.159,0,0,0,3.684-8.373A10.66,10.66,0,0,0,1033.929,975.9Z" transform="translate(2.409 0.327)"/><circle class="b" cx="1.675" cy="1.675" r="1.675" transform="translate(1034.663 1013.514)"/></g></svg>