<svg xmlns="http://www.w3.org/2000/svg" viewBox="0 0 94.5 128.38"><defs><style>.cls-1{fill:#fff;}.cls-2{fill:#b4b4d3;}.cls-3{fill:#222020;}</style></defs><title>Asset 82</title><g id="Layer_2" data-name="Layer 2"><g id="Explore"><path class="cls-1" d="M93.45,28.88v86.69a10.61,10.61,0,0,1-10.6,10.61H10.61A10.61,10.61,0,0,1,0,115.57V11.46A10.61,10.61,0,0,1,10.61.85H64.54C72.14,8.4,84.29,20.1,93.45,28.88Z"/><path class="cls-2" d="M78,30v-.1A.17.17,0,0,0,78,30Z"/><path class="cls-2" d="M73.05,30l0-.05S73.05,30,73.05,30Z"/><path class="cls-2" d="M80.92,30v0h0Z"/><path class="cls-2" d="M62.64,30.54h0S62.65,30.52,62.64,30.54Z"/><path class="cls-2" d="M68.8,30.27a.1.1,0,0,1-.07.08S68.8,30.34,68.8,30.27Z"/><path class="cls-2" d="M82.7,31.88l-.1-.14A.19.19,0,0,0,82.7,31.88Z"/><path class="cls-2" d="M85.59,31l0,0Z"/><path class="cls-2" d="M84.36,30.52a.23.23,0,0,0-.07.07S84.37,30.57,84.36,30.52Z"/><path class="cls-2" d="M84.25,30.63l0,0A0,0,0,0,0,84.25,30.63Z"/><path class="cls-2" d="M57.62,3.48s.1,0,.19,0Z"/><path class="cls-2" d="M61.4,26.14h0Z"/><path class="cls-2" d="M58.86,3.43l0,0A.05.05,0,0,0,58.86,3.43Z"/><path class="cls-2" d="M81.19,32.44c-.07.15-.26,0-.25.14C81,32.55,81.17,32.64,81.19,32.44Z"/><path class="cls-2" d="M56,24.55v-.06S56,24.54,56,24.55Z"/><path class="cls-2" d="M58.86,3.43l0-.06-.07,0A0,0,0,0,1,58.86,3.43Z"/><path class="cls-2" d="M60.79,16.37h0Z"/><path class="cls-2" d="M61,15.84,61,16A.08.08,0,0,0,61,15.84Z"/><path class="cls-2" d="M57.81,3.52l.11,0Z"/><path class="cls-2" d="M60.47,10.26a.14.14,0,0,0,0,.06A.11.11,0,0,0,60.47,10.26Z"/><path class="cls-2" d="M69.21,30.31l.05,0S69.25,30.28,69.21,30.31Z"/><polygon class="cls-2" points="65.8 34.47 65.8 34.47 65.8 34.48 65.8 34.47"/><path class="cls-2" d="M66,34.28c-.07,0-.15.08-.18.19S65.92,34.43,66,34.28Z"/><path class="cls-2" d="M65.35,34.45l0,0Z"/><polygon class="cls-2" points="69.52 34.23 69.52 34.22 69.52 34.23 69.52 34.23"/><path class="cls-2" d="M68.7,34.35a.15.15,0,0,0-.06-.05Z"/><polygon class="cls-2" points="63.35 35.09 63.35 35.09 63.35 35.09 63.35 35.09"/><path class="cls-2" d="M55.84,28.43c.07.38.2.83.31,1.27a6.32,6.32,0,0,1,.13.68l.15,1.07c.34.24.44.66.66,1l-.33.22A3.45,3.45,0,0,0,57,33c0,.2-.19-.23-.2.1h.27c-.12.11.42.9-.14.5a4.74,4.74,0,0,0,1,1.18c.25.23.34-.1.57.18,0,.14-.15,0-.21.11a1.09,1.09,0,0,0,1.14.39,2,2,0,0,1,1.15,0l-.1,0c.2-.06.5,0,.52-.06,0-.39-.23.18-.45-.1.12-.3.39-.1.44-.35.18.15.34,0,.52,0,.28.23.73.08,1,.31.18-.11.27-.44.49-.47.19.23,0,.24.22.32v-.2c.18,0,.16.07.16.16.17,0,.11-.28.34-.18l-.1.19c.15-.09.22-.06.44-.07,0,.11-.08.11-.15.09.16.26.19-.15.26-.13s-.18-.1-.13-.29c.11,0,.2-.28.31-.07l-.1.2c.21-.18.09-.25.36-.21,0,0,0,.06,0,.1.14-.26.38-.07.63-.08l0,.06c.09-.08.12-.25.18-.25-.16-.09-.12-.15-.16-.33.22.29.24-.39.56-.24,0,.11,0,.25-.14.14-.07.33,0,.6-.21.77.1-.08.23-.14.22,0v-.3h.18c0-.19-.18-.29,0-.43s.14.29.15.16c.23-.15.06-.33.31-.26,0,0-.06.08-.08.06.18.09.41-.11.51.24,0,.08,0,.19-.08.17v-.06c-.16.28.15-.08.12.24,0-.19.22-.17.33-.15L67,34.23c.28-.7,0,.43.38.3s-.1-.05,0-.22c.16,0,.24.21.46.09a.74.74,0,0,1,.25.42c.12-.11.43.06.48-.19-.26-.17-.21.29-.52,0l0-.24c.19,0,.42-.16.56-.09a.24.24,0,0,1,0-.16c.26-.12.31-.37.58-.33.06.22-.1.2-.21.23.19.16.18,0,.45,0,0,.19-.18,0-.19.2l.29-.09v0c0-.33.22,0,.39-.12.42-.05.43-.48.63-.76a.27.27,0,0,1,.09.24c-.12-.13-.09,0-.12.06.14,0,.35.28.29.42.21-.12-.1-.16,0-.28h.31c0-.16-.17-.18,0-.33s.2,0,.37,0c0,.08.09.24,0,.24.09.06.22,0,.25-.12-.21-.12.3-.17.13-.41l.21.12s0,.12-.11.09c.09.24.15-.09.22-.12s.25,0,.27.14c.06-.08.21,0,.26.08.08-.06,0-.16,0-.25H73a1.75,1.75,0,0,1,.06.57c.11-.14,0-.41.17-.42-.06.28.26.18.15.51a.44.44,0,0,0,.56,0c.08-.22-.18-.1-.2-.31.44-.13.39-.73.73-.67l-.09,0c.19-.14.17-.11.27-.31,0,.27.31.69.64.59,0-.13-.22-.23-.19-.45l.22-.06s0,.06,0,.1c.19-.12.42.3.44,0l.25.37-.1-.16c0-.13.23-.2.27-.26.21-.17.3-.06.45.09,0-.1-.18-.34,0-.41.05.44.4.12.42.35.07,0,.21.1.2-.08l0,.27c0-.38.24-.39.43-.48,0,.51.22-.07.37.39,0-.36.34-.18.34-.48.15,0,.18.29.23.39l.06-.13c.09.15.39.14.58.23l.12-.33.08.14c0-.08.14-.15,0-.25h.09c0-.34.11-.11.27-.27a.17.17,0,0,1,0,.18c.09,0,.07.17.13.27-.07-.08.24-.64,0-.76,0-.13.09-.25.18-.2l.09.3.07-.33c.13-.06.21.12.32.14-.11,0-.18.61.11.57-.15.06-.2.23-.27.3s.09,0,0,.17c.22-.12.06-.19.27-.25,0,.27.1.34.3.41l-.17-.18s0-.06,0-.07-.08-.07-.1-.17.22-.36.27-.2c-.27-.4.35-.37.18-.61a.1.1,0,0,1,.2,0c-.16.22.18.29.17.48.06-.09-.17-.18-.09-.3s.21.13.28.21l0,0,.19.1c0-.13-.19-.2,0-.29s.19,0,.2.07,0,.43-.1.49c.11,0,.46-.1.29-.34h.14c-.1-.1-.36-.28-.1-.34v.05l.16-.23.09.13a.1.1,0,0,1,.09-.13c0,.07.09.1.1.21.2,0,.16-.17.18-.26s.16,0,.13.19c.15,0,.42-.05.54.08.19-.15,0,0,0-.25.23.45.69.1,1,0-.14-.4.08,0,.1-.44-.06.14.36.28.08.43l.17-.06c.15.21-.27.21,0,.49.2,0,.27-.5.53-.38-.05.3.17-.11.15.21,0,.11-.11.09-.17.12l0,.05c.45,0,.09-.36.3-.58s.23.2.27.34.17,0,.23-.1c-.14.2-.32-.14-.27-.34.16.32.4,0,.46-.16-.42-.3-.27,0-.67-.32,0,.12,0,.41-.22.31.12-.16,0-.16-.07-.2.06.16-.15.09-.2.16-.08-.13.08-.41-.15-.45v.41c-.09-.05,0-.3-.17-.18.07-.23-.07-.33.17-.42-.33-.31-.43.24-.64.41,0,0,0-.08,0-.11s-.13.12-.19.15.1-.2,0-.3l-.24,0s0,0,0,0-.11.1-.14,0,.06-.28.1-.39l-.22.31c0-.14-.24-.2-.07-.32l-.37.1-.07-.27c-.08.06-.08.11,0,.13-.14,0-.52.55-.52,0-.27.26-.38.19-.73.37.25-.29-.35-.28-.07-.43-.19-.1-.19.2-.32.26a.36.36,0,0,1,0-.49l-.14.14V30l-.12.17c-.16-.13-.06-.27-.22-.29v.24L81.27,30c.06.11,0,.17-.14.2v-.05L81,30.2c.12-.16-.13,0-.09-.22a.83.83,0,0,0-.32.07l.06.16c-.26.18-.05-.24-.27-.23l0,.19c-.36-.28-.52.24-.78.07.13-.06.07-.28.08-.22-.2.09-.53.08-.71.33-.11-.26-.14-.34-.37-.44s-.17.06-.2.23c-.17-.09-.43.1-.46-.1,0,.16-.14,0-.21.13l0-.08,0,.19c-.32-.39-.43.29-.74-.05l0-.05-.11.09c0-.08,0-.14,0-.25l-.53,0,.12.13c-.11,0-.16.22-.31.12.18-.31-.17,0-.23-.2l.1-.09c-.15,0-.15,0-.12.22-.19.09-.18-.34-.34-.12h.14c0,.1,0,.27-.12.28s-.09-.11,0-.14c-.15.09-.4,0-.46.11a.19.19,0,0,1,0-.25c-.32.21-.16,0-.48.19v-.11l-.11.14-.19-.2.08.13c-.11,0-.17.11-.31.07l0-.17c-.3.13-.39-.22-.66,0,0,0,0-.09,0-.11-.25.28-.25-.26-.49.08,0-.06,0-.12,0-.17l-.12.12V29.9l-.07.33-.1-.21,0,.11c-.18-.4-.34-.06-.56-.35l.07.27c-.4.61-1.11-.19-1.64.13l0-.21-.2.28c-.14-.16,0-.19,0-.3-.23.15-.06.33-.35.43-.16-.13,0-.17.1-.25-.26.13-.65.3-.85.2a.11.11,0,0,0,0,.08c-.17.12-.42.05-.62.09,0-.1,0-.12.09-.15s-.18-.06-.23,0l0-.2c-.15,0-.43.19-.49,0,0,.08,0,.24-.09.24-.11-.32-.35.19-.58,0,0-.08.17-.11.13-.11s-.2.09-.28.2v-.13l-.47.24c-.11-.32-.46.1-.45-.14-.18,0,.16.13-.06.19-.07-.13-.19.09-.21-.12l0,0-.15,0,.07-.22a.52.52,0,0,0-.19.45c-.14-.11-.31,0-.39-.17l0-.06c-.34.13-.66-.51-.9-.12,0,0,0-.08,0-.08h-.22l0-.16-.33.29v-.11a3.73,3.73,0,0,0-.93.15l0,0c-.31.2-.34-.07-.54.08a.06.06,0,0,1,0-.05l-.19,0,0-.11c0,.12-.18.06-.19,0s0-.17,0-.07,0,.23-.05.37,0-.14,0-.24-.07.18-.1.08l0-.11s-.06.09-.1.1l0,0c-.15.21.1-.31-.17.12,0-.09-.06-.05.08-.24a.56.56,0,0,1-.34.12c.28-.27,0,0,.12-.18l-.17.13c-.09-.12.34-.42.26-.43L62,30l-.21,0c0,.05.06-.36.07-.63s0-.56,0-.77-.36-.32-.31-.54l0,0a2.28,2.28,0,0,1-.18-1.19c.09,0,.14,0,.19,0-.21-.08,0-.24,0-.33l-.13.12c-.19-.11,0-.29.1-.36l-.22-.17.08,0-.1,0,.24-.12c0-.05-.14-.29-.38-.35.08,0,.13-.2.19-.07l0-.68-.08.11c-.19,0-.33-.17-.25-.28.17.13.28,0,.41-.08-.11-.08-.16.09-.27.05s-.22-.35-.14-.41l.08.06c-.08-.15.25-.25.22-.4s0-.25-.35-.19c-.09-.2.21-.1.24-.17-.16-.08-.08-.37.08-.42-.49-.07.13-.55-.27-.57l.21-.18c-.1,0-.35,0-.4-.14.11-.14.3-.12.4-.17l-.4-.05c.38-.76,0-1.71.33-2.53a3.42,3.42,0,0,1-.3-1.21l.06,0,.08-.42-.17.31c-.05-.09-.13-.15-.13-.24a2.45,2.45,0,0,0,.07-1.63c-.49-.34.39-.27,0-.6a1,1,0,0,0,.16.06,3.91,3.91,0,0,0-.56-.92c.46,0,0-.25.22-.23l-.19,0c.11-.09.14-.29.27-.27l-.24-.15.19,0c0-.22-.18-.69.2-.82a4,4,0,0,1-.24-2.08c-.16-.09-.18-.28-.21-.44l.22-.18c-.08-.15-.37-.3-.23-.46h.06c-.06-.15.05-.31-.16-.45,0-.18.11-.36.33-.31-.38,0,0-.38,0-.38A43.14,43.14,0,0,0,60.31,1L57.08,3.18a1,1,0,0,1-.14.33l-.09.11s0,0,.07,0a1.21,1.21,0,0,1,.7-.1,4.22,4.22,0,0,0,.53,0c.07.07-.26.07-.08.1s.48.09.72,0l0,.1c.13,0-.14-.14.1-.1l-.35,0a.43.43,0,0,1,.24-.14c-.15-.08-.61,0-.44-.2l0,0c0-.11.2-.14.24-.18v0c.05-.05.08-.11.13-.17-.08.12.23.21.19.13s-.07.07-.15-.06.14-.11.24-.14A.53.53,0,0,0,59,2.67c.16-.06,0,.12.17,0l-.26-.14c.34-.25-.29-.1,0-.41.19.09.11-.09.23-.15a3.64,3.64,0,0,0-.34-.34c0-.08.18,0,.11,0s-.18,0-.21-.06-.29-.22-.13-.44c-.23-.34-.29.22-.51-.05,0-.17.26.07.19-.15A2.05,2.05,0,0,0,57.86.8c0-.06.15-.24.27-.15l-.6-.41L57.19,0,56.5,1.16c-.31.51-.77.91-.58,1.45-.19.11-.13-.07-.26-.13.28.51-.41.75-.36,1.2h.16c-.48.64-.15,1.38-.33,2.09l.11-.09c.16.09.19.25.26.36s-.35-.07-.27.13c.05,0,.11-.13.19-.11C55,6.68,55.19,8,55,9c.19,1.34-.05,2.81.12,4.12,0-.2.38-.13.3,0-.66.46.15.72-.29,1.17.27.75-.28,1.47.28,2.16l-.19,0c-.08.12,0,.14.08.25h0c-.06.27.15.58.07.73h.22c0,.16-.16.09,0,.24h-.11l.22.17c-.38,0,0,.45-.17.58a1.75,1.75,0,0,1,.21.89c-.19.07-.16.45-.24.7a8.32,8.32,0,0,1,.16,1.74l.24,0,0,.15c-.05,0-.08,0-.11,0-.27.14.11.35-.05.49.22-.1,0-.11,0-.2s.35,0,.24.15h-.05l.13.11c-.19,0-.27.14-.46.16.08.52.44.84.39,1.38-.22,0,.08.38-.3.3.16.3.3-.08.57,0,0,.09.11.17,0,.2s-.22.09-.26,0l.05.21s-.09,0-.11,0c.24.41-.19.78.06,1.16.13,0,0-.16.16-.14.3.37-.21.36,0,.71l-.2-.06c.14.11.3.15.17.35s-.19-.15-.3-.23c0,.13.08.46.27.34.09.16-.1.23-.15.32s.13-.16.24-.07a2,2,0,0,0-.08.82c-.05,0-.13,0-.16,0C56.24,28.12,55.75,28.14,55.84,28.43Z"/><path class="cls-2" d="M69.63,34.25l-.11,0a.19.19,0,0,1,0,.16Z"/><path class="cls-2" d="M64.58,34.72l0,.06A.06.06,0,0,0,64.58,34.72Z"/><path class="cls-2" d="M63.4,35.25c.09-.06,0-.11,0-.16A.27.27,0,0,0,63.4,35.25Z"/><path class="cls-2" d="M72.41,33.34a.13.13,0,0,0,0,.09A.1.1,0,0,0,72.41,33.34Z"/><path class="cls-2" d="M80.32,32.54l0,0S80.3,32.54,80.32,32.54Z"/><path class="cls-2" d="M79.84,32.26a.16.16,0,0,0-.09,0A.1.1,0,0,0,79.84,32.26Z"/><path class="cls-2" d="M70.51,33.64a.14.14,0,0,0-.07.08A.1.1,0,0,0,70.51,33.64Z"/><path class="cls-2" d="M79.67,32.36h-.11v0Z"/><path class="cls-2" d="M80.46,32.55a.32.32,0,0,1-.14,0C80.38,32.6,80.42,32.59,80.46,32.55Z"/><path class="cls-2" d="M75.27,32.71h0C75.19,32.82,75.24,32.77,75.27,32.71Z"/><polygon class="cls-2" points="79.23 32.79 79.22 32.78 79.19 32.84 79.23 32.79"/><path class="cls-2" d="M80.94,32.58a.08.08,0,0,0,0,.05H81A.14.14,0,0,1,80.94,32.58Z"/><path class="cls-2" d="M77,32.85a.73.73,0,0,0,0-.18S76.93,32.71,77,32.85Z"/><path class="cls-2" d="M43.62,88a.25.25,0,0,0,0-.08Z"/><path class="cls-2" d="M39.56,90l0-.07A.11.11,0,0,0,39.56,90Z"/><path class="cls-2" d="M45.91,86.55v0l.15-.11Z"/><path class="cls-2" d="M30.77,93.42l.05,0S30.78,93.4,30.77,93.42Z"/><path class="cls-2" d="M36.08,91.69a.15.15,0,0,1,0,.1S36.1,91.76,36.08,91.69Z"/><path class="cls-2" d="M48.41,87.17l-.16,0A.17.17,0,0,0,48.41,87.17Z"/><path class="cls-2" d="M50.07,84.76l0,0S50.06,84.76,50.07,84.76Z"/><path class="cls-2" d="M48.88,85.14s0,.06,0,.1S48.92,85.18,48.88,85.14Z"/><path class="cls-2" d="M48.87,85.29v-.05S48.85,85.27,48.87,85.29Z"/><path class="cls-2" d="M30.68,74.18c.06,0,.08-.14.12-.25Z"/><path class="cls-2" d="M25.29,92.87l.05,0A.09.09,0,0,0,25.29,92.87Z"/><path class="cls-2" d="M30.37,73h0Z"/><path class="cls-2" d="M47.51,88.47c0,.16-.22.14-.13.25C47.44,88.64,47.6,88.64,47.51,88.47Z"/><path class="cls-2" d="M20,94.54l0-.05Z"/><path class="cls-2" d="M30.37,73h-.08l.05.06A.05.05,0,0,1,30.37,73Z"/><path class="cls-2" d="M23.14,86.13h0l0,0Z"/><path class="cls-2" d="M23.41,85.74l0,.09A.07.07,0,0,0,23.41,85.74Z"/><path class="cls-2" d="M30.8,73.93l.07-.14A.21.21,0,0,0,30.8,73.93Z"/><path class="cls-2" d="M24.26,81.48v0A0,0,0,0,0,24.26,81.48Z"/><path class="cls-2" d="M36.44,91.61h.05S36.46,91.56,36.44,91.61Z"/><polygon class="cls-2" points="34.66 96.52 34.66 96.52 34.66 96.52 34.66 96.52"/><path class="cls-2" d="M34.78,96.28c-.07,0-.12.12-.12.24S34.76,96.44,34.78,96.28Z"/><path class="cls-2" d="M34.23,96.62h0Z"/><polygon class="cls-2" points="38.08 95.18 38.07 95.17 38.08 95.18 38.08 95.18"/><path class="cls-2" d="M37.36,95.56a.13.13,0,0,0-.08,0A.13.13,0,0,0,37.36,95.56Z"/><polygon class="cls-2" points="32.47 97.71 32.47 97.7 32.46 97.7 32.47 97.71"/><path class="cls-2" d="M23,98.38a11.91,11.91,0,0,0,3.58,1.08,1.86,1.86,0,0,1,1-.28l0,.38.29-.12c.12.11-.23.07,0,.22l.1-.24c0,.14.74,0,.28.35a9.38,9.38,0,0,0,1.08-.13c.22,0,.07-.33.33-.29.07.1-.07.1,0,.23.79.12.63-.91,1.25-.9l0,.06c.07-.13.25-.17.23-.22-.18-.35,0,.23-.27.06-.08-.31.16-.23.08-.46.16.07.18-.13.28-.18.25.13.46-.09.67.1.06-.13.05-.46.23-.54.22.2,0,.24.26.27l0-.19c.16,0,.15,0,.18.12s0-.29.29-.25l0,.22c.12-.12.19-.11.4-.18,0,.11,0,.13-.12.12.21.22.15-.18.22-.18s-.2-.05-.2-.25c.12,0,.13-.32.28-.14l0,.21c.16-.22,0-.26.3-.29,0,0,0,.06,0,.1.07-.28.35-.15.58-.22l0,.06c.07-.09.05-.27.11-.28-.17-.05-.16-.11-.24-.28.29.23.12-.44.46-.38,0,.1,0,.25-.09.18,0,.33.12.59,0,.8.08-.12.19-.21.21-.07l-.08-.29a.7.7,0,0,1,.17-.06c0-.18-.25-.23-.15-.41s.2.25.18.12c.18-.21,0-.34.22-.34,0,0,0,.1-.06.08.2,0,.36-.21.55.1,0,.08,0,.19,0,.18l0,0c-.07.31.12-.12.19.19-.09-.17.15-.22.26-.23L35.68,96c.06-.75.16.4.45.18s-.1,0,0-.22c.15,0,.29.13.45-.05a.74.74,0,0,1,.37.32c.08-.14.43-.07.39-.32-.29-.08-.1.33-.48.16l0-.25c.17-.07.34-.28.49-.26a.24.24,0,0,1-.09-.13c.2-.2.17-.45.43-.5.13.18,0,.21-.12.28.23.08.17-.06.43-.12.1.17-.16.07-.11.25l.24-.18v0c-.1-.31.21-.08.33-.24.37-.19.22-.6.3-.94a.28.28,0,0,1,.17.2c-.16-.08-.09,0-.08.1.1-.09.41.13.41.28.15-.18-.15-.11-.08-.26l.28-.12c-.11-.13-.22-.11-.15-.3s.17-.1.33-.17c0,.08.16.19.05.24.1,0,.22,0,.18-.21-.23,0,.2-.27-.05-.43l.24,0s0,.12-.06.12c.17.19.1-.14.15-.19s.24-.06.3,0c0-.09.17-.12.26,0,.05-.09-.08-.15-.1-.23l.27-.13c.09.11.31.42.29.49,0-.17-.17-.37,0-.45.06.28.31.06.35.4.19.12.43,0,.52-.18s-.2,0-.31-.2c.33-.3,0-.82.36-.9h-.1a.56.56,0,0,0,.1-.39c.09.26.58.48.82.25,0-.12-.29-.11-.37-.32l.16-.15s0,.06,0,.1c.11-.18.5.09.37-.2l.38.22-.16-.1c-.05-.12.11-.28.12-.35.09-.25.23-.2.42-.13-.09-.07-.31-.22-.2-.35.25.35.4-.08.53.1,0,0,.23,0,.13-.15l.15.22c-.21-.31,0-.45.13-.62.27.44.15-.16.5.16-.18-.3.2-.32,0-.58.11-.1.3.16.4.23l0-.15c.17.09.41-.07.61-.09L46,89.44l.13.08c0-.08.05-.2-.09-.24l.08,0c-.2-.27,0-.15.08-.36a.15.15,0,0,1,.11.14c.06,0,.14.11.25.17-.1,0-.14-.67-.41-.64-.1-.1-.06-.26,0-.26l.23.2-.12-.31c.07-.11.23,0,.34,0-.07.08.19.6.4.41-.09.13,0,.31-.06.4s.1,0,.11.14c.11-.22-.07-.19.08-.36.16.21.26.24.47.18l-.24-.06a.19.19,0,0,1,0-.07c-.06,0-.1,0-.18-.08s0-.42.11-.32c-.44-.18.08-.5-.19-.6a.1.1,0,0,1,.17-.09c0,.27.31.14.41.31,0-.11-.24-.06-.24-.2s.24,0,.34,0v.06H48c-.07-.12-.27-.07-.2-.22.07,0,.13-.14.2-.06s.28.34.21.46c.07-.08.3-.34,0-.44l.1-.08c-.13,0-.44,0-.27-.23l0,0v-.28l.15.06c0-.05-.07-.12,0-.16s.13,0,.2.11c.14-.14,0-.23,0-.3s.13-.08.2.07c.14-.07.31-.27.48-.24.06-.22-.07,0-.11-.22.45.22.6-.33.79-.6-.35-.23,0-.09-.19-.4,0,.14.45,0,.33.29l.09-.15c.25.08-.08.32.26.42.14-.15-.1-.57.17-.62.16.26.06-.2.25.07,0,.11,0,.13-.06.19h.07c.36-.25-.16-.33-.15-.63s.31,0,.42.1.13-.12.13-.22c0,.24-.34.09-.43-.1.33.15.29-.25.25-.39-.52,0-.2.17-.71.15,0,.11.26.31,0,.38,0-.2-.13-.11-.19-.12.15.09,0,.15,0,.25-.14-.06-.2-.37-.39-.27l.26.32c-.1,0-.19-.24-.24,0-.09-.22-.25-.22-.14-.43-.44,0-.17.44-.22.69,0,0,0-.07,0-.1s0,.16-.06.22,0-.21-.15-.26l-.16.17,0,0c0,.08,0,.15-.11.09a3.28,3.28,0,0,0-.15-.36l0,.37c-.08-.12-.31,0-.25-.22l-.22.29L48,85.28c0,.1,0,.14.1.09-.12,0-.07.72-.39.28,0,.35-.19.36-.35.69,0-.36-.43,0-.31-.31-.2,0,0,.26-.09.38a.37.37,0,0,1-.27-.4l0,.19,0,0v.2c-.2,0-.2-.19-.33-.13l.13.21-.16,0c.1.06.06.16,0,.24l0,0-.06.11c0-.19-.13,0-.19-.13-.09.06-.09.06-.21.22l.13.11c-.1.27-.17-.18-.33-.06l.13.14c-.43-.06-.28.45-.58.43.07-.11-.09-.26-.06-.22s-.38.32-.39.63c-.22-.18-.29-.23-.52-.2s-.11.13-.05.29c-.17,0-.29.28-.42.12.07.15-.12,0-.1.21l-.06-.06.12.15c-.45-.2-.19.45-.62.29v-.06l0,.12c-.07-.06-.06-.13-.12-.22l-.42.26.16.06c-.07.07,0,.26-.19.24,0-.35-.14.08-.29-.08l0-.12c-.1.09-.1.09,0,.24-.12.17-.32-.22-.34,0L41.9,89a.22.22,0,0,1,0,.3s-.12,0-.09-.11c-.08.14-.32.18-.33.28s-.15-.13-.14-.2c-.17.31-.14,0-.31.36L41,89.58l0,.17-.25-.11.12.08c-.07.08-.09.18-.22.19l-.05-.16c-.19.23-.43,0-.54.28,0,0,0-.08,0-.11-.08.35-.31-.14-.37.25,0,0-.07-.09-.09-.14l0,.15L39.41,90l.09.32-.18-.15,0,.11c-.32-.29-.31.07-.62-.12l.17.23c-.09.7-1,.22-1.33.68l-.1-.2-.06.33c-.18-.1,0-.2-.11-.28-.15.21.06.33-.14.51-.19-.07,0-.17,0-.26-.17.2-.44.49-.65.45,0,0,0,.07,0,.08-.11.16-.35.17-.51.26a.12.12,0,0,1,0-.16c-.06,0-.18,0-.18.11l0-.2c-.14,0-.31.3-.43.11.05.07.11.22,0,.27-.2-.27-.24.26-.49.18,0-.08.11-.16.07-.14s-.14.13-.17.26l0-.13-.34.36c-.19-.28-.37.22-.44,0-.15,0,.19.08,0,.2-.1-.11-.14.13-.22-.07v0l-.12.07v-.23a.48.48,0,0,0,0,.47c-.15-.07-.27.09-.39-.07l0-.07c-.27.21-.71-.33-.82.1,0,0,0-.07,0-.09l-.19.06v-.16l-.22.34,0-.1a3.37,3.37,0,0,0-.77.34l0-.06c-.23.25-.32,0-.49.18a.2.2,0,0,1,0,0l-.19.07v-.12c-.07.27-.5-.14-.35,0a1,1,0,0,0-.12.43c-.21.08-.1-.12-.25-.16s-.12.22-.34.19l0-.11c-.08,0-.11.14-.23.19l0-.06c-.13.27-.32-.25-.35.25-.1-.06-.22,0-.26-.18a2.56,2.56,0,0,1-.53.39c-.07-.35,0,0-.18-.17l0,.19c-.29,0-.53-.42-.72-.39l0-.19-.08.2c-.21-.13-.46-.31-.64-.4s-.31.21-.38.07h0a.7.7,0,0,1-.61-.37c.07,0,.08-.11.14-.13-.19.12-.12-.09-.15-.13l-.06.15c-.18.08-.13-.13-.06-.25l-.23,0a.25.25,0,0,1,0-.07l-.09,0,.14-.22a.73.73,0,0,0-.43,0c.05-.07,0-.2.12-.16a4.13,4.13,0,0,1-.22-.42l0,.12c-.15.12-.34.07-.31-.05.19,0,.23-.14.32-.26-.12,0-.11.15-.21.18s-.31-.12-.26-.2h.09c-.12-.06.14-.28.07-.37s-.1-.14-.38,0c-.13-.1.17-.16.17-.22-.17,0-.18-.22,0-.31-.46.13,0-.43-.39-.3l.17-.2c-.1,0-.33.11-.41,0,.08-.14.26-.19.35-.26l-.39.09c.17-.65-.26-1.29-.06-1.94a2.08,2.08,0,0,1-.33-.89l.06,0,.07-.32-.16.24c-.05-.07-.14-.12-.14-.18a1.49,1.49,0,0,0,.14-1.27c-.43-.31.43-.16.12-.45l.15.06A3.35,3.35,0,0,0,23,85c.44.09,0-.2.25-.14l-.18,0c.13-.05.2-.19.32-.15l-.2-.17.19,0c0-.17,0-.57.36-.57a2.12,2.12,0,0,1,.34-1.59.39.39,0,0,1,0-.4l.26,0c0-.14-.23-.38-.06-.43a.07.07,0,0,1,.05,0c0-.14.17-.2,0-.39a.27.27,0,0,1,.42-.06c-.33-.18.18-.23.18-.23a7.87,7.87,0,0,1,.66-.91,10.05,10.05,0,0,1,.73-.92l.43-.51.49-.5c1.29-1.42,2.92-2.58,3.48-3.78,0-.19.12-.37,0-.56.1-.11.26.18.23,0-.21,0-.09-.48-.33-.64l.1-.09c0-.13-.11.21-.16,0l.08.34a.33.33,0,0,1-.25-.17c-.05.17.05.63-.22.51l.05,0c-.16.08-.18-.17-.23-.21h0l-.2-.11c.15.07.23-.27.14-.21s.09.06-.05.15-.13-.13-.17-.23l-.17.08c-.05-.16.12,0,0-.17l-.16.24c-.21-.36-.16.27-.41,0,.11-.17-.07-.12-.1-.25l-.37.21c-.06,0,0-.16,0-.11s-.07.15-.11.16-.28.15-.4-.09c-.35,0,.06.36-.26.35-.12-.13.17-.14,0-.23a1.37,1.37,0,0,0-.22.2c0-.09-.09-.27,0-.29-.75.24-1.65-.25-2.12.41-.2-.09,0-.16,0-.31-.26.56-.88.17-1.24.51l.1.13c-.84.08-1.21.9-1.86,1.34h.14c.06.18,0,.32-.05.47-.08,0-.22-.29-.3-.08.07,0,.18,0,.22,0-.76.23-1.49,1.45-2.19,2.3a20.25,20.25,0,0,0-1.79,4.18c.05-.22.41,0,.27.11-.8.27-.08.79-.62,1.16,0,.86-.62,1.58-.16,2.42h-.19c-.1.12,0,.16,0,.29h-.05c-.08.3.12.67,0,.84h.22c0,.17-.17.09,0,.27h-.11l.21.2c-.37,0,0,.5-.17.66a2.36,2.36,0,0,1,.28,1c-.18.09-.14.52-.17.82.19.51.39,1.26.56,1.93l.23-.09.07.17s-.07,0-.1,0c-.21.22.23.36.12.55.17-.16,0-.13-.05-.23a.15.15,0,1,1,.29.1l-.05,0,.16.08c-.17.08-.21.23-.38.32.25.54.73.77.94,1.36-.22,0,.27.36-.11.44.31.26.23-.21.54-.19,0,.09.19.13.08.22s-.15.19-.22.13l.16.2s-.08,0-.12,0c.46.31.32.91.8,1.15.12-.05-.09-.17,0-.22.51.19.08.48.53.69l-.2,0c.19,0,.35,0,.41.24-.13.19-.28,0-.43,0,.1.14.46.4.5.17.2.09.11.28.15.4,0,0,0-.24.12-.23a2.43,2.43,0,0,0,.72.79s-.06.13-.1.13C22.93,97.82,22.6,98.2,23,98.38Z"/><path class="cls-2" d="M38.19,95.16l-.11,0a.21.21,0,0,1,0,.16Z"/><path class="cls-2" d="M33.56,97.06s0,0,0,.07A.06.06,0,0,0,33.56,97.06Z"/><path class="cls-2" d="M32.55,97.85c.07-.08,0-.11-.08-.14A.29.29,0,0,0,32.55,97.85Z"/><path class="cls-2" d="M40.39,93.31s0,0,0,.09A.09.09,0,0,0,40.39,93.31Z"/><path class="cls-2" d="M46.85,89h0Z"/><path class="cls-2" d="M46.3,89a.12.12,0,0,0,0,.08A.14.14,0,0,0,46.3,89Z"/><path class="cls-2" d="M38.79,94.29a.11.11,0,0,0,0,.1A.13.13,0,0,0,38.79,94.29Z"/><path class="cls-2" d="M46.21,89.19l-.1,0,0,0Z"/><path class="cls-2" d="M47,89a.75.75,0,0,1-.12.07C46.93,89,47,89,47,89Z"/><path class="cls-2" d="M42.65,91.57h0C42.62,91.71,42.65,91.65,42.65,91.57Z"/><polygon class="cls-2" points="46.07 89.78 46.05 89.78 46.07 89.85 46.07 89.78"/><path class="cls-2" d="M47.38,88.72a.06.06,0,0,0,0,.06l.06,0Z"/><path class="cls-2" d="M44.17,90.93a.8.8,0,0,0-.06-.17S44.08,90.83,44.17,90.93Z"/><path class="cls-2" d="M74.78,54.75l.09,0Z"/><path class="cls-2" d="M74.44,50.08l.07,0S74.47,50.07,74.44,50.08Z"/><path class="cls-2" d="M74,57.38h0l-.1.17Z"/><path class="cls-2" d="M66.27,43.89h0Z"/><path class="cls-2" d="M71.92,46.52a.17.17,0,0,1-.12,0A.07.07,0,0,0,71.92,46.52Z"/><path class="cls-2" d="M71.58,57.53l.15,0S71.61,57.51,71.58,57.53Z"/><path class="cls-2" d="M70.55,59.29l0,0A0,0,0,0,0,70.55,59.29Z"/><path class="cls-2" d="M71.6,59.26a.28.28,0,0,0,0-.09S71.57,59.21,71.6,59.26Z"/><path class="cls-2" d="M71.62,59.12v.05S71.63,59.14,71.62,59.12Z"/><path class="cls-2" d="M43.05,65.22c0,.07.07.16.14.24Z"/><path class="cls-2" d="M57.44,45.4v-.06A.07.07,0,0,0,57.44,45.4Z"/><path class="cls-2" d="M44.25,65.54l0,0S44.25,65.56,44.25,65.54Z"/><path class="cls-2" d="M71.69,56.49c-.12-.1.07-.15-.06-.19S71.51,56.4,71.69,56.49Z"/><path class="cls-2" d="M58.33,50.85l0,0Z"/><path class="cls-2" d="M44.25,65.54l0-.05h-.07A.05.05,0,0,1,44.25,65.54Z"/><path class="cls-2" d="M50.07,50.47h0v0Z"/><path class="cls-2" d="M49.58,50.64l0-.1A.07.07,0,0,0,49.58,50.64Z"/><path class="cls-2" d="M43.19,65.46l.09.13A.26.26,0,0,0,43.19,65.46Z"/><path class="cls-2" d="M46.51,54.72a.09.09,0,0,0,0,0A.07.07,0,0,0,46.51,54.72Z"/><path class="cls-2" d="M72.21,46.84s0,0,0,.06S72.26,46.86,72.21,46.84Z"/><polygon class="cls-2" points="67.61 48.53 67.61 48.53 67.61 48.53 67.61 48.53"/><path class="cls-2" d="M67.8,48.41s-.13,0-.19.12S67.7,48.53,67.8,48.41Z"/><path class="cls-2" d="M67.34,48.36l0,0Z"/><polygon class="cls-2" points="69.59 49.79 69.6 49.78 69.59 49.79 69.59 49.79"/><path class="cls-2" d="M69.21,49.53a.2.2,0,0,0,0-.07A.2.2,0,0,0,69.21,49.53Z"/><polygon class="cls-2" points="65.92 48.49 65.92 48.48 65.92 48.48 65.92 48.49"/><path class="cls-2" d="M60.93,50.17a4.31,4.31,0,0,1,1.58-.74c.05-.32.22-.35.37-.44l.08.37.12-.14c.07.1-.09.09,0,.21v-.24c0,.13.36,0,.17.34l.51-.06c.12,0,0-.32.17-.24s0,.08,0,.22c.38.23.38-.77.76-.61l0,0c.06-.1.17-.09.17-.15,0-.38-.06.21-.17,0s.14-.18.13-.43c.09.12.14-.07.22-.08.12.21.31.07.39.33.07-.1.17-.41.31-.42.07.27,0,.24.07.36l0-.19c.11,0,.08.09.07.18s.13-.24.25-.1l-.1.17c.11-.06.15,0,.29,0,0,.11-.07.1-.11.06,0,.28.15-.1.19-.07s-.09-.13,0-.31c.07,0,.2-.22.21,0l-.11.16c.18-.11.13-.21.28-.1,0,0,0,.06,0,.1.17-.21.26,0,.42.09l0,0c.08,0,.16-.2.19-.18s0-.18,0-.35c0,.34.29-.29.45,0,0,.1-.13.21-.15.08a2.37,2.37,0,0,1-.4.65c.09-.05.18-.07.13.06l.11-.28.11.05c.07-.17,0-.33.14-.41s0,.31,0,.19.18-.28.31-.13c0,0-.08,0-.08,0,.07.14.29.07.19.41,0,.07-.09.16-.12.12l0,0c-.21.19.13,0,0,.26.06-.18.19-.08.24,0l.07-.21c.5-.49-.19.39.06.41s0-.08.12-.18c.08.07,0,.27.19.26a.84.84,0,0,1-.1.45c.12,0,.16.22.32,0,0-.25-.25.15-.24-.21l.16-.18c.1.07.3.05.33.16a.37.37,0,0,1,.07-.14c.18,0,.35-.15.44,0-.11.19-.16.1-.23.08,0,.2.08.07.16.22-.11.16-.08-.07-.2.07l.17,0,0,0c.22-.23.09.09.22.09.17.18.5-.1.8-.16a.4.4,0,0,1-.16.2c.06-.15,0-.06-.09,0,.09,0-.1.34-.23.4.17,0,.09-.15.23-.16a1,1,0,0,1,.1.17c.12-.13.1-.21.26-.2s.09.1.15.2-.18.17-.22.1,0,.15.18.09.24.08.39-.14l0,.19s-.11,0-.11,0c-.18.16.12,0,.16.08s0,.18,0,.24.08.11,0,.19c.07,0,.14-.07.22-.1l.09.2a3.08,3.08,0,0,1-.51.26c.15,0,.37-.17.42-.06-.27.06-.13.23-.45.28A.22.22,0,0,0,71,52c.22,0,.07-.14.27-.22.18.23.76,0,.74.29L72,52a.48.48,0,0,0,.32.12c-.26.05-.64.38-.52.57.13,0,.21-.19.42-.21l.09.14s-.07,0-.11,0c.14.12-.27.34,0,.31l-.36.21.16-.08c.13,0,.2.14.25.16s.07.22-.08.32c.11,0,.34-.14.41,0-.43.05-.14.29-.37.31,0,.05-.12.15.06.14h-.27c.38,0,.38.17.45.32-.51,0,.06.15-.42.22.35,0,.13.24.42.28,0,.11-.31.08-.42.1l.12.06c-.16,0-.18.24-.33.33l.29.14-.14,0c.07,0,.1.13.22.09l0,.06c.33.06.07.09.2.24a.19.19,0,0,1-.18,0c0,.06-.18,0-.29,0,.09,0,.55.34.73.21.14,0,.22.14.13.19l-.3,0,.29.15c0,.11-.19.1-.25.17,0-.09-.51-.33-.55-.15,0-.1-.16-.19-.21-.26s-.05,0-.16,0c.05.15.17.09.16.23-.25-.08-.35-.07-.47,0l.22,0a.09.09,0,0,1,.06,0s.08,0,.18,0,.27.27.11.24c.45,0,.22.36.49.36.06,0,0,.15-.1.11-.13-.2-.32,0-.49-.13,0,.07.23,0,.29.09s-.19,0-.28,0l0,0-.16,0c.12.08.25,0,.27.13s0,.13-.13.07-.38-.21-.39-.3c0,.07-.07.27.19.32l-.06.06c.13,0,.4,0,.33.15l0,0,.11.21-.15,0c.06,0,.1.08.07.12s-.12,0-.21-.08c-.06.12.06.19.11.25s-.08.06-.19-.06c-.08.07-.17.21-.33.16,0,.17.07,0,.15.2-.43-.25-.39.19-.55.35.3.29,0,.07.17.39,0-.13-.35-.14-.27-.34l-.06.1c-.19-.14,0-.24-.23-.43-.08.07.11.51-.09.45-.11-.27,0,.13-.18-.16,0-.11,0-.09,0-.13l0,0c-.26,0,.11.33.08.57s-.22-.15-.29-.28-.09,0-.1.13c0-.21.23.09.27.27-.2-.27-.23.09-.23.24.36.21.15-.06.54.17,0-.11-.15-.38,0-.33,0,.17.08.15.13.18-.11-.14.06-.11.07-.19.1.09.12.39.29.36l-.19-.37c.08,0,.14.27.19.11.06.22.21.26.08.43.39.15.2-.37.23-.58,0,0,0,.07,0,.1s0-.14,0-.19,0,.2.13.27l.15-.12h0c0-.07,0-.14.08-.07s.13.25.17.36l-.05-.36c.08.11.29,0,.25.22l.18-.28.22.16c0-.09,0-.13-.11-.08.14,0,0-.66.34-.3,0-.35.09-.37.14-.7.08.33.43-.07.39.21.19-.07-.06-.25,0-.38a.4.4,0,0,1,.41.28l0-.19,0,0-.09-.19c.19-.06.26.1.36,0l-.21-.13.17,0c-.12,0-.13-.1-.11-.2l.05,0v-.13c.09.16.1-.09.24,0a.67.67,0,0,0,0-.3l-.17,0c-.06-.28.24.06.31-.13l-.18,0c.39-.2,0-.52.2-.68,0,.13.25.15.19.13,0-.19.07-.49-.13-.71.28,0,.37,0,.52-.23,0-.15,0-.17-.19-.23.11-.13,0-.41.17-.41-.16,0,0-.12-.1-.2l.09,0h-.2c.45-.25-.25-.4.11-.67l.06,0-.09-.1c.09,0,.14,0,.25,0v-.51l-.14.12c0-.11-.21-.15-.12-.28.32.15,0-.17.2-.23l.09.09c0-.14,0-.14-.23-.1-.1-.17.34-.19.1-.33l0,.13c-.11.05-.28,0-.28-.09s.09-.09.13,0c-.1-.13,0-.37-.13-.42s.17-.09.23-.06c-.25-.27,0-.15-.25-.42l.1,0-.15-.07.17-.22-.11.1c0-.09-.14-.13-.12-.27h.16c-.16-.25.13-.42-.19-.61,0,0,.09,0,.12,0-.34-.15.18-.3-.21-.43.06,0,.11-.06.15-.07L74.3,50l.2-.09-.33,0,.16-.17h-.11c.3-.31-.07-.33.11-.65l-.23.16c-.68-.11-.32-1.09-.9-1.41l.17-.13a2,2,0,0,0-.35,0c0-.21.19-.07.25-.17-.28-.11-.32.13-.58,0,0-.21.16-.07.26-.07a1.61,1.61,0,0,1-.73-.57s0,0,0,.05c-.22,0-.36-.27-.54-.39a.15.15,0,0,1,.17,0c0-.05-.09-.18-.21-.13l.18-.11c-.12-.13-.47-.18-.38-.37,0,.08-.13.21-.24.14.11-.32-.38-.06-.47-.32.06-.06.2,0,.16,0s-.21,0-.34,0l.09-.1a4.6,4.6,0,0,0-.52-.06c.07-.33-.45-.14-.32-.35-.16-.08.08.19-.14.14,0-.15-.21,0-.12-.21l0,0-.15,0,.17-.15c-.14,0-.31.15-.38.3-.07-.15-.28-.11-.27-.32l.06,0c-.36,0-.4-.76-.78-.47,0,0,0-.09,0-.08L68,44.25l.09-.14-.42.15,0-.1a2.5,2.5,0,0,0-.94-.12l0,0c-.36.12-.31-.15-.57-.06,0,0,0,0,0,0l-.23,0,.06-.1c-.18.22-.45-.33-.36-.13-.11.1-.27.21-.31.34-.24,0-.05-.14-.2-.24s-.21.16-.44.07v-.1c-.11,0-.18.1-.33.12l.05-.06c-.25.24-.33-.31-.51.17-.11-.09-.3,0-.3-.22a6.62,6.62,0,0,1-.82.38c-.09-.35-.06,0-.27-.15l0,.19c-.41.1-1-.31-1.43-.12l0-.18-.05.22a7,7,0,0,0-1.56.25c-.09.13-.21.41-.42.42v0a2.16,2.16,0,0,1-1,.47c0-.08-.06-.12,0-.18,0,.23-.21.09-.29.12l.14.1c0,.21-.24.11-.35,0l-.08.26-.06-.06v.1l-.19-.19c0,.06-.2.22-.16.47-.05-.07-.22-.06-.13-.15l-.61.21.13,0c.1.17,0,.36-.14.33,0-.2-.12-.25-.23-.34,0,.13.14.11.15.22s-.2.33-.29.29l0-.1c-.1.13-.32-.13-.44,0s-.19.12,0,.39c-.12.15-.17-.16-.24-.16,0,.19-.27.24-.39.11.17.46-.52.12-.34.48l-.25-.11c.05.1.16.32.08.42s-.24-.2-.33-.27l.16.37c-.8,0-1.34.77-2.13.94-.21.27-.39.69-.72.89v-.07l-.36.17.33,0c0,.08,0,.18-.1.23a1.9,1.9,0,0,0-1.19.89c.09.55-.44-.14-.43.33,0,0,0-.11-.06-.16a3,3,0,0,0-.23,1c-.32-.34-.15.17-.31,0l.12.15c-.13,0-.28.09-.36,0l.08.27-.16-.12c-.14.14-.3.56-.66.4A3.68,3.68,0,0,1,47,53.85a.48.48,0,0,1-.08.45h-.27c0,.16.12.45-.08.47l0,0c0,.14-.22.19-.12.42a.27.27,0,0,1-.43,0c.31.22-.23.26-.23.26a17,17,0,0,0-2.23,3.81c-.94,2.16-1.32,4.82-.45,6,.17.1.25.3.48.27,0,.15-.29.15-.11.21.16-.16.46.14.73,0l0,.12c.12,0-.12-.18.11-.11l-.33-.1a.36.36,0,0,1,.27-.12c-.12-.11-.57-.26-.32-.43v.06c0-.17.24,0,.3-.08v0l.2-.1c-.14.08.11.31.11.21s-.1,0-.11-.12.18,0,.28,0l0-.17c.16,0,0,.11.15.08l-.12-.24c.4,0-.15-.27.25-.27.06.16.14,0,.27.07l.06-.36c.07,0,.1.13.1.07s-.07-.13-.06-.17.06-.26.33-.18c.23-.19-.31-.19-.1-.37.16,0,0,.18.18.13v-.24c.08,0,.25.12.19.19.4-.54,1.31-.58,1.3-1.17.21,0,.1.1.2.19-.1-.46.61-.37.7-.69L48,61.88c.65-.24.58-.86,1-1.25h-.13c-.11-.13-.07-.24-.1-.35s.29.21.29,0c-.06,0-.15,0-.21,0,.57-.22.92-1.09,1.48-1.61a19.62,19.62,0,0,1,1.8-2.41c-.08.12-.36-.18-.22-.21.71.19.26-.47.81-.41.2-.58,1-.52,1-1.27l.15.13c.11,0,0-.1.08-.17l0,0c.19-.08.23-.38.37-.39l-.14-.16c.07-.09.15.08.16-.09l.07.08,0-.24c.24.28.25-.21.44-.13.07-.15.18-.46.4-.55.16.13.36-.06.56-.08a3.55,3.55,0,0,1,1-.78l-.15-.2.09-.08s.06.06.06.09c.23.18.17-.21.34-.12-.17-.16-.09,0-.14,0s-.21-.29,0-.26l0,0v-.16c.12.16.23.19.34.34.28-.25.32-.64.69-.76.07.2.2-.18.32.18.13-.23-.18-.25-.22-.52.06,0,.07-.15.15,0s.15.18.12.23l.12-.09s0,.08,0,.1c.17-.34.58,0,.73-.34,0-.13-.11,0-.15-.12.13-.36.32.12.47-.17l0,.19c0-.15,0-.31.17-.22s0,.21,0,.32.28-.16.14-.32c.07-.11.18.06.26.09s-.15-.1-.13-.22a1.16,1.16,0,0,0,.58-.08s.06.13,0,.16C60.61,49.83,60.76,50.29,60.93,50.17Z"/><path class="cls-2" d="M69.62,49.85l0-.06a.43.43,0,0,1-.12.11Z"/><path class="cls-2" d="M66.78,48.41l0,.05A.05.05,0,0,0,66.78,48.41Z"/><path class="cls-2" d="M65.92,48.65c.06,0,0-.1,0-.16A.42.42,0,0,0,65.92,48.65Z"/><path class="cls-2" d="M71.19,50.84l-.09,0Z"/><path class="cls-2" d="M71.85,56h0Z"/><path class="cls-2" d="M72.24,55.76a.1.1,0,0,0,0-.06S72.22,55.74,72.24,55.76Z"/><path class="cls-2" d="M70.37,49.89s0,0-.09,0A.14.14,0,0,0,70.37,49.89Z"/><path class="cls-2" d="M72.18,55.63l0-.07h0Z"/><path class="cls-2" d="M71.79,56s0-.06.06-.07S71.77,56,71.79,56Z"/><path class="cls-2" d="M72.21,52.58h0C72.1,52.54,72.15,52.57,72.21,52.58Z"/><polygon class="cls-2" points="71.86 55.26 71.88 55.25 71.82 55.22 71.86 55.26"/><path class="cls-2" d="M71.63,56.3a.05.05,0,0,0,0,0l0,0Z"/><path class="cls-2" d="M72.09,53.78h.17S72.22,53.75,72.09,53.78Z"/><path class="cls-2" d="M6.4,121.34l.1,0A.13.13,0,0,0,6.4,121.34Z"/><path class="cls-2" d="M4.91,111.24l0,.12C5,111.28,4.94,111.25,4.91,111.24Z"/><path class="cls-2" d="M10.47,125.34l0,0,.39.16C10.71,125.47,10.6,125.4,10.47,125.34Z"/><path class="cls-2" d="M5.67,87.89V88A.74.74,0,0,0,5.67,87.89Z"/><path class="cls-2" d="M5.15,101.76a.36.36,0,0,1-.07-.19C5.07,101.66,5.08,101.73,5.15,101.76Z"/><path class="cls-2" d="M13.59,128l-.21-.15C13.39,127.89,13.46,128,13.59,128Z"/><path class="cls-2" d="M19.91,124.38h0S19.89,124.39,19.91,124.38Z"/><path class="cls-2" d="M17.51,125.84l-.14.14C17.44,125.94,17.54,125.9,17.51,125.84Z"/><path class="cls-2" d="M17.31,126.05l.06-.07S17.29,126,17.31,126.05Z"/><path class="cls-2" d="M8,6c.1,0,.14-.18.24-.28A.92.92,0,0,0,8,6Z"/><path class="cls-2" d="M5.82,66.71l.06,0S5.84,66.7,5.82,66.71Z"/><path class="cls-2" d="M7.73,4.72h.12A.23.23,0,0,0,7.73,4.72Z"/><path class="cls-2" d="M9.56,127.67c-.26,0-.63-.27-.68-.15C9.11,127.59,9.4,127.81,9.56,127.67Z"/><path class="cls-2" d="M.55,62.21v-.12A.38.38,0,0,0,.55,62.21Z"/><path class="cls-2" d="M7.73,4.72l-.14,0,.06,0A.27.27,0,0,1,7.73,4.72Z"/><path class="cls-2" d="M6,44.65H6l0,.05Z"/><path class="cls-2" d="M6.19,43.48l0,.25A.4.4,0,0,0,6.19,43.48Z"/><path class="cls-2" d="M8.22,5.68l.17-.14A.39.39,0,0,0,8.22,5.68Z"/><path class="cls-2" d="M6,30.86s0,.08,0,.12A.37.37,0,0,0,6,30.86Z"/><path class="cls-2" d="M5.06,102.65l0,.1S5.09,102.76,5.06,102.65Z"/><polygon class="cls-2" points="1.36 93.92 1.36 93.92 1.36 93.92 1.36 93.92"/><path class="cls-2" d="M1.54,94.39a.61.61,0,0,0-.18-.47A.68.68,0,0,0,1.54,94.39Z"/><path class="cls-2" d="M1.44,92.92l0,.06A.14.14,0,0,0,1.44,92.92Z"/><polygon class="cls-2" points="1.13 102.28 1.15 102.28 1.13 102.28 1.13 102.28"/><path class="cls-2" d="M1.11,100.43a.4.4,0,0,0,.07-.13A.4.4,0,0,0,1.11,100.43Z"/><polygon class="cls-2" points="1.06 88.3 1.06 88.31 1.06 88.3 1.06 88.3"/><path class="cls-2" d="M.08,70.82c.08,1.76.36,4,.27,5.77a3.1,3.1,0,0,1,.36,1.49l-.39,0,.12.47c-.11.18-.07-.36-.21,0l.23.18c-.13,0-.09,1.19-.36.41V81c0,.4.32.24.22.68-.11.09-.07-.16-.21-.13-.29,1.32.74,1.53.56,2.76l-.05-.11c.1.21.08.61.14.62.39-.16-.21-.22,0-.6.32,0,.17.47.42.45-.12.28.07.45.08.7-.2.43-.06,1.05-.31,1.37.1.21.42.44.43.89-.26.32-.24-.07-.34.36l.19.08c0,.36-.09.3-.17.29,0,.38.25.32.13.8L1,88.84a3.57,3.57,0,0,1,0,1c-.11,0-.1-.21-.07-.36-.28.27.12.47.09.61.08,0,.12-.38.3-.21,0,.24.26.52,0,.7l-.18-.27c.15.51.24.27.16.86,0,0-.06,0-.1,0,.24.38,0,.87,0,1.42l-.05-.1c.06.22.23.34.22.46.11-.31.16-.23.35-.25-.32.41.35.63.17,1.31a.23.23,0,0,1-.13-.36c-.31-.23-.59-.26-.73-.68.07.26.11.56,0,.5l.3.08c0,.16,0,.28,0,.4.19.06.31-.32.43,0s-.3.21-.17.28c.12.56.32.23.22.77,0-.06-.07-.16-.05-.21-.12.39.05,1-.31,1.07-.07-.06-.18-.07-.15-.22h0c-.25-.43.07.35-.25.22.19,0,.15.52.11.76l.22-.08c.65.82-.43,0-.35.77.14.51.06-.2.21.12,0,.34-.23.47-.14,1-.09.14-.2.43-.45.45.1.31-.11.94.12,1.11.21-.52-.25-.52.07-1.14l.24.18a7.76,7.76,0,0,1,0,1.26.12.12,0,0,1,.16,0c.08.61.32.79.25,1.38-.22.08-.18-.27-.2-.52-.18.38,0,.4-.09,1-.19,0,0-.4-.17-.47l.05.65h0c.33.1,0,.5.07.9,0,.95.42,1.1.68,1.62-.09.15-.17.19-.25.13.14-.24,0-.19,0-.28,0,.32-.32.7-.45.52.09.51.17-.18.27.13l0,.7c.17-.08.21-.33.33,0a4.8,4.8,0,0,1,0,.85c-.08-.06-.25.13-.24-.17-.06.19-.07.49.09.61.15-.44.14.71.39.39l-.15.43c0-.1-.1-.11-.07-.26-.25.13.07.36.09.51s-.07.56-.17.59c.07.14,0,.48-.11.54.05.21.16,0,.24.08v.7c-.14,0-.52.11-.57,0,.13.27.4.09.4.49-.27-.22-.2.55-.52.22A2,2,0,0,0,1,112.29c.22.22.1-.41.32-.39.12,1,.73,1.06.67,1.83l.05-.2a1.39,1.39,0,0,0,.33.67c-.27-.11-.69.6-.52,1.39.14,0,.2-.47.43-.37l.11.51s-.07,0-.12-.07c.15.45-.21.92.12,1l-.3.55.13-.22c.13,0,.29.56.36.65a1.23,1.23,0,0,1,.11,1c.08-.12.26-.41.41,0-.43.12.09.91-.12,1,.06.16,0,.51.21.47l-.27.06c.36-.08.59.52.83.95-.52.11.27.47,0,.88.34-.07.53.73.84.65.21.33-.08.46-.13.61l.21.08a4.24,4.24,0,0,0,.58,1.3l.5.12V125c.1,0,.36.23.31,0l.14.18c.26-.22.31.16.74.37,0,.11,0,.15-.13.12.16.16,0,.22,0,.4-.07-.15,1,0,.64-.47.05-.13.39,0,.52.15l-.06.33.38-.12c.3.12.33.35.56.51-.25-.11-.85.21-.17.56a2.89,2.89,0,0,0-.85-.14c.14.08.2.15-.09.14.59.2.27-.07.82.18-.15.21-.05.4.41.69-.1-.11-.19-.22-.28-.34a.16.16,0,0,1,.09,0c-.12-.1-.14-.16-.12-.26.11.07.76,0,.78.15-.37-.59,1,0,.79-.32.08,0,.45,0,.45.17-.5.08.26.38.14.55.19,0-.31-.29,0-.33a1.22,1.22,0,0,1,.57.38l-.12,0a3,3,0,0,0,.41.19c.09-.12-.38-.29,0-.3.09.07.5.06.47.17-.21.15-.1.42-.46.41.29,0,1.23.11.87-.18l.35,0c-.22-.12-.78-.36-.11-.36v.05l.47-.18.2.14c0-.07.07-.13.24-.12s.21.1.2.21c.51,0,.45-.18.51-.26.28,0,.39,0,.27.17a8.35,8.35,0,0,1,1.36-.08c.48-.28-.12,0,.13-.29.56.34,1.77-.37,2.45-1-.44-.21.18-.17.08-.56-.06.24.84-.31.32.31l.34-.36c.41-.07-.51.69.08.57.43-.42.4-1,.89-1.4.11.35.23-.48.4-.16,0,.18-.14.32-.24.49l.12-.06c.44-.51.4-.65.29-.73s-.25-.1-.2-.44c.29-.68.47-.44.61-.43s.17-.49.15-.71a.59.59,0,0,1-.2.55c-.14.09-.28.07-.33,0,.43-.19.32-1.06.24-1.25a2.7,2.7,0,0,0-.4.77c0,.16-.09.32-.47.65,0,.15.33.28,0,.73,0-.39-.15-.06-.26,0,.21,0-.17.35-.21.53-.2,0-.12-.5-.5-.12l.25.35c-.21.11-.16-.26-.42.11,0-.32-.25-.17.07-.64a1,1,0,0,0-.6.58,2.27,2.27,0,0,1-.38.72s0-.1,0-.15c0,.15-.23.27-.35.38-.35.11.15-.32,0-.36a2.43,2.43,0,0,1-.49.29s0,0,0,0-.23.21-.32.14a2.55,2.55,0,0,0,.15-.48l-.4.5c0-.14-.52,0-.18-.28-.25.12-.52.21-.77.31l-.14-.24c-.17.1-.17.16.07.12-.27,0-1.16.71-1.08.16a4.59,4.59,0,0,1-1.67.33c.62-.23-.66-.35,0-.44-.36-.12-.46.15-.76.15s-.09-.4.2-.46l-.35.08,0-.06-.32.11c-.28-.2,0-.28-.31-.39l-.12.22-.17-.19c0,.13-.15.13-.38.09l0,0-.28,0c.3,0-.23-.14-.05-.26a3.17,3.17,0,0,0-.63-.21v.18c-.57-.13.08-.23-.31-.45l-.06.18a1.55,1.55,0,0,0-.71-.48c-.23-.1-.49-.16-.59-.4.23.15.32-.09.28,0a13.63,13.63,0,0,0-1.23-.88.83.83,0,0,0,0-.8c-.2-.25-.25-.27-.44-.27-.1-.3-.51-.75-.35-.85-.17,0-.11-.26-.3-.35l.05-.07L6,121c.13-.68-.63-.77-.49-1.44l.08.07-.16-.2c.07-.06.15,0,.26,0-.11-.35-.22-.71-.31-1.06a2.41,2.41,0,0,0-.08.25c-.09-.22-.3-.33-.26-.62.39.36-.08-.36.11-.48l.14.21c-.11-.31-.09-.31-.28-.24-.15-.41.3-.37,0-.71l.05.28c-.09.1-.28-.06-.32-.25s.08-.2.13-.06c-.14-.32-.12-.84-.22-1s.17-.15.24-.06c-.26-.7,0-.33-.26-1h.11l-.16-.24.2-.38-.13.14a1.79,1.79,0,0,1-.09-.67l.16.1c-.12-.68.21-.8,0-1.44,0,0,.08.05.11.11-.28-.6.26-.47-.06-1.07,0,0,.12,0,.16,0L4.8,111,5,111l-.32-.22.22-.18-.11-.1c.41-.31.1-.73.41-1.14l-.28.07c-.57-1,.33-2.4.07-3.67l.22,0L5,105.24c.18-.29.19.17.3.08-.12-.56-.32-.24-.38-.89.15-.34.16.12.24.27a5.76,5.76,0,0,1-.1-2s-.07,0-.08,0a8.15,8.15,0,0,1,0-1.4c.1,0,.12.12.14.23,0-.16.08-.38,0-.52l.19.17c0-.34-.13-1,.09-1.09-.09,0-.25,0-.24-.27.34-.17-.13-.82.05-1.29.08.05.09.41.1.31s-.07-.46-.17-.67l.13.06L5,97.16c.33-.17,0-1.06.2-1,0-.4-.15.33-.19-.17.14-.13-.06-.46.15-.44l0,.06,0-.35.22.22c0-.3-.26-.53-.42-.54.12-.29,0-.7.22-.83l0,.11c-.08-.81.59-1.34.23-2,0,0,.08,0,.08,0v-.5l.16.12-.24-.82h.11c0-.55,0-1.4,0-2.1l0,.1c-.16-.76.11-.73,0-1.29a.12.12,0,0,1,0,0v-.5l.11.11c-.23-.37.31-1.06.11-.83-.1-.22-.23-.58-.36-.64,0-.55.14-.14.23-.48s-.17-.46-.07-1h.11c0-.25-.1-.41-.11-.76l.05.1c-.23-.57.32-.71-.15-1.16.09-.24,0-.7.24-.67-.14-.72-.2-1.27-.29-2,.36-.11,0-.15.19-.58l-.19,0c0-1,.45-2.15.38-3.25l.19,0L5.89,76c.09-1.18.17-2.72.18-3.67a2.78,2.78,0,0,1-.26-1.27l0,0a10.6,10.6,0,0,1-.07-2.71c.08.06.13,0,.19.08-.21-.23,0-.55,0-.75L5.81,68A.66.66,0,0,1,6,67.21l-.21-.43s0-.07.08-.07l-.1-.08L6,66.41c0-.1-.11-.66-.35-.84.08,0,.15-.43.19-.12l.08-1.54-.09.24c-.19,0-.31-.44-.22-.67.16.31.27,0,.41-.11-.1-.21-.16.18-.27.07a1.53,1.53,0,0,1-.1-1l.07.16c-.07-.36.27-.52.25-.87s0-.55-.34-.49c-.06-.46.23-.18.26-.32A1,1,0,0,1,6,60c-.48-.25.18-1.23-.22-1.32L6,58.33a.45.45,0,0,1-.4-.4c.12-.28.31-.21.42-.3l-.4-.19c.44-1.65.16-3.83.52-5.64A17.14,17.14,0,0,1,5.91,49l0,.11.12-.94-.19.68a2.25,2.25,0,0,1-.12-.56A11.85,11.85,0,0,0,6,44.65c-.46-.82.42-.54.08-1.32,0,.06.11.09.16.15a15.31,15.31,0,0,0-.5-2.16c.46.1,0-.55.23-.47l-.19-.07c.12-.19.16-.63.29-.57l-.23-.37.19,0c0-.5-.13-1.56.26-1.82a19.55,19.55,0,0,1-.12-4.7,2.39,2.39,0,0,1-.18-1l.23-.38c-.07-.35-.35-.73-.21-1.07a.09.09,0,0,1,.06,0c0-.36.08-.71-.13-1.05,0-.39.13-.78.35-.66-.38,0,0-.84,0-.84s.25-5.1.24-10.83c0-1.41,0-3,0-4.29A21.19,21.19,0,0,1,6.69,9.7a11,11,0,0,1,.62-2.43A5.66,5.66,0,0,1,8,6c0-.22.27-.41.11-.6.24-.11.4.18.42,0-.37,0,.06-.51-.36-.66l.25-.1c0-.14-.33.23-.31,0v.35a.82.82,0,0,1-.44-.13c-.15.21-.06.65-.5.69l.09-.08c-.29.18-.32-.08-.41-.09l.07,0a2.08,2.08,0,0,0-.36.06c.24-.09.47-.51.29-.39-.48.17.15,0-.13.23s-.23,0-.29-.12l-.32.28c-.1-.13.23-.18,0-.19a3.5,3.5,0,0,0-.26.51c-.41-.2-.21.58-.67.56.15-.38-.14,0-.21-.17A8.82,8.82,0,0,0,4.45,7c-.09.07,0-.3,0-.15-.19.13,0,.34-.09.43s-.27.71-.52.6c-.4.61.24.38-.09,1-.19,0,.1-.51-.14-.28a5.2,5.2,0,0,0-.11.67.35.35,0,0,1-.14-.43c-.63,1.73-1.6,2.7-1.43,4.44-.2.24-.13-.17-.25-.35.23,1.28-.45,1.68-.43,2.7l.16,0C.86,17,1.16,18.63.94,20.2L1.05,20a2.58,2.58,0,0,1,.25.83c-.08,0-.35-.19-.28.27.06-.09.12-.29.2-.23C.79,22.23.88,25.09.67,27.31c.12,3-.21,6.27-.12,9.22,0-.45.39-.26.29.08-.68.93.11,1.61-.36,2.56C.7,40.89.1,42.42.62,44l-.2,0c-.08.23,0,.3.07.55H.43c-.07.6.12,1.32,0,1.66l.22,0c0,.35-.17.18-.05.54H.52l.2.42c-.37,0,0,1-.2,1.28a8.57,8.57,0,0,1,.15,2c-.2.13-.2,1-.3,1.52,0,1.05.1,2.55,0,3.89l.25,0v.35c-.05,0-.08,0-.11,0-.28.27.09.8-.09,1.08.22-.17,0-.24,0-.44s.36,0,.24.38H.68l.13.26c-.19,0-.28.27-.47.3A23,23,0,0,1,.61,61c-.21-.13.05.85-.32.61.14.71.3-.12.56.21,0,.2.1.41,0,.44s-.23.17-.26,0l0,.48c0,.05-.08-.06-.11-.11.22,1-.25,1.72,0,2.59.13.06,0-.35.17-.28.27.88-.24.77,0,1.59l-.19-.17c.13.26.29.38.14.81-.22.08-.18-.37-.28-.58,0,.3,0,1.06.24.83.07.36-.12.49-.18.68.05,0,.14-.34.24-.13a10.51,10.51,0,0,0-.14,1.84s-.14,0-.16,0C.51,70.22,0,70.17.08,70.82Z"/><path class="cls-2" d="M1.1,102.52l0-.24s-.1,0-.16-.12Z"/><path class="cls-2" d="M1.27,91.14a.16.16,0,0,0-.06-.08C1.22,91.12,1.25,91.14,1.27,91.14Z"/><path class="cls-2" d="M.9,88.38c0,.2.1,0,.16-.08A.17.17,0,0,0,.9,88.38Z"/><path class="cls-2" d="M1.65,109s0-.07-.09-.06S1.63,109,1.65,109Z"/><path class="cls-2" d="M7.47,126.62l0-.08A.35.35,0,0,0,7.47,126.62Z"/><path class="cls-2" d="M6.75,125.64a1.58,1.58,0,0,0-.2-.14A.46.46,0,0,0,6.75,125.64Z"/><path class="cls-2" d="M1.59,104.65a.4.4,0,0,0-.07-.18A.2.2,0,0,0,1.59,104.65Z"/><path class="cls-2" d="M6.34,125.37l-.2-.22,0,0Z"/><path class="cls-2" d="M7.77,126.86l-.3-.24A.59.59,0,0,0,7.77,126.86Z"/><path class="cls-2" d="M2.27,115.66v0C2.15,115.45,2.2,115.57,2.27,115.66Z"/><polygon class="cls-2" points="5.21 124.69 5.2 124.65 5.1 124.63 5.21 124.69"/><path class="cls-2" d="M8.88,127.52a.47.47,0,0,0-.16,0l.15.09A.15.15,0,0,1,8.88,127.52Z"/><path class="cls-2" d="M2.78,119.6a.31.31,0,0,0,.2.05C3,119.56,2.9,119.52,2.78,119.6Z"/><path class="cls-2" d="M52.29,121.05s0-.06,0-.1A.38.38,0,0,0,52.29,121.05Z"/><path class="cls-2" d="M48.18,120.52l0,0S48.18,120.5,48.18,120.52Z"/><path class="cls-2" d="M54.75,121.25v0l.17,0Z"/><path class="cls-2" d="M39.43,120h0S39.44,120,39.43,120Z"/><path class="cls-2" d="M44.62,120.37s0,.06-.07.08S44.61,120.44,44.62,120.37Z"/><path class="cls-2" d="M56.1,123.33l-.07-.14C56,123.25,56.06,123.32,56.1,123.33Z"/><path class="cls-2" d="M58.58,122.69a0,0,0,0,1,0,0A0,0,0,0,0,58.58,122.69Z"/><path class="cls-2" d="M57.59,122.14l-.07.07S57.59,122.2,57.59,122.14Z"/><path class="cls-2" d="M57.49,122.24l0,0A0,0,0,0,0,57.49,122.24Z"/><path class="cls-2" d="M7.72,121.55c-.07,0-.13.11-.19.2Z"/><path class="cls-2" d="M31.52,120.15v-.06A.07.07,0,0,0,31.52,120.15Z"/><path class="cls-2" d="M7.66,122.8l0,0Z"/><path class="cls-2" d="M54.79,123.75c-.06.14-.22,0-.21.11S54.76,123.94,54.79,123.75Z"/><path class="cls-2" d="M30,125.48h0Z"/><path class="cls-2" d="M7.66,122.8l.06,0a.64.64,0,0,0,0-.07S7.67,122.79,7.66,122.8Z"/><path class="cls-2" d="M23.28,120.3h0l0,0Z"/><path class="cls-2" d="M22.84,120.09l.09,0A.07.07,0,0,0,22.84,120.09Z"/><path class="cls-2" d="M7.53,121.75l-.11.11A.38.38,0,0,0,7.53,121.75Z"/><path class="cls-2" d="M18.13,120.41l0,0Z"/><path class="cls-2" d="M45,120.45l0,0S45,120.42,45,120.45Z"/><polygon class="cls-2" points="41.79 124.26 41.79 124.26 41.79 124.26 41.79 124.26"/><path class="cls-2" d="M42,124.08c-.05,0-.13.07-.17.18S41.9,124.22,42,124.08Z"/><path class="cls-2" d="M41.42,124.19l0,0S41.42,124.2,41.42,124.19Z"/><path class="cls-2" d="M44.92,124.38h0Z"/><path class="cls-2" d="M44.23,124.42l0-.06A.1.1,0,0,0,44.23,124.42Z"/><polygon class="cls-2" points="39.7 124.63 39.7 124.63 39.7 124.63 39.7 124.63"/><path class="cls-2" d="M33.2,125.84a9.52,9.52,0,0,1,2.15-.34c.13-.3.34-.31.55-.38l0,.38.17-.13c.07.12-.13.08,0,.22l.06-.24c0,.14.45.08.17.36H37c.14,0,.07-.32.24-.23s-.06.07,0,.21c.5.27.55-.75,1-.59l0,0c.07-.1.22-.09.22-.15-.07-.38-.08.21-.22,0s.17-.18.15-.43c.11.12.17-.07.27-.09.16.2.39.05.51.3.08-.11.16-.43.33-.44.12.25,0,.24.14.33l0-.19c.14,0,.12.08.11.17.15,0,.12-.26.3-.15l-.1.19c.14-.08.19,0,.38,0,0,.1-.08.1-.13.07.1.28.17-.13.22-.1s-.15-.11-.09-.3c.09,0,.19-.26.26,0l-.09.18c.19-.15.09-.23.32-.17,0,0,0,.06,0,.1.13-.24.32,0,.53,0l0,0c.08-.07.12-.24.17-.23-.12-.1-.09-.16-.11-.34.16.31.23-.36.49-.19,0,.11-.06.24-.13.13a1.79,1.79,0,0,1-.24.75c.1-.08.21-.13.19,0l0-.3a.66.66,0,0,1,.15,0c0-.19-.13-.31,0-.43s.08.3.11.16c.2-.12.07-.32.28-.22,0,0-.06.07-.08,0,.15.11.36-.07.41.29,0,.08,0,.19-.08.16v0c-.15.26.13-.08.09.25,0-.2.19-.16.28-.12l0-.22c.29-.67,0,.43.29.34s-.07-.06,0-.22c.13,0,.19.23.37.13a.73.73,0,0,1,.18.45c.12-.11.36.1.41-.14-.2-.2-.18.26-.42,0l.06-.24c.16,0,.36-.12.47,0a.18.18,0,0,1,0-.16c.22-.09.28-.33.5-.27,0,.22-.09.19-.19.21.15.17.15,0,.37.08,0,.19-.14,0-.17.18l.25-.07v0c0-.32.19,0,.33-.08.36,0,.4-.44.59-.7a.34.34,0,0,1,0,.25c-.09-.14-.07,0-.1.06s.27.3.21.44c.18-.1-.08-.17,0-.27h.26c0-.16-.13-.2,0-.32s.17,0,.32,0c0,.08.05.24-.06.24.07.06.19.06.23-.1-.17-.14.26-.15.13-.4l.17.15s0,.1-.1.07c0,.25.13-.07.19-.1s.21.07.22.17c.05-.07.18,0,.2.1.08,0,0-.16,0-.24l.26,0a2.21,2.21,0,0,1,0,.57c.09-.13,0-.41.17-.4-.08.27.2.2.09.52a.33.33,0,0,0,.46.11c.08-.22-.15-.12-.14-.34.37-.08.38-.68.66-.58l-.08-.06a.55.55,0,0,0,.25-.29c0,.27.21.72.49.66,0-.14-.16-.26-.12-.47l.18,0s0,.07,0,.1c.16-.09.32.35.36,0l.18.39-.07-.17c0-.13.2-.17.24-.23.19-.15.26,0,.37.13,0-.11-.12-.36,0-.4,0,.43.32.15.32.38.06,0,.17.12.18-.06v.28c0-.38.23-.37.4-.44,0,.51.18,0,.27.42,0-.35.3-.15.32-.44.14,0,.13.3.17.41l0-.13c.07.16.32.18.47.29l.13-.31,0,.14c0-.08.14-.13.06-.24h.08c0-.33.1-.09.24-.24a.17.17,0,0,1,0,.18c.07,0,0,.18.09.29-.05-.09.25-.61,0-.76,0-.14.09-.24.17-.18l0,.3.08-.32c.11-.05.16.15.26.18-.1,0-.2.58,0,.57-.12,0-.18.21-.25.28s.08,0,0,.17c.18-.1,0-.19.24-.23,0,.27,0,.35.22.44l-.13-.19a.45.45,0,0,1,0-.08s-.06-.07-.07-.17.21-.34.24-.18c-.2-.41.32-.33.2-.58,0-.08.15-.1.16,0-.15.21.13.31.11.5.06-.08-.13-.2-.05-.3s.16.14.22.23l0,0,.15.12c0-.14-.15-.23,0-.3s.17,0,.17.09,0,.43-.12.48c.09,0,.39-.06.27-.31h.11c-.08-.12-.28-.32,0-.36v.05l.15-.21.07.14c0-.07,0-.13.08-.13s.07.12.07.22c.16,0,.15-.15.17-.23s.13,0,.09.2c.13,0,.35,0,.44.13.17-.13,0-.06.06-.24.16.47.58.17.86.1-.09-.41.07,0,.12-.43-.06.14.27.32,0,.44l.15,0c.1.23-.25.18-.08.49.16,0,.26-.48.46-.33,0,.3.16-.1.11.22,0,.11-.09.08-.15.1l0,.06c.37.08.1-.35.29-.55.22,0,.18.22.2.36s.15,0,.2-.07c-.13.18-.26-.18-.2-.36.11.33.34,0,.39-.12-.33-.34-.22,0-.53-.38,0,.11,0,.41-.21.29.11-.15,0-.17,0-.22,0,.17-.13.08-.18.15-.06-.14.1-.4-.09-.47l0,.41c-.08-.06,0-.3-.13-.2.08-.21,0-.32.17-.39-.25-.34-.37.19-.56.34,0,0,0-.08,0-.1s-.11.1-.17.12.09-.18.06-.29h-.21v0c-.05.06-.1.1-.13,0s.08-.27.12-.38l-.21.29c0-.13-.18-.23,0-.33l-.32.07,0-.28c-.08.06-.08.11,0,.14-.11-.06-.47.49-.42,0-.25.23-.34.14-.64.29.23-.26-.27-.31,0-.44-.15-.11-.17.18-.28.23a.39.39,0,0,1,0-.48l-.13.12v0l-.12.16c-.12-.15,0-.28-.16-.31l0,.24-.09-.14c0,.11,0,.16-.13.18v0l-.12,0c.11-.15-.1,0,0-.23a.67.67,0,0,0-.28,0l0,.17c-.23.15,0-.25-.21-.26l0,.19c-.27-.31-.45.2-.65,0,.11,0,.08-.26.08-.21-.17.07-.45,0-.62.26-.07-.27-.09-.35-.27-.47s-.15,0-.19.21c-.13-.11-.37.06-.38-.14,0,.16-.11,0-.18.1l0-.08,0,.19c-.24-.42-.38.25-.62-.12l0,0-.09.08c0-.08,0-.14,0-.24l-.45,0,.09.14c-.09,0-.15.21-.26.1.17-.29-.15,0-.18-.23l.09-.08c-.13,0-.13,0-.11.21-.17.07-.13-.36-.28-.15h.11c0,.11,0,.27-.11.26s-.07-.11,0-.14c-.13.08-.33,0-.39.06s-.05-.19,0-.24c-.28.17-.13,0-.41.14v-.11l-.09.13-.15-.22.06.13c-.1,0-.15.1-.26,0l0-.16c-.27.1-.32-.26-.56,0,0,0,0-.08,0-.1-.23.25-.19-.29-.41,0,0-.06,0-.12,0-.17l-.1.11v-.22l-.08.32-.07-.22,0,.1c-.13-.41-.28-.09-.44-.4l0,.27c-.38.58-.91-.29-1.38,0v-.22l-.19.26c-.11-.17.06-.18,0-.29-.21.12-.08.32-.32.39-.13-.15,0-.17.09-.24-.22.11-.56.24-.72.12,0,0,0,.07,0,.08-.16.1-.36,0-.53,0a.12.12,0,0,1,.09-.13c-.06,0-.15-.08-.2,0l.06-.19c-.13,0-.37.14-.41-.08,0,.09,0,.25-.09.24-.07-.33-.3.15-.49,0,0-.08.15-.1.12-.11s-.17.07-.25.18l0-.13-.41.19c-.07-.33-.39.06-.37-.18-.15,0,.13.14-.06.18,0-.14-.17.07-.16-.14v0l-.13,0,.08-.21a.51.51,0,0,0-.19.42c-.11-.11-.26,0-.31-.21l0-.05c-.29.09-.51-.57-.74-.2,0,0,0-.09,0-.08H40.9l0-.17-.31.26V120a3.13,3.13,0,0,0-.78.06l0,0c-.28.18-.28-.09-.48,0a.06.06,0,0,1,0,0h-.19l0-.1c-.14.23-.41-.3-.32-.1-.07.1-.21.23-.23.36-.2,0,0-.13-.18-.22s-.17.18-.37.08V120c-.1,0-.15.1-.28.12l0-.06c-.21.24-.28-.31-.43.17-.1-.09-.27,0-.26-.23a6.37,6.37,0,0,1-.73.31c-.05-.36-.06,0-.22-.18v.19c-.37,0-.81-.42-1.22-.34l0-.19L35,120a10.3,10.3,0,0,0-1.37-.13c-.11.1-.28.34-.47.27l0,0a1.59,1.59,0,0,1-1,.1c0-.08,0-.13,0-.19-.08.22-.2,0-.28,0l.09.14c-.09.18-.24,0-.29-.13l-.15.21a.19.19,0,0,1,0-.08l0,.1L31.4,120c0,.06-.24.13-.3.37,0-.08-.17-.15-.06-.2l-.57-.06.09.09c0,.19-.15.32-.24.23.11-.15,0-.27-.06-.41-.07.11.08.17,0,.27s-.3.21-.36.12l.06-.08c-.13.08-.2-.25-.33-.23s-.21,0-.17.34c-.17.07-.08-.22-.13-.25-.08.16-.32.06-.35-.1-.08.48-.47-.17-.49.24l-.15-.23c0,.11,0,.36-.13.4-.11-.11-.09-.3-.13-.41l-.06.4c-.63-.41-1.43-.1-2.12-.44a2.47,2.47,0,0,1-1,.24l0-.05-.35-.11.26.18c-.07,0-.13.13-.21.13a1.75,1.75,0,0,0-1.37-.14c-.29.48-.21-.4-.5-.06,0,0,0-.11.06-.15a2.7,2.7,0,0,0-.79.52c0-.46-.21,0-.19-.22l0,.18c-.07-.11-.24-.14-.22-.28l-.13.24,0-.19c-.18,0-.58.15-.68-.23a2.88,2.88,0,0,1-1.76.17c-.07.16-.24.18-.37.2l-.15-.23c-.13.07-.26.37-.39.22a.13.13,0,0,1,0-.06c-.13,0-.26-.06-.39.15a.27.27,0,0,1-.25-.34c0,.38-.32,0-.32,0s-7.64-.72-9.45,1.38c-.06.19-.23.31-.16.54-.13.07-.2-.26-.22-.07.18.12,0,.48.14.71l-.11,0c0,.13.15-.15.13.09l0-.35a.35.35,0,0,1,.18.24c.08-.14.13-.62.34-.42l-.06,0c.17,0,.11.22.15.28h0l.15.17c-.11-.12-.28.17-.19.15s-.05-.09.09-.13.08.16.08.27h.16c0,.16-.11,0,0,.16l.21-.18c0,.41.23-.21.33.18-.15.1,0,.14,0,.27l.37,0c0,.06-.09.13,0,.11s.12-.11.16-.11.27,0,.27.27c.26.17.1-.35.34-.2,0,.16-.19,0-.08.21l.24-.07c0,.08,0,.27-.13.24.67.2,1.05,1.06,1.65.82.09.2-.06.14-.12.27.43-.27.63.42,1,.38v-.16c.54.49,1.16.17,1.75.37l-.07-.11c.07-.16.2-.18.3-.26,0,.09-.06.35.11.28,0-.06-.11-.11-.09-.19.51.41,1.57.27,2.41.46,1.12-.16,2.34.13,3.44,0-.16,0-.1-.38,0-.29.36.67.59-.13,1,.32.64-.23,1.23.34,1.81-.19l0,.19c.09.08.11,0,.2-.07v0c.22.07.49-.13.62,0v-.22c.13,0,.07.17.2,0v.11l.15-.21c0,.38.38,0,.48.19a1.29,1.29,0,0,1,.75-.18c.06.2.37.19.58.28a5.59,5.59,0,0,1,1.45-.08l0-.25.13,0c0,.06,0,.09,0,.11.11.28.3-.09.41.08-.07-.22-.09,0-.17,0s0-.35.14-.23v0l.09-.13c0,.19.11.28.13.47.42-.06.71-.39,1.15-.31,0,.21.32-.07.24.31.27-.15,0-.3.07-.57.07,0,.15-.1.16,0s.07.22,0,.26l.18,0s0,.08,0,.1c.35-.22.65.23,1,0,0-.13-.13,0-.11-.17.32-.28.29.24.59,0l-.06.18c.1-.13.14-.29.3-.14s-.13.18-.21.28c.12,0,.4,0,.31-.25.13-.07.18.12.25.18s-.12-.15,0-.25a1.46,1.46,0,0,0,.69.12c0,.06,0,.14,0,.16C33,125.41,33,125.9,33.2,125.84Z"/><path class="cls-2" d="M45,124.41l-.09,0a.24.24,0,0,1,0,.16Z"/><path class="cls-2" d="M40.76,124.38l0,.06S40.75,124.41,40.76,124.38Z"/><path class="cls-2" d="M39.74,124.79c.07,0,0-.1,0-.16A.34.34,0,0,0,39.74,124.79Z"/><path class="cls-2" d="M47.4,123.78a.2.2,0,0,0,0,.09S47.41,123.8,47.4,123.78Z"/><path class="cls-2" d="M54.06,123.76l0,0S54,123.76,54.06,123.76Z"/><path class="cls-2" d="M53.68,123.43l-.07,0S53.66,123.46,53.68,123.43Z"/><path class="cls-2" d="M45.79,123.9s0,0-.07.07A.1.1,0,0,0,45.79,123.9Z"/><path class="cls-2" d="M53.53,123.52l-.09,0v.05Z"/><path class="cls-2" d="M54.17,123.79a.45.45,0,0,1-.11,0C54.11,123.82,54.14,123.82,54.17,123.79Z"/><path class="cls-2" d="M49.84,123.43h0C49.76,123.54,49.8,123.49,49.84,123.43Z"/><path class="cls-2" d="M53.13,123.9h0l0,.06Z"/><path class="cls-2" d="M54.58,123.86a.1.1,0,0,0,0,0l.06,0A.2.2,0,0,1,54.58,123.86Z"/><path class="cls-2" d="M51.24,123.74a.92.92,0,0,0,0-.18S51.22,123.6,51.24,123.74Z"/><path class="cls-3" d="M61.9,4.05a.24.24,0,0,0,0,.07C61.92,4.06,61.91,4,61.9,4.05Z"/><path class="cls-3" d="M31.3.25h0Z"/><path class="cls-3" d="M61.81,24.07v0Z"/><path class="cls-3" d="M.68,45.35v0Z"/><path class="cls-3" d="M2.54,3c-.07.13-.22.32-.35.51A2.71,2.71,0,0,0,2.54,3Z"/><path class="cls-3" d="M66.78,29.79l-.57-.05A2.14,2.14,0,0,0,66.78,29.79Z"/><path class="cls-3" d="M87.09,29.6l-.06,0S87,29.59,87.09,29.6Z"/><path class="cls-3" d="M79.15,29.4l-.57,0A3.6,3.6,0,0,0,79.15,29.4Z"/><path class="cls-3" d="M78.31,29.44l.27,0A1.83,1.83,0,0,0,78.31,29.44Z"/><path class="cls-3" d="M94.05,32.56c0-.58,0-1.08-.06-1.61Z"/><path class="cls-3" d="M.65,109.88l0-.13C.64,109.87.65,109.89.65,109.88Z"/><path class="cls-3" d="M93.64,31.83v0Z"/><path class="cls-3" d="M61,23.89c0-.59,0-1.79,0-1.78C61,22.73,60.92,23.61,61,23.89Z"/><path class="cls-3" d="M4.62,122.32l.24.26Z"/><path class="cls-3" d="M93.64,31.83v.48l0-.14Z"/><path class="cls-3" d="M56.55,127.06h0Z"/><path class="cls-3" d="M60.12,127.14h-.76C59.76,127.16,60,127.15,60.12,127.14Z"/><path class="cls-3" d="M94,31,94,30C94,30.37,94,30.66,94,31Z"/><path class="cls-3" d="M94.34,117.71v0Z"/><path class="cls-3" d="M4.81,1.17c.08,0,.21-.1.31-.15S5.12,1,4.81,1.17Z"/><polygon class="cls-3" points="2.11 26.95 2.11 26.96 2.11 26.96 2.11 26.95"/><path class="cls-3" d="M2.05,25.53A12.3,12.3,0,0,0,2.11,27C2.11,26.5,2.1,26.09,2.05,25.53Z"/><path class="cls-3" d="M2.08,30v0Z"/><path class="cls-3" d="M4.64,2.85h0v0Z"/><path class="cls-3" d="M2.22,7.19a2.84,2.84,0,0,0,0,.35Z"/><path class="cls-3" d="M2.22,44.06h0v0Z"/><path class="cls-3" d="M2.56,97.29C2.53,92,2.44,85,2.47,79.73c-.1-1.16-.1-2.84-.13-4.53L2.47,75l0-1.41c0-.58,0,1.08.07.07l-.08-.53c.05-.12,0-3.62.13-1.26V66.43c0-1.21-.11-.71-.08-2.05,0-.27,0,.48.07.38.1-4-.24-4.64-.19-8.39l0,.32,0-1.17V55a.82.82,0,0,0,0-.21,17.05,17.05,0,0,0,0,1.82c-.11-.1-.06-1.43-.14-1.35,0-.88,0-1.39,0-2.16.07-1.3,0-3.17.1-4.15,0-.64-.14-1.35-.14-2.72.08-1,.08.23.11-1.11l-.06-.22c0-1.09,0-.92,0-.88,0-1.17-.08-1,0-2.45l.06.82c0-1.09,0-1.53,0-3a6.22,6.22,0,0,1,0,1.08,11.61,11.61,0,0,0,0-1.85c0,.13,0,1.17-.1.66,0-.75-.08-1.6,0-2.14l.06.82c-.05-1.57-.08-.83-.05-2.63,0,.09,0,0,0,.09-.08-1.14,0-2.63,0-4.32l0,.32c0-.68-.08-1.05-.08-1.42,0,1-.05.7-.11.79.1-1.27-.12-1.94-.06-4a3.54,3.54,0,0,1,0,1.1,11,11,0,0,1,.25,2.06,8.31,8.31,0,0,1,0-1.51l-.1-.25V27c-.06-.2-.1,1-.15-.14s.11-.66.06-.86c0-1.71-.11-.7-.07-2.35,0,.16,0,.49,0,.63A31.46,31.46,0,0,1,2.07,21a2.65,2.65,0,0,1,.05.66l0,0c.09,1.3,0-1.08.08-.68a18.2,18.2,0,0,1,0-2.31l-.08.23c-.22-2.49.15.14.12-2.32,0-1.57,0,.59-.07-.37s.08-1.45,0-3a7.1,7.1,0,0,1,.15-1.38c0-.94,0-2.85,0-3.38-.07,1.6.09,1.6,0,3.47l-.08-.52c0-1.29,0-3,0-3.83,0,.17-.05.24-.06.14A6.74,6.74,0,0,1,2.4,5.76a5.41,5.41,0,0,1,.86-1.7c.19-.14-.41.64-.66,1.3.25-.48.39-.71.57-1a5.74,5.74,0,0,1,1-1.21c.09,0-.79.79-.82,1A6.16,6.16,0,0,1,4.63,2.83h0a4.93,4.93,0,0,1,2.2-1.12,6.68,6.68,0,0,1,1.58-.25L9.59,1.4c.67,0,1.18-.1,2-.14.43,0,.56.05.38.08a2.12,2.12,0,0,0-.83,0c1,0,2.13.1,1.59.15,1.55,0-.56-.06.39-.09h2.12c-.25,0-1-.06.1-.11H17.9c-.17,0,.38.09-.53.08a13.49,13.49,0,0,0,1.85,0c-1.32-.05,2.18,0,1.19-.13l1.32.05c-.3,0-.33,0-.78,0a10.23,10.23,0,0,0,1.55,0c.46,0,1.67,0,1.77.05a13.54,13.54,0,0,1,1.64,0c.62,0,.05-.06.23-.08h2.12c.11.05.28.18,0,.2a8.14,8.14,0,0,1,1.49-.14c-.69.09,1.6.07.6.18.69.06,2.67.06,3.76,0,.67-.07-1.18,0-1.11-.11,3.06,0,3.25-.23,5.49-.19l-.58,0c1.4-.05,1.24,0,2.06-.1-.39.09,1.59.24,3.89.22.2,0-1.28-.08-.91-.15l1.53,0c.11,0-.06,0-.25,0,1.37,0,2.55.11,2.94,0l1.4.13-.56,0c.19-.05,1.73-.06,2.05-.08a23.89,23.89,0,0,1,3,.05c-.27,0-1-.12.28-.14,0,.15,2.59.06,2.55.13a9.92,9.92,0,0,0,1.44,0l-.08.1a20.21,20.21,0,0,1,3.3-.15c-.11.1.19.08.55.08,0,.12,0,.26,0,.38A3.22,3.22,0,0,1,61,2c.12.26,0,2.47.14,2.71A2.93,2.93,0,0,1,61,6l0,.5C61,7,61,9,61,10.23l.1,1.11,0,.41c0,.18,0,1.1.08.53v.6a10.61,10.61,0,0,1,.07,2c0,.28,0,.21-.06,0,0,.6-.05.34-.09.67,0-.43.2,2.16.25.54a6,6,0,0,1,.06,1.43l-.1.35.1.71c0,.93-.05,1.32-.06,2.07,0-.76-.19-1.7-.19.28,0-1-.07-1.56-.09-2.09,0,.41,0,.61-.06,0,0,1.55.07.52.08,2.05-.09-.09-.12.34-.15,1.68l.07-1c0,.05,0,.11,0,.19a1.54,1.54,0,0,1,.06-.57c0,.3.11,1.78.06,2,.14-1.54.1,2.69.19,1.7a8.74,8.74,0,0,1,0,1.36c-.07-1.28-.11,1-.17.75,0,.48.07-1,.1-.36s0,1.3-.08,1.77v-.34l0,1.61c0,.21.08-1.66.1-.17v.27c.54,0,1.67,0,1.55,0a3,3,0,0,0-.52.1,6.29,6.29,0,0,1-1.08.06l2.3,0c.58,0,.94,0,.45-.08h.92c-.58,0-2.18-.1-.35-.12v0l1.27-.07.56,0a2,2,0,0,1,.66,0,4.33,4.33,0,0,1,.53.07,5.54,5.54,0,0,0,1.44-.07c.77,0,1.06,0,.7.06,1,0,2.89,0,3.6,0,1.41,0-.29,0,.54-.08,1.21.16,4.65.06,6.94,0-.62-.14.63,0,1-.14-.49,0,2.18.11.17.15l1.23,0c.83.08-2,.06-.76.16s2.27-.15,3.89-.1c-.54.1,1.25,0,.85.07a12.1,12.1,0,0,1-1.25,0l.28,0c3,0,.88-.11,2.46-.18,1.83,0,1.44.08,1.55.12.29,0,1.21,0,1.69,0-1.12.06-2.07-.06-1.55-.12a22.52,22.52,0,0,0,3.22,0c-2.62-.12-1.81,0-4.28-.14a5.54,5.54,0,0,1-1.76.1c.93-.05-.06-.06-.32-.07a12.71,12.71,0,0,1-1.48,0c-.41,0,.89-.13-.61-.15l-.28.13c-.59,0,.25-.1-1-.06a3.83,3.83,0,0,1,1.48-.14,41.86,41.86,0,0,0-4.65.12l.33,0c-.33,0-.94,0-1.4,0-1,0,.81-.06.55-.1H78.31a5.17,5.17,0,0,1-1,0c.49,0,.69-.08,1-.12l-1.76.09c.19,0-1.45-.07-.2-.11l-2.6,0-.22-.09c-.62,0-.64,0,.1.05-.89,0-3.94.16-3.47,0-2,.07-2.78,0-5.25.09,1.9-.09-2.18-.11-.17-.15-1.17,0-1.44.06-2.33.08-.39,0-.46-.06-.36-.09l.27,0,.21,0,.32,0-.93,0,0,0h-.22l0-.52a2,2,0,0,1,.06-.55,2.59,2.59,0,0,0,0-.65l-.08-.23,0-.71c0,.27-.06-.36-.06-1.12h0v-.92c.05.91,0-.85.07-.43,0-.79,0-.81,0-2.25l0,.26c-.05-1.88.08-.08.08-1.6l-.06.1c.11-2.18-.06-3.71,0-5.31,0,.92.09.69.07.67,0-1.39,0-3.66-.08-5.09a11.22,11.22,0,0,0,.16-2.13,9,9,0,0,0-.07-1.58c0-1,0-3,0-3,0-.24,0-.94,0-1.51l0-.12-.06.09c.05-.52.06-1.34.05-2-1.62,0-2.38.08-3.68,0l.32,0-.79,0c-.12,0,.2,0,.24-.08L54.33.4l.71,0c-.76,0-1.28.07-2.15,0,1.45-.09-1.21,0-1.45-.08l.78,0c-1.06,0-1.06,0-1,.07-1.38,0-1-.12-2.22-.06h.91c.26,0-.39.09-1,.09-.14,0-.57,0-.11,0-1.09,0-2.72,0-3.2,0s-.4-.07-.08-.09l-3.39,0,0,0-.8,0L40.25.35l.41,0c-.77,0-1.25,0-2.14,0l.36-.05c-2.16,0-2.5-.09-4.55,0-.14,0,.18,0,.34,0-1.9.09-1.44-.09-3.35,0,.12,0-.09,0,0-.06l-.87,0L30.5.21l-.71.11L29.25.25l-.34,0C28,.14,26.66.25,25.39.14l.22.09c-3.21.19-7.34-.1-11.22,0l.07-.07L12.85.23c-.85-.06.52-.06.25-.1-1.71,0-.71.11-2.7.13-1-.05.35-.06.83-.08-1,0-2.05,0-3.22.07A8,8,0,0,0,5.12,1s-.1.07,0,0A8.05,8.05,0,0,0,1.82,4.24a3.46,3.46,0,0,1,.37-.69,6.31,6.31,0,0,0-.8,1.54,5.6,5.6,0,0,1,.17-.54A7.13,7.13,0,0,0,.92,6.61C.8,7.33.82,8,.78,8.07c0-.13.08-.08.07.83-.11.51.05,2.48,0,3.94,0-.18,0-1.25,0-.94,0,.73,0,1.38,0,2l0-.2.06,3.4c-.11.51,0,3.21-.06,3,0,1.21.05-1,.06.52C.83,21,.9,22,.83,22v.91l-.07-.68A6.24,6.24,0,0,0,.9,23.83c0,.88,0,2.12-.08,2.52V26c0,2.46-.2,4.07-.08,6,0,.15,0,.13,0-.17v1.52l0-.36.08,2.51,0,0,0,6.39,0-.32c.06,2.33,0,2.25,0,4a1.1,1.1,0,0,1,0-.18v1.53l0-.34c.07,1.14-.11,3.25,0,2.55,0,.65.08,1.75.12,1.94a9.63,9.63,0,0,1-.08,1.45c0,1.21.06,1.42,0,3.06l0,0,0,2.31,0-.32c.08,1.75-.1,2.18.06,3.55A18.05,18.05,0,0,1,.64,63.1l.09,6a10.52,10.52,0,0,0-.06,1.77l.07-.1c0,3-.15,6.55-.13,9.92l-.06.09.07.67L.56,92.66c0,1,.11,2.38.09,3.89v-.16c0,2.61.06,5.38,0,8.23,0-.18-.05.11-.06-.21.07.67,0,1.67,0,2.28l0-.72a14.79,14.79,0,0,1,0,2.39l.07,1.29a2.23,2.23,0,0,1,0,.23l0,.23-.09.68c0,.31,0,2,.12,2.54,0,.13,0,1.32-.06.4l0,2.34a13.48,13.48,0,0,0,.19,2.5l-.09-.79a2.64,2.64,0,0,1,.19.75c.12.45.24,1,.38,1.39-.37-1-.13,0,0,.38.27.64-.15-.59,0-.25a12.43,12.43,0,0,0,1.52,2.75l-.33-.4a11.64,11.64,0,0,0,1.88,2.2c.84.63,1.49,1,1.36.83,1.32.73.48.35.91.59a16.76,16.76,0,0,0,1.6.59c.63.19,1.21.31,1.35.35.91,0,3.87.16,4.15.05l1.14.07a3.21,3.21,0,0,1,1.19-.13,2.82,2.82,0,0,1,.93.14l.59-.13c5,.14,11.66.05,17.16.16,2.46,0,5.56-.09,8.43-.07l-.32,0,2.85,0-2.07-.06c.63,0,1.11,0,1.71,0,3.13,0,7.31.12,11.17,0,2.5-.15,1.66.14,4,0l-.46,0c2.57,0,4-.08,6.55-.17-.3.15,1.68,0,1.45.08l.21-.07c.58,0,1.93.06,1.73.1L71.2,127l.1.07c1.51,0,4.75,0,5.54.08,1.87-.05,4.28-.07,6.8-.07h1.92a8.88,8.88,0,0,0,2.11-.25A8.74,8.74,0,0,0,91.31,125a9.7,9.7,0,0,0,2.06-2.73,9.46,9.46,0,0,0,.57-1.15,8.49,8.49,0,0,0,.33-1.81c0-.31,0-.61,0-.91v-.79a.22.22,0,0,1,0,.12c0-1.1,0-2.15,0-3.19,0-1.21,0-2.38.11-2a18.21,18.21,0,0,1,0-2.57s.31-62.2-.38-77.38c-.06-.51-.1-1.92-.17-1.38,0-1.09.08-1.59,0-1.8,0,1.48-.16-.46-.24,1v-.93c-.05-.19,0,1.26,0,1l.11.26a11.3,11.3,0,0,1-.08,1.43A15.14,15.14,0,0,1,93.79,35v-.47c0,1.38-.08.85-.09,1.13v-.3l-.06,1.16c0-.88-.06-2.33,0-1.57,0,1.64,0-.43,0,.8,0,.77-.05.55-.09.52v1.37s0-.91,0-.35L93.54,39c-.14.32.06,1.88-.07,2.67,0-1.24,0,.11-.09-.09v3.05c0,.29,0-.8,0-.34a10.85,10.85,0,0,0,0,1.25c0,.27,0,2.28-.09,2.2-.06,2.06.11.86.06,2.79,0,.25,0-1.53-.07-.67l0,2a4.9,4.9,0,0,1-.07-1.13c-.08,5.4-.37,8.31-.29,13.25-.07.69,0-.5-.09-1,.09,3.58-.15,5-.14,8.08l.06,0c-.17,4.25-.07,9.36-.14,14.15l0-.57c0,.66,0,1.73.08,2.52,0,.12-.12-.57-.09.82,0-.29,0-.88.06-.7-.14,4.12-.11,12.81-.17,19.59v11.42a7,7,0,0,1-.06.79,6.62,6.62,0,0,1-.37,1.52,7,7,0,0,1-4.34,4.21,7.87,7.87,0,0,1-1.5.32l-.78,0H81.22c1.37,0,.79.13-.24.1-2.83-.23-4.91,0-7.79-.12-5.24.08-9.92-.12-14.8,0l-.09-.06c-.73,0-.92,0-1.69,0l0,0c-1.81,0-4,0-5,0l-.06.07c-1.08,0-.56,0-1.66,0l0,0-1.28.07c.12-.12-3,0-3.89-.07-1.39,0-4,.08-6.13.06-.39-.07-3-.07-4.62-.1H22.13l.07.09H21.14s-.13,0,0,0c-.83-.09-2.46,0-3.31,0a8.6,8.6,0,0,0,1.35,0c.87,0,0,.12-1.14.08l0,0-.8,0c-.09-.06-.83-.09-.92-.16l-4.71.07a8.56,8.56,0,0,1-4.28-.84c.17,0-.37-.18-.83-.49s-.85-.63-.56-.47c-1.53-1.22.17.31-.57-.21a4.67,4.67,0,0,1-.87-.88c.2.17-.24-.38.07-.06a7.43,7.43,0,0,1-.81-1c-.05-.11.1.13.2.24a7.78,7.78,0,0,1-1.41-3.36,12.08,12.08,0,0,1-.13-1.71c0-.64,0-1.28,0-1.94-.05-.2,0,1-.06.86-.09-2.67.08-2.36,0-4.85l.06.52a20,20,0,0,1-.05-2.48,10,10,0,0,1,.1,1.76,12.72,12.72,0,0,0-.09-2.51c0-1.08,0-1.48.07-2.07,0,0,0,1-.09.38,0-1.48,0-3.77,0-5.58,0,0,0-.11,0,0C2.42,99.14,2.58,99.29,2.56,97.29Z"/><path class="cls-3" d="M5.19,2.48a4.81,4.81,0,0,0-.55.37s0,0-.22.25A5.8,5.8,0,0,1,5.19,2.48Z"/><path class="cls-3" d="M2.14,35.41l0,.26A.81.81,0,0,0,2.14,35.41Z"/><path class="cls-3" d="M2.27,43.83c0-.61,0-.07,0,.23C2.23,44.07,2.25,44.06,2.27,43.83Z"/><path class="cls-3" d="M24.27,1.33c-.12,0-.2,0-.18,0C24.26,1.35,24.3,1.34,24.27,1.33Z"/><path class="cls-3" d="M61,17.88v-.21S61,17.78,61,17.88Z"/><path class="cls-3" d="M61.09,14.88v-.62C61.08,14.53,61.09,14.72,61.09,14.88Z"/><path class="cls-3" d="M11.12,1.36l-.57,0C10.86,1.38,11,1.37,11.12,1.36Z"/><path class="cls-3" d="M61.07,13.64v-.76h0Z"/><path class="cls-3" d="M61,18.84v-1C61,18.26,61,18.56,61,18.84Z"/><path class="cls-3" d="M44.2,1.24h-.08C43.53,1.27,43.89,1.26,44.2,1.24Z"/><path class="cls-3" d="M60.94,10.33v-.1l0-.22Z"/><path class="cls-3" d="M60.94,22.11v.05A.12.12,0,0,1,60.94,22.11Z"/><path class="cls-3" d="M55.56,1.35c.21,0,.29,0,.3-.06C55.61,1.29,55.45,1.3,55.56,1.35Z"/><path class="cls-3" d="M89.4,25.24l0,0S89.4,25.23,89.4,25.24Z"/><path class="cls-3" d="M87,22.83l0,0S87,22.83,87,22.83Z"/><path class="cls-3" d="M90.85,26.65h0a.91.91,0,0,0,.1.1Z"/><path class="cls-3" d="M81.81,17.86l0,0Z"/><path class="cls-3" d="M84.89,20.82l-.06,0S84.87,20.83,84.89,20.82Z"/><path class="cls-3" d="M91.17,27.89v-.07S91.15,27.86,91.17,27.89Z"/><path class="cls-3" d="M92.83,29.11h0Z"/><path class="cls-3" d="M92.36,28.44l-.06,0S92.35,28.45,92.36,28.44Z"/><path class="cls-3" d="M92.28,28.4h0Z"/><path class="cls-3" d="M62.15.62A.28.28,0,0,0,62,.56Z"/><path class="cls-3" d="M77,13.5h0Z"/><path class="cls-3" d="M61.82.88l0,0A.05.05,0,0,0,61.82.88Z"/><path class="cls-3" d="M90.28,27.26c-.08,0-.13-.13-.16-.09S90.21,27.29,90.28,27.26Z"/><path class="cls-3" d="M74.77,13.89l0,0Z"/><path class="cls-3" d="M61.82.88l0,0a0,0,0,0,1,0,0Z"/><path class="cls-3" d="M71.92,9Z"/><path class="cls-3" d="M71.7,8.66l.07,0A.17.17,0,0,0,71.7,8.66Z"/><path class="cls-3" d="M62,.56l-.09,0A.25.25,0,0,0,62,.56Z"/><path class="cls-3" d="M68.76,6.13l0,0Z"/><path class="cls-3" d="M85.07,21l0,0S85.1,21,85.07,21Z"/><polygon class="cls-3" points="82.25 20.16 82.24 20.16 82.24 20.16 82.25 20.16"/><path class="cls-3" d="M82.39,20.21a.25.25,0,0,0-.15-.05A.23.23,0,0,0,82.39,20.21Z"/><path class="cls-3" d="M82,19.94v0S82,19.94,82,19.94Z"/><polygon class="cls-3" points="84.12 21.93 84.12 21.93 84.12 21.93 84.12 21.93"/><path class="cls-3" d="M83.69,21.55s0,0,0,0A.05.05,0,0,0,83.69,21.55Z"/><polygon class="cls-3" points="80.89 19.09 80.89 19.09 80.88 19.09 80.89 19.09"/><path class="cls-3" d="M76.64,15.77A16.9,16.9,0,0,1,78,16.88a.8.8,0,0,1,.42.21l-.07.11.13.06c0,.07-.09-.05-.05,0l.09,0s.26.27,0,.18l.41.36c.09.09.12,0,.2.09s-.05,0-.07,0c.24.34.51.13.75.43h0c.07,0,.16.1.17.09s-.1,0-.13-.13.15.05.19,0c0,.09.12.07.19.12s.22.23.24.36.2,0,.3.07-.07.05,0,.16l.06,0c.07.08,0,.08,0,.1s.13,0,.21.13H81a1.31,1.31,0,0,1,.23.2s-.07,0-.09-.05c0,.12.13.06.16.1s-.07-.11,0-.12.18,0,.17.13h-.1c.15.07.12,0,.23.14s0,0,0,0,.2.17.32.29h0c.06,0,.13,0,.15,0s0-.09,0-.14c0,.16.23,0,.34.23a.07.07,0,0,1-.11-.05c-.12,0-.19.1-.32.05.08,0,.16.09.11.11l.09-.06.08.08c.06,0,0-.14.11-.1s0,.12,0,.1.12,0,.22.11,0,0,0,0,.23.18.17.29-.06,0-.08,0v0c-.15,0,.1.06,0,.11s.15.07.2.13l0-.07c.33,0-.11.1.09.24s0-.05.08,0,.06.15.19.23.06.14,0,.21.19.21.28.19c-.07-.16-.18,0-.25-.25l.1,0c.09.09.24.17.29.25a.05.05,0,0,1,0-.05c.16.1.25.08.37.22s-.1,0-.17-.06c0,.13.09.09.21.23,0,0-.09-.09-.14-.05l.16.12h0c.09-.06.11.11.22.17s.35.12.53.16q0,.08,0,.09c0-.08,0-.05-.08,0s.1.22,0,.22c.13.08,0-.08.08,0l.16.14c0-.05,0-.11.08-.07a1,1,0,0,1,.19.17s0,.09-.09,0,.1.11.16.1.2.11.18,0l.06.13s0,0-.07,0,.1.06.14.08.11.13.09.16.12.1.1.14,0,0,.07,0l.16.14c0,.05-.1.15-.13.14s.11-.08.2,0c-.11,0,.07.16-.07.17,0,.09.16.22.25.28s-.06-.11,0-.16c.24.19.39.05.54.23l0-.05c.13.06.11.06.21.07-.09,0,0,.28.15.42,0,0,0-.15,0-.18l.13.1s0,0,0,0,.11.25.21.2l0,.19v-.07s.17.07.21.08a.27.27,0,0,1,.19.23s0-.15.11-.08c-.09.11.16.22.11.27s.07.13.12.08l-.07.07c.1-.09.23,0,.35.11-.14.11.12.1.06.25.1-.06.22.14.31.08S89,26,89,26H89c0,.08.15.22.22.33h.15v.07s.11,0,.09,0l0,.05c.08-.08.09,0,.21.08s0,0,0,0,0,.06,0,.11.3,0,.21-.15.12,0,.15.06l0,.09.12,0c.08.05.07.13.12.19s-.26,0-.11.16a.61.61,0,0,0-.22-.07s0,.05,0,0c.14.08.08,0,.21.08-.07.06-.06.11,0,.22l0-.11h0a.06.06,0,0,1,0-.08s.21,0,.19.09c0-.2.27.1.26,0s.11.06.09.11,0,.14-.05.17,0-.12,0-.1.06.13.08.18h0l.06.11c.05,0,0-.14.06-.08s.11.09.08.11-.1.1-.18.05.25.2.23.07l.07.07c0-.07-.09-.23,0-.11h0l.14,0v.08s0,0,.08,0,0,.06,0,.09.13,0,.16,0,.07.08,0,.1.22.19.24.27,0,0,.09,0c0,.2.31.36.5.5,0-.15,0,0,.17,0-.07,0,.09.23-.08.12l.1.08c0,.11-.19-.1-.17.06s.28,0,.37.19c-.11,0,.11.06,0,.11a.2.2,0,0,1-.12-.06v0c.21.23.15,0,.31,0s.06.16,0,.2a.3.3,0,0,0,.15.1c-.13,0-.12-.19,0-.2,0,.14.2.19.27.19-.12-.26-.14-.12-.24-.38,0,0-.11.08-.19,0,.1,0,0-.05,0-.08s-.09-.05-.14-.06.15,0,.06-.16l-.12.08s.09,0,0-.11c.1,0,.06-.1.2,0-.07-.22-.27-.16-.42-.23h.05c-.05,0-.1,0-.14-.06s.11,0,.11,0l-.13-.11h0s-.09,0-.08-.07l.16,0-.19,0s-.06-.15,0-.09L92,28l0-.09c-.06,0-.07,0,0,0s-.41-.14-.25-.25a3,3,0,0,1-.46-.28c.2.06-.09-.23.09-.12-.06-.11-.15,0-.23-.1s0-.13.14-.09l-.11-.05h0l-.11,0c0-.1,0-.08,0-.16l-.07.05,0-.09c0,.05-.06,0-.12,0h0l-.08-.05c.1,0,0-.07,0-.09l-.18-.14,0,.06c-.17-.09,0-.07-.06-.17l0,.05c-.1-.23-.32-.2-.4-.36.08.05.11,0,.1,0a1.65,1.65,0,0,0-.44-.28.26.26,0,0,0,0-.26c-.09-.07-.1-.08-.17-.06s-.23-.19-.19-.24-.07-.07-.14-.08v0l0,.06c0-.23-.29-.15-.35-.37h0l-.08,0s0,0,.07,0l-.27-.26,0,.09c-.06,0-.14,0-.18-.13.17,0-.09-.08-.06-.15l.07,0c-.08-.06-.08-.06-.12,0s0-.15-.13-.19l.07.06s-.09,0-.14,0,0-.06,0,0S88,24,88,24s0-.08.05-.07c-.21-.11-.07-.08-.28-.19l0,0-.09,0,0-.14v.07c-.06-.05-.11-.06-.17-.14h.07c-.19-.13-.13-.24-.34-.32,0,0,0,0,0,0-.2-.07,0-.17-.25-.23,0,0,0,0,0,0l-.09,0,.06-.05-.13,0v-.09h-.05c0-.16-.14-.17-.17-.34l-.05.09c-.36-.08-.48-.58-.83-.77l.06-.05-.18-.05c0-.1.08,0,.08-.05-.15-.09-.12,0-.29-.09s.07,0,.12,0a1.69,1.69,0,0,1-.47-.38s0,0,0,0a2.21,2.21,0,0,1-.33-.29s.06,0,.09,0-.07-.1-.13-.1h.08c-.07-.09-.26-.18-.23-.25s0,.07-.11,0-.22-.13-.29-.27.12.06.09,0-.11-.08-.19-.1l0,0-.3-.18c0-.12-.25-.2-.18-.25-.09-.08,0,.11-.08,0s-.12-.08-.07-.12h0l-.08-.07h.09a.17.17,0,0,0-.21,0c0-.09-.16-.15-.14-.22h0c-.2-.14-.18-.42-.4-.46,0,0,0,0,0,0l-.11-.11h.06l-.24-.11,0,0a5.8,5.8,0,0,0-.49-.42h0c-.21-.11-.15-.18-.3-.26h0l-.12-.1h0c-.13,0-.17-.29-.17-.19s-.18-.06-.22,0,0-.07-.06-.16-.15-.05-.25-.19l0,0c-.06,0-.12-.06-.2-.13h0c-.19-.06-.1-.23-.31-.2,0-.07-.15-.15-.1-.2-.19-.11-.33-.21-.52-.33.06-.11,0,0-.09-.16l0,.05c-.24-.2-.4-.55-.67-.76l0,0h-.1c-.25-.26-.59-.6-.81-.79a.85.85,0,0,1-.35-.2h0a3.22,3.22,0,0,1-.64-.54s0,0,.06,0-.13-.11-.17-.15l0,.08c-.1,0-.15-.13-.15-.19l-.14,0s0,0,0,0h0V13.4s-.17-.11-.27-.08-.06-.13,0-.08l-.34-.33,0,.07s-.16,0-.2-.08.07-.07.07-.13,0,.08,0,.08a.46.46,0,0,1-.24-.16h0c-.1-.06-.06-.17-.14-.24s-.13-.11-.19,0c-.12-.07,0-.09,0-.13s-.21-.16-.19-.22c-.16.07-.24-.29-.35-.21l0-.13a.15.15,0,0,1-.18,0c0-.09,0-.13,0-.17l-.14.06c-.28-.45-.84-.82-1.18-1.28a5,5,0,0,1-.68-.51h0l-.2-.22.12.18a.8.8,0,0,1-.16-.08,3,3,0,0,0-.8-.8c-.29-.05,0-.21-.29-.29h.07a5.65,5.65,0,0,0-.6-.31c.12-.09-.13-.11-.06-.16l-.06,0c0-.07-.11-.17-.07-.19l-.13,0,0,0c-.11-.11-.39-.29-.36-.44a5.77,5.77,0,0,1-1.11-.93.64.64,0,0,1-.27-.16l0-.14c-.1,0-.25-.06-.29-.16h0c-.09-.06-.14-.16-.27-.18s-.15-.19-.07-.22c-.1.08-.19-.19-.19-.19S63.75,1.13,62.15.62c-.08,0-.21-.06-.22,0-.1-.06-.06-.18-.12-.14s-.14.09-.08.24L61.65.71s.13.05.06.09L61.8.73a.25.25,0,0,1,.06.16c.08,0,.22-.07.3.09l0,0c.11.08,0,.11,0,.14l0,0,.05.12c0-.09-.21-.11-.15-.07s0,0,.09,0,0,.07,0,.1l.11.09s-.07-.07-.06,0l.17.08c-.07.12.18.08.16.22-.12-.06,0,.05-.07.07l.23.2s-.08,0,0,0,.09,0,.11.06.17.15.11.21c.11.19.14,0,.25.14s-.12-.09-.1,0l.17.12s-.09,0-.14,0c.36.42.38.83.8,1.11,0,.1-.06,0-.13,0,.33.17.28.44.52.64l0,0c.21.41.66.68,1,1V5.15a1.28,1.28,0,0,1,.24.11s-.12,0,0,.13,0-.09,0-.1a14,14,0,0,0,1.36,1.45c.72.58,1.39,1.33,2.09,1.91-.1-.09,0-.15.09-.06.06.36.39.31.51.62.44.29.66.76,1.14.95l0,.06c0,.07.08,0,.14.1h0c.12.14.33.24.38.33l.06-.05c.08.07,0,.08.11.12l0,0,.15,0c-.1.09.22.21.24.31a2.54,2.54,0,0,1,.5.38c0,.07.18.25.28.38a10,10,0,0,1,.91.79l0-.07.08.07s0,0,0,0,.21.14.23.24c0-.09,0-.06-.09-.1s.08-.09.14,0h0l.09,0c0,.06,0,.13,0,.18a7.06,7.06,0,0,1,.78.57c-.08,0,.21.16.07.2.19.12,0-.09.17-.09s.12.06.09.1,0,.09,0,.06l.11.09s0,0,0,0c.27.14.34.41.59.53,0,0-.07-.08,0-.1.26.12.12.22.35.34h-.08c.09,0,.15,0,.22.14s-.13,0-.2-.05.25.2.25.11.08.13.11.18,0-.1,0-.09a2.48,2.48,0,0,0,.39.41s0,0,0,0C76.6,15.54,76.48,15.65,76.64,15.77Z"/><path class="cls-3" d="M84.17,22l0-.06a.06.06,0,0,1-.06,0Z"/><path class="cls-3" d="M81.59,19.62h0Z"/><path class="cls-3" d="M80.87,19.15s0,0,0-.06A.06.06,0,0,0,80.87,19.15Z"/><path class="cls-3" d="M85.77,23.16s0,0,0,0S85.77,23.17,85.77,23.16Z"/><path class="cls-3" d="M89.83,26.86a0,0,0,0,1,0,0A0,0,0,0,0,89.83,26.86Z"/><path class="cls-3" d="M89.68,26.57l-.06,0S89.66,26.56,89.68,26.57Z"/><path class="cls-3" d="M84.76,22.3l-.05,0A.06.06,0,0,0,84.76,22.3Z"/><path class="cls-3" d="M89.57,26.5l-.06-.05h0Z"/><path class="cls-3" d="M89.89,26.93l-.06-.07A.09.09,0,0,0,89.89,26.93Z"/><path class="cls-3" d="M87.34,24.44h0C87.26,24.41,87.3,24.43,87.34,24.44Z"/><polygon class="cls-3" points="89.23 26.37 89.23 26.37 89.2 26.37 89.23 26.37"/><path class="cls-3" d="M90.12,27.17l0,0,0,0A0,0,0,0,1,90.12,27.17Z"/><path class="cls-3" d="M88.12,25.28l.06,0S88.14,25.24,88.12,25.28Z"/><path class="cls-3" d="M67.41,70.26a.05.05,0,0,0,0,0A.05.05,0,0,0,67.41,70.26Z"/><path class="cls-3" d="M71.83,65.24l0,.08A.15.15,0,0,0,71.83,65.24Z"/><path class="cls-3" d="M64.48,73a0,0,0,0,0,0,0l-.22.18Z"/><path class="cls-3" d="M75.65,51.58l0,.09Z"/><path class="cls-3" d="M75,60.29a.3.3,0,0,1,0-.12A.15.15,0,0,0,75,60.29Z"/><path class="cls-3" d="M62.44,73.81l.11,0S62.49,73.77,62.44,73.81Z"/><path class="cls-3" d="M59.35,76.36h0S59.36,76.35,59.35,76.36Z"/><path class="cls-3" d="M60.74,75.6l.08-.08S60.73,75.59,60.74,75.6Z"/><path class="cls-3" d="M60.85,75.48l0,0S60.86,75.48,60.85,75.48Z"/><path class="cls-3" d="M43.9,73.65a.74.74,0,0,0,.51,0A1.09,1.09,0,0,1,43.9,73.65Z"/><path class="cls-3" d="M64.12,45.45l0,0S64.12,45.44,64.12,45.45Z"/><path class="cls-3" d="M44.2,73.3h0Z"/><path class="cls-3" d="M64,72.34c.05-.11.26-.23.23-.26S64,72.25,64,72.34Z"/><path class="cls-3" d="M61.65,47.52h0Z"/><path class="cls-3" d="M44.2,73.3l-.11,0,0,0Z"/><polygon class="cls-3" points="51.64 50.95 51.65 50.95 51.66 50.92 51.64 50.95"/><path class="cls-3" d="M51.06,51.39l.1-.12A.4.4,0,0,0,51.06,51.39Z"/><path class="cls-3" d="M44.41,73.64a.71.71,0,0,0,.25-.11A1.12,1.12,0,0,1,44.41,73.64Z"/><path class="cls-3" d="M46,57.3l0-.06A.21.21,0,0,0,46,57.3Z"/><path class="cls-3" d="M74.69,60.77l0,0S74.67,60.84,74.69,60.77Z"/><polygon class="cls-3" points="75 55.45 75 55.45 75 55.45 75 55.45"/><path class="cls-3" d="M75.05,55.71a.38.38,0,0,0,0-.26A.66.66,0,0,0,75.05,55.71Z"/><path class="cls-3" d="M75,54.89v0Z"/><polygon class="cls-3" points="73.61 59.99 73.62 59.99 73.61 59.99 73.61 59.99"/><path class="cls-3" d="M74.06,59l0-.06A.15.15,0,0,0,74.06,59Z"/><polygon class="cls-3" points="74.36 52.44 74.36 52.44 74.36 52.44 74.36 52.44"/><path class="cls-3" d="M66.47,47.49a10.75,10.75,0,0,1,3.11.82,1.87,1.87,0,0,1,.8.26l0,.13.24.08c.08.08-.18-.07,0,.06l.12,0s.54.38.14.23c.26.18.56.34.81.55s.16,0,.33.17c0,.06-.08,0-.1,0a2.13,2.13,0,0,0,.63.44,1.19,1.19,0,0,1,.58.46l0,0c.1.07.24.24.25.23s-.13,0-.2-.25c.09-.06.21.15.26.09.07.15.19.18.28.29s.3.49.33.68a1.14,1.14,0,0,1,.35.37c0,.2-.09,0,0,.23h.07c.09.18.06.16,0,.16.07.2.13.13.19.4l-.11-.12a4,4,0,0,1,.19.51s-.07-.1-.09-.17c0,.16.13.22.13.3s0-.21.07-.14.14.26.09.38l-.09-.13c.11.26.11.13.16.45h0c.13.19.08.48.1.78l0-.06a1.73,1.73,0,0,1,.08.26c0-.18,0-.13.11-.15-.1.24.14.36.06.75a.17.17,0,0,1,0-.21c-.1-.13-.19-.15-.25-.38,0,.14,0,.31,0,.28l.1,0,0,.23c.07,0,.11-.18.15,0s-.11.12-.07.15c0,.33.1.15,0,.45a.25.25,0,0,1,0-.12c0,.22-.06.55-.18.59s-.06,0,0-.13h0c0-.25,0,.2-.1.11.07,0,0,.29,0,.43l.08,0c.11.5-.12-.06-.21.39s.05-.1.05.09a2.46,2.46,0,0,0-.2.52c-.06.07-.14.22-.23.2,0,.18-.21.49-.18.61.18-.26,0-.31.25-.6l0,.12a4.24,4.24,0,0,1-.26.68s.06,0,.06,0a3.15,3.15,0,0,1-.24.77c-.09,0,0-.17.06-.3-.14.17-.09.21-.27.51-.06,0,.11-.21.07-.27l-.15.35h0c.07.1-.14.26-.22.48a2.39,2.39,0,0,0-.27,1c-.07.06-.1.06-.11,0s.07-.09.07-.15c-.09.17-.3.31-.29.19-.12.28.11-.06,0,.11l-.22.35c.08,0,.16-.13.09.08a4.75,4.75,0,0,1-.27.42s-.11,0,0-.12a.67.67,0,0,0-.17.32c.19-.2-.19.38,0,.26l-.18.19s0-.07.06-.14c-.11,0-.1.19-.14.27s-.2.27-.24.26a.6.6,0,0,1-.21.25c-.06.11,0,0,0,.08l-.24.34s-.18-.05-.16-.12c0,.16.08.13,0,.32,0-.16-.24.22-.21,0a1.84,1.84,0,0,0-.47.57c0,.14.17-.17.22-.11-.33.5-.19.65-.49,1l.09-.08a1.12,1.12,0,0,0-.18.38c0-.12-.37.1-.64.46,0,.06.23-.14.24,0l-.18.24s0,0,0-.06c-.14.23-.41.32-.37.44l-.28.13.11-.05c0,.06-.16.31-.19.36a1,1,0,0,1-.42.42c.06,0,.21-.06.06.13-.11-.1-.37.35-.42.29s-.22.18-.18.23l-.06-.08c.08.1-.16.36-.33.58-.08-.16-.19.23-.39.22,0,.11-.3.38-.26.48-.14.16-.21.07-.27.08l0,.1c-.11,0-.39.32-.58.45l-.09.23-.09,0s-.12.19,0,.13l-.09.08c.07.09-.1.14-.23.34-.06,0-.06,0,0,0s-.09,0-.16,0-.17.44.1.26c0,0-.07.17-.17.23l-.12,0,0,.17c-.12.14-.22.14-.34.23.11-.1.11-.37-.17-.1a1.83,1.83,0,0,0,.24-.35c-.06.06-.1.08,0,0-.2.23,0,.11-.25.33-.05-.08-.12,0-.34.11l.19-.08a.06.06,0,0,1,0,0c.06,0,.08,0,.12,0s-.18.31-.26.31c.32-.1-.32.43-.12.36,0,0-.16.19-.21.17.14-.22-.21,0-.22,0,0,.08.19-.08.12,0a.74.74,0,0,1-.31.17l0,0-.2.11c0,.06.22-.08.07.07s-.21.18-.22.15-.08-.13.05-.26c-.11.1-.47.42-.27.36l-.14.11c.12,0,.4-.19.13.05v0l-.14.22-.12,0s0,.06-.07.12-.11,0-.13,0c-.21.17-.16.19-.17.23s-.17.12-.15,0a4.11,4.11,0,0,1-.59.4c-.19.2.06,0,0,.13-.29,0-.77.5-1.12.78.18,0-.09.08-.09.23.06-.09-.41.16-.11-.1l-.19.16c-.18,0,.3-.28,0-.22s-.27.38-.56.52c0-.14-.18.17-.18,0s.11-.11.18-.17l-.06,0c-.5.31-.07.19-.29.42s-.28.09-.32.06a.94.94,0,0,0-.27.21c.15-.18.37-.18.32-.07s-.45.29-.51.38c.5-.19.31-.19.78-.36,0-.06,0-.14.24-.27-.13.15,0,0,.09,0s.15-.14.21-.21-.07.21.19.06l0-.14c.1,0,0,.11.2-.06-.07.13.09.06-.17.27.39-.13.47-.4.69-.62,0,0,0,0,0,.07s.13-.14.2-.2-.1.15,0,.15l.26-.2s0,0,0,0,.12-.13.17-.12a.93.93,0,0,0-.09.22l.22-.28c0,.06.28-.11.1.06l.4-.32.09,0c.09-.09.08-.1,0,0,.15-.09.51-.61.55-.41.27-.31.41-.38.75-.73-.23.31.4-.2.12.09.21-.12.18-.23.31-.36s.16,0,0,.19l.14-.18v0l.11-.16c.19-.1.09,0,.26-.09l0-.09.14-.06c-.07,0,0-.09.12-.19h0l.13-.13c-.1.16.14-.1.12,0a3.91,3.91,0,0,0,.32-.31h-.07c.24-.29.07,0,.29-.15l-.06,0c.39-.22.5-.55.78-.71-.12.13,0,.15,0,.14a6.16,6.16,0,0,0,.67-.77c.14,0,.18,0,.42-.19s.16-.18.17-.27c.17-.13.4-.44.45-.41s.14-.12.19-.24h0l0,0c.35-.17.36-.51.7-.7l0,.06.08-.13s0,.06,0,.09l.49-.54-.13.08c.1-.12.12-.24.26-.35-.11.28.16-.18.25-.17l-.08.14c.13-.17.13-.17.07-.2.16-.22.22-.06.33-.3l-.12.13c-.06,0,0-.11.06-.2s.1-.07.05,0c.12-.19.35-.42.39-.51s.1,0,.08,0c.25-.4.14-.15.39-.55l0,0,.06-.15.2-.13-.08,0a2.25,2.25,0,0,1,.25-.34v.09c.24-.36.38-.35.56-.72,0,0,0,0,0,.07.16-.36.25-.18.39-.55,0,0,0,0,0,0l.08-.16,0,0V65l.13,0v-.07c.21-.08.28-.36.51-.51h-.1c.21-.64.9-1.17,1.24-1.89l.05,0,.1-.32c.14-.12,0,.12.06.09.14-.32,0-.17.17-.53.14-.16,0,.09,0,.18a9.78,9.78,0,0,1,.55-1.08s0,0,0,0c.09-.24.27-.52.38-.78,0,0,0,.08,0,.15a1.3,1.3,0,0,0,.13-.3V60c.11-.19.21-.6.3-.62s-.08,0,0-.18.15-.5.29-.77c0,0,0,.26,0,.2a.92.92,0,0,0,.08-.42l0,0c.06-.23.09-.47.14-.7.13-.08.13-.67.2-.6.05-.25-.09.2,0-.12.06-.08,0-.29.1-.27v0l0-.23.05.15c0-.19,0-.35-.09-.36a3.19,3.19,0,0,1,.11-.53l0,.07c0-.52.21-.88.06-1.3,0,0,0,0,0,0l0-.34.06.08a3.74,3.74,0,0,0-.17-.54h0a5.67,5.67,0,0,0-.38-1.35l0,.06c-.22-.46-.13-.48-.34-.8l0,0-.16-.3.07,0c-.17-.2-.25-.68-.24-.52a1.53,1.53,0,0,0-.33-.29c-.21-.3,0-.1-.11-.3s-.24-.22-.44-.51l0,0c-.11-.12-.2-.19-.35-.36l.06,0c-.31-.22-.26-.41-.58-.5-.09-.13-.33-.32-.27-.36-.4-.25-.68-.49-1.09-.7,0-.14-.08-.05-.28-.26l0,.07a9.65,9.65,0,0,0-1.8-1.08v-.07H70c-.35-.17-.77-.31-1.16-.47l-1.08-.31a3.17,3.17,0,0,1-.83-.06h0l-1.73-.16s0,0,0-.06c-.15.07-.35,0-.48,0l.15.06a.89.89,0,0,1-.51-.06l-.27.08,0,0-.05,0-.14-.07a1.67,1.67,0,0,0-.53.14s-.28,0-.09,0c-.32,0-.65,0-1,.09h.15c0,.06-.25.14-.41.14.19-.08,0-.09-.09-.12s.13,0,.06.08a1.85,1.85,0,0,1-.59.14l.1,0c-.22.06-.34,0-.56,0s-.34.08-.27.18c-.28.09-.13,0-.22,0a1.24,1.24,0,0,1-.59.12c-.1.19-.76.17-.77.32H58.9s0,.13-.19.21-.16-.05-.23-.07l-.06.17a17.58,17.58,0,0,0-3.25,1.46c-.42.29-.91.7-1.4,1l0,0-.49.32.38-.21c-.1.09-.16.17-.26.25A9,9,0,0,0,51.65,51c-.28.45-.34.13-.62.54,0,0,0-.06,0-.1a8.62,8.62,0,0,0-.83,1.06c-.07-.15-.24.24-.26.15v.08c-.1.06-.3.25-.31.19l-.1.22-.06,0c-.21.22-.6.75-.81.78-.42.64-1.21,1.53-1.81,2.26a2.34,2.34,0,0,1-.33.53l-.2.14a2.09,2.09,0,0,1-.34.56v0a2,2,0,0,0-.34.54c-.15.19-.32.37-.33.26.08.09-.32.42-.32.42s-.48.62-1.15,1.68a17.63,17.63,0,0,0-2.05,4.36,11.26,11.26,0,0,0-.28,5.54,7.84,7.84,0,0,0,.83,2.21l.27.43a1.93,1.93,0,0,0,.37.45,2,2,0,0,0,.88.46c.21,0,.6-.05.45-.11.3-.06.4-.07.43-.16-.3.17,0-.22-.24-.11a1.07,1.07,0,0,0,.16-.14c0-.07-.21.23-.19.1l0,.15a.47.47,0,0,1-.34-.08.63.63,0,0,1-.66-.22l.09.07c-.25-.21-.1-.19-.13-.25l0,0a1.76,1.76,0,0,1-.14-.23c.09.19.41.31.27.21-.23-.26,0,.09-.15-.09s0-.12,0-.14a1.24,1.24,0,0,1-.17-.23s.1.16.08,0l-.21-.28c.09-.11-.23-.31-.17-.51.13.22,0,0,.09,0-.08-.18-.14-.37-.22-.55s.1.13.06,0S42.82,71,42.8,71s-.13-.42,0-.43c0-.41-.16-.14-.18-.52,0-.06.07.29.09.11l-.09-.38a.24.24,0,0,1,.12.21,24.7,24.7,0,0,1,.16-2.54c.08-.12,0,.1.07.2,0-.68.24-.93.33-1.48l-.05,0c.32-.74.5-1.68.93-2.49l-.08.09a2,2,0,0,1,.12-.47s.06.15.15-.1c0,0-.11.13-.12.09.43-.66,1.21-2.12,2-3.16a54.59,54.59,0,0,1,3.33-4.33c-.16.2-.19,0,0-.1.53-.28.59-.75,1.08-1.06.64-.8,1.4-1.31,2-2.07l.05,0c.13-.07.12-.13.23-.23h0c.27-.21.54-.54.71-.64l0-.06c.15-.14.12,0,.25-.19l0,0,.15-.21c.05.11.46-.35.62-.4a6.42,6.42,0,0,1,.92-.72,6.78,6.78,0,0,0,.79-.39,12.82,12.82,0,0,1,2-1.06l-.05-.07.18-.08s0,0,0,0c.18,0,.41-.2.58-.21-.12,0-.13,0-.23.08s-.06-.1.16-.15v0l.12-.1s.18,0,.22.08a9.25,9.25,0,0,1,1.67-.62c0,.08.47-.13.37,0,.38-.13-.09-.08.07-.21s.22-.08.25,0,.11.06,0,.09l.27-.07s0,0-.06,0c.54-.17,1-.08,1.47-.21,0,0-.2,0-.17,0,.49-.14.45,0,.9,0l-.09.06a.68.68,0,0,1,.45-.06c0,.07-.2.07-.32.11.17,0,.59,0,.46-.11a1,1,0,0,1,.38.08s-.19-.06-.07-.09.69.06,1,.12c0,0,0,0,0,0C66.16,47.31,66.11,47.46,66.47,47.49Z"/><path class="cls-3" d="M73.54,60.11l.07-.12s0,0,0-.08Z"/><path class="cls-3" d="M74.87,53.91l0,0S74.86,53.91,74.87,53.91Z"/><path class="cls-3" d="M74.33,52.5c0,.09,0,0,0-.06S74.33,52.45,74.33,52.5Z"/><path class="cls-3" d="M71.74,63.48s0,0,0,0S71.73,63.48,71.74,63.48Z"/><path class="cls-3" d="M64.82,71.54l0,0Z"/><path class="cls-3" d="M65.33,71.22l.08-.09A.32.32,0,0,0,65.33,71.22Z"/><path class="cls-3" d="M73.09,61.29a.2.2,0,0,0,0-.11A.45.45,0,0,0,73.09,61.29Z"/><path class="cls-3" d="M65.49,71l.11-.1h0Z"/><path class="cls-3" d="M64.68,71.66l.14-.12A.58.58,0,0,0,64.68,71.66Z"/><path class="cls-3" d="M69.5,66.69h0C69.56,66.57,69.52,66.63,69.5,66.69Z"/><polygon class="cls-3" points="65.86 70.49 65.88 70.47 65.89 70.43 65.86 70.49"/><path class="cls-3" d="M64.19,72.08l0-.06-.07,0S64.19,72.07,64.19,72.08Z"/><path class="cls-3" d="M68,68.33s0,.07,0,.08S68,68.34,68,68.33Z"/><path class="cls-3" d="M26.72,74.52s0,0,0,0S26.71,74.52,26.72,74.52Z"/><path class="cls-3" d="M22.3,79.55l0-.08S22.3,79.53,22.3,79.55Z"/><path class="cls-3" d="M29.65,71.81h0l.21-.18Z"/><path class="cls-3" d="M18.49,93.21l0-.09A.36.36,0,0,0,18.49,93.21Z"/><path class="cls-3" d="M19.17,84.5a.3.3,0,0,1,0,.12C19.17,84.57,19.19,84.53,19.17,84.5Z"/><path class="cls-3" d="M31.7,71l-.12,0S31.64,71,31.7,71Z"/><path class="cls-3" d="M34.78,68.43h0Z"/><path class="cls-3" d="M33.39,69.18l-.08.09S33.4,69.2,33.39,69.18Z"/><path class="cls-3" d="M33.28,69.31l0,0S33.27,69.3,33.28,69.31Z"/><path class="cls-3" d="M50.23,71.14a.74.74,0,0,0-.51,0A1,1,0,0,1,50.23,71.14Z"/><path class="cls-3" d="M30,99.34l0,0Z"/><path class="cls-3" d="M49.93,71.49h0Z"/><path class="cls-3" d="M30.18,72.45c-.06.11-.27.23-.24.26S30.18,72.54,30.18,72.45Z"/><path class="cls-3" d="M32.48,97.27h0Z"/><path class="cls-3" d="M49.93,71.49l.11,0,0,0Z"/><polygon class="cls-3" points="42.49 93.84 42.49 93.84 42.47 93.87 42.49 93.84"/><path class="cls-3" d="M43.07,93.4l-.1.12A.4.4,0,0,0,43.07,93.4Z"/><path class="cls-3" d="M49.72,71.15a.66.66,0,0,0-.24.11A.88.88,0,0,1,49.72,71.15Z"/><path class="cls-3" d="M48.11,87.49l0,.06A.21.21,0,0,0,48.11,87.49Z"/><path class="cls-3" d="M19.44,84l0-.06S19.47,84,19.44,84Z"/><polygon class="cls-3" points="19.13 89.34 19.13 89.34 19.13 89.34 19.13 89.34"/><path class="cls-3" d="M19.08,89.08a.45.45,0,0,0,.05.26A.66.66,0,0,0,19.08,89.08Z"/><path class="cls-3" d="M19.1,89.9v0Z"/><polygon class="cls-3" points="20.52 84.8 20.52 84.79 20.52 84.8 20.52 84.8"/><path class="cls-3" d="M20.08,85.78a.1.1,0,0,0,0,.06Z"/><polygon class="cls-3" points="19.77 92.35 19.77 92.35 19.77 92.35 19.77 92.35"/><path class="cls-3" d="M27.66,97.29a10.42,10.42,0,0,1-3.11-.81,2,2,0,0,1-.8-.26l0-.13L23.54,96c-.07-.09.18.07.05-.06l-.13,0s-.54-.38-.13-.22a7.68,7.68,0,0,1-.81-.55c-.17-.14-.17,0-.34-.17,0-.06.09,0,.1,0a2.27,2.27,0,0,0-.63-.45,1.19,1.19,0,0,1-.58-.45l.05,0c-.1-.06-.23-.23-.25-.22s.13,0,.2.25c-.09.06-.21-.16-.26-.09-.07-.15-.18-.18-.28-.29s-.3-.49-.32-.68a1.05,1.05,0,0,1-.36-.37c0-.2.09,0,0-.23h-.07c-.08-.18-.05-.16,0-.16-.08-.2-.14-.14-.19-.4l.1.12c-.08-.18-.1-.26-.19-.51,0,0,.07.1.09.17,0-.16-.13-.22-.13-.3s0,.21-.07.14-.14-.27-.09-.38l.09.13c-.11-.26-.11-.13-.15-.45h0c-.13-.19-.07-.48-.1-.78l0,.06c0-.12-.08-.19-.08-.26,0,.18-.05.13-.11.15.1-.24-.14-.36-.06-.75,0,0,.08.1,0,.21s.19.15.24.38c0-.15,0-.31,0-.28l-.09,0v-.23c-.06,0-.11.18-.14,0s.1-.12.06-.16c0-.32-.1-.14,0-.44a.48.48,0,0,1,0,.12c.05-.22.06-.55.19-.59s.05.05,0,.13h0c.05.25,0-.2.1-.11-.07,0,0-.29.05-.43l-.08,0c-.11-.51.13.06.21-.4,0-.29,0,.11-.05-.08a2.32,2.32,0,0,0,.21-.53c.05-.06.14-.21.22-.19,0-.18.21-.49.18-.61-.17.25,0,.31-.25.6l0-.12a4.24,4.24,0,0,1,.26-.68s-.05,0-.06,0a3.21,3.21,0,0,1,.24-.76c.09,0,0,.16-.06.3.15-.18.09-.21.27-.51.07,0-.11.21-.07.27l.15-.35h0c-.08-.09.13-.25.22-.47a2.52,2.52,0,0,0,.26-.95c.07-.06.1-.07.11,0s-.07.09-.07.15c.09-.17.3-.31.29-.19.12-.28-.11.06,0-.11l.22-.35c-.07,0-.16.13-.08-.08a2.89,2.89,0,0,1,.27-.43s.11,0,0,.13a.53.53,0,0,0,.17-.32c-.18.19.19-.38,0-.26l.19-.2s0,.08-.07.15c.11,0,.1-.19.14-.28s.21-.26.24-.25a.54.54,0,0,1,.21-.25c.06-.11,0,0,0-.08l.24-.34c.05,0,.18,0,.16.11.05-.15-.08-.12.06-.31,0,.16.24-.22.21,0a2,2,0,0,0,.46-.57c0-.15-.17.16-.22.11.33-.5.19-.65.49-1l-.08.08a1.27,1.27,0,0,0,.17-.38c0,.12.38-.1.64-.46,0-.06-.22.14-.23,0l.18-.24s0,0,0,.06c.15-.23.41-.32.38-.45l.27-.12-.11,0s.17-.3.2-.35a.93.93,0,0,1,.42-.42c-.07,0-.22.06-.07-.13.11.1.37-.35.42-.3s.22-.17.18-.22l.06.08c-.08-.11.16-.37.33-.58.09.16.19-.24.39-.22-.05-.12.3-.38.26-.48.15-.16.21-.07.27-.08l0-.1c.11,0,.39-.32.59-.46l.08-.22.09,0s.12-.18,0-.13l.08-.07c-.07-.09.1-.14.24-.34.05,0,.06,0,0,0s.09,0,.16,0c-.08,0,.17-.44-.09-.26-.05,0,.06-.17.16-.23l.12,0,0-.17c.12-.14.23-.14.34-.24-.11.11-.11.38.17.11a1.83,1.83,0,0,0-.24.35c.06-.06.1-.08,0,0,.2-.23,0-.11.24-.33.05.08.13,0,.34-.11l-.19.08s0,0,0,0-.08,0-.12,0,.19-.31.26-.31c-.32.1.32-.43.12-.36,0,0,.17-.19.21-.17-.14.22.21,0,.22,0,.05-.09-.19.08-.12,0a.74.74,0,0,1,.31-.17l0,0,.21-.12s-.22.09-.08-.06.21-.18.23-.15.07.13-.06.26c.11-.1.47-.42.27-.36l.14-.11c-.11,0-.4.19-.13,0h0l.15-.21.11,0s0-.06.07-.12.11,0,.13,0c.21-.17.16-.19.18-.23s.17-.12.14,0a4.11,4.11,0,0,1,.59-.4c.19-.2-.06,0,0-.13.29,0,.77-.5,1.12-.78-.18,0,.09-.09.09-.23-.06.09.41-.17.11.09l.19-.15c.18,0-.29.28,0,.22s.28-.38.56-.53c0,.15.19-.16.18,0s-.11.11-.18.17l.06,0c.5-.31.07-.19.29-.42s.28-.09.33-.07a.73.73,0,0,0,.26-.2c-.15.17-.37.18-.32.07s.45-.29.51-.38c-.5.19-.3.19-.78.36,0,.06,0,.14-.23.27.12-.15-.05,0-.1,0s-.15.14-.21.21.07-.21-.19-.06l0,.14c-.1,0,0-.11-.19.06.06-.13-.1-.06.16-.28-.39.14-.46.41-.69.63,0,0,0,0,0-.07s-.14.13-.2.2.09-.15,0-.15l-.26.2h0c-.06.07-.12.13-.16.12s.05-.15.09-.22l-.23.28c0-.06-.27.11-.09-.06l-.41.32-.09,0c-.08.09-.08.1,0,0-.15.09-.52.61-.56.41-.27.31-.4.38-.75.73.24-.31-.4.19-.12-.09-.2.12-.18.22-.31.35s-.16,0,0-.18l-.15.18v0l-.12.16c-.18.1-.09,0-.26.09l0,.09-.13.06c.06,0,0,.08-.13.19v0l-.13.14c.1-.16-.14.1-.11,0a3.14,3.14,0,0,0-.33.3h.07c-.24.29-.06,0-.29.15l.06,0c-.39.22-.5.54-.78.71.12-.13,0-.15.05-.14a6.16,6.16,0,0,0-.67.77c-.14,0-.17,0-.41.19s-.16.18-.18.27-.4.44-.45.4-.14.13-.18.24h0l.06,0c-.36.18-.36.52-.7.71l0-.06-.09.13s0-.06,0-.09l-.49.54.13-.08c-.1.12-.12.24-.26.35.12-.28-.16.18-.25.17l.08-.14c-.13.17-.13.17-.07.2-.16.22-.22.06-.33.3l.12-.14c.06,0,0,.12-.06.21s-.1.07-.05,0c-.12.18-.35.42-.39.51s-.1,0-.07,0c-.25.4-.15.15-.39.55l0,0-.06.15-.2.13.08,0a1.73,1.73,0,0,1-.25.34v-.09c-.24.36-.37.34-.55.72,0,0,0,0,0-.07-.16.36-.25.17-.39.54,0,0-.05,0-.05,0l-.07.16-.05-.06v.18l-.12,0V80c-.22.08-.29.36-.52.51h.1c-.21.64-.9,1.17-1.24,1.89l-.05,0-.1.32c-.13.12,0-.12-.06-.1-.14.33,0,.18-.16.54-.15.16,0-.09,0-.18A8.77,8.77,0,0,1,19.48,84s0,0,0,0c-.08.25-.27.53-.38.79,0,0,0-.09,0-.15a1.14,1.14,0,0,0-.13.3V84.8c-.1.19-.21.6-.3.61s.08,0,0,.19-.14.5-.29.77c0,0,0-.26,0-.2a1,1,0,0,0-.08.42l0,0c-.05.23-.09.47-.13.7s-.13.66-.2.6c-.05.25.08-.2,0,.12-.06.08,0,.29-.09.27v0l0,.23-.05-.16c0,.2.05.36.1.37a4.38,4.38,0,0,1-.12.53l0-.07c0,.52-.21.88-.06,1.3,0,0,0,0,0,0l0,.33-.06-.07a3.74,3.74,0,0,0,.17.54h0a5.61,5.61,0,0,0,.38,1.36l0-.06c.22.46.13.48.34.8t0,0l.15.3-.07-.05c.17.19.26.68.24.52a1.81,1.81,0,0,0,.34.29c.2.3,0,.1.11.3s.23.21.43.51l0,0c.11.12.2.19.35.36l-.05,0c.3.22.25.41.57.5.1.13.33.32.27.36.41.25.68.49,1.09.7,0,.14.09,0,.28.26l0-.07A10.22,10.22,0,0,0,24,98.25v.07h.15c.35.17.77.31,1.16.46s.79.24,1.09.31a3.71,3.71,0,0,1,.82.07h0l1.73.16s0,0,0,.06c.15-.07.36,0,.49,0l-.15,0a1,1,0,0,1,.5,0l.27-.07s.05,0,.05,0l0,0,.15.08a1.69,1.69,0,0,0,.52-.14s.28,0,.09.05c.33,0,.65-.05,1-.09h-.15c0-.07.25-.14.41-.14-.19.08,0,.09.09.12s-.13,0-.06-.08a2,2,0,0,1,.59-.14l-.09,0c.21-.06.34,0,.55,0s.34-.08.28-.18c.27-.09.12,0,.22,0a1.21,1.21,0,0,1,.58-.12c.1-.19.76-.17.78-.32h.24s0-.13.19-.21.17,0,.23.06l.07-.16A17.49,17.49,0,0,0,39,96.6c.43-.29.92-.7,1.41-1l0,.05.49-.32-.37.2a1.88,1.88,0,0,1,.25-.24,9.31,9.31,0,0,0,1.8-1.42c.27-.45.34-.13.62-.54,0,0,0,.06,0,.1a10.45,10.45,0,0,0,.83-1.06c.07.15.24-.24.26-.16v-.07c.1-.06.3-.25.31-.19l.1-.22.06,0c.21-.22.61-.75.81-.78.43-.64,1.21-1.53,1.81-2.26a2.14,2.14,0,0,1,.33-.53l.2-.14a2.09,2.09,0,0,1,.34-.56v0a2.22,2.22,0,0,0,.34-.54c.15-.2.32-.37.34-.26-.09-.1.31-.42.31-.42s.48-.62,1.15-1.68a17.45,17.45,0,0,0,2-4.36,11.26,11.26,0,0,0,.28-5.54,7.72,7.72,0,0,0-.83-2.22l-.26-.42a2,2,0,0,0-.38-.45,1.75,1.75,0,0,0-.88-.46c-.21,0-.59,0-.45.11-.29.06-.4.07-.43.16.31-.17-.05.22.24.11a.67.67,0,0,0-.15.14c0,.07.2-.23.18-.11l.05-.14a.4.4,0,0,1,.34.08.63.63,0,0,1,.66.22l-.09-.07c.26.21.1.19.13.25l0,0a1.71,1.71,0,0,1,.13.23c-.09-.19-.4-.32-.27-.21.23.26-.05-.09.15.09s0,.12,0,.14a1.19,1.19,0,0,1,.16.23c-.05,0-.09-.16-.08,0a2.92,2.92,0,0,1,.21.28c-.09.11.23.31.17.51-.13-.22,0,0-.09,0,.08.18.15.37.22.55s-.09-.13-.06-.05.1.16.11.22.13.43,0,.44c0,.41.16.14.18.52,0,.06-.07-.29-.09-.12l.09.38a.27.27,0,0,1-.12-.2,22.17,22.17,0,0,1-.16,2.54c-.08.12,0-.1-.07-.2,0,.68-.24.93-.33,1.48l0,0c-.32.74-.5,1.67-.93,2.49l.08-.09a1.71,1.71,0,0,1-.12.47s-.06-.15-.14.1c0,0,.1-.13.11-.09-.43.66-1.21,2.12-2,3.16-1,1.48-2.25,3-3.34,4.33.17-.2.2,0,0,.1-.52.27-.59.75-1.08,1.06-.63.8-1.4,1.31-2,2.07l0,0c-.12.07-.12.13-.23.23h0c-.28.21-.55.54-.72.64l0,.06c-.15.14-.11,0-.25.19l0,0-.15.21c0-.11-.45.35-.62.4a5.9,5.9,0,0,1-.92.72,5.45,5.45,0,0,0-.79.39,12.69,12.69,0,0,1-2,1.06l0,.07-.18.08s0,0,0,0c-.18,0-.41.2-.58.21.12,0,.13,0,.24-.08s0,.1-.17.15v0l-.13.1s-.18,0-.22-.09a9,9,0,0,1-1.67.63c.05-.09-.47.13-.36,0-.39.13.08.08-.08.21s-.22.08-.25,0-.11-.06,0-.09l-.27.07s0,0,.06,0c-.53.17-1,.08-1.46.2,0,.05.19,0,.16.05-.49.14-.45,0-.9,0l.09-.06a.74.74,0,0,1-.45.06c0-.07.2-.07.32-.11-.17,0-.58,0-.46.1a.88.88,0,0,1-.38-.07s.19,0,.07.08c-.27,0-.69,0-1-.11,0,0,0,0,0,0C28,97.48,28,97.33,27.66,97.29Z"/><path class="cls-3" d="M20.59,84.68l-.07.12s0,0,0,.08Z"/><path class="cls-3" d="M19.26,90.88l0,0S19.27,90.88,19.26,90.88Z"/><path class="cls-3" d="M19.8,92.29c-.05-.1,0,0,0,.06S19.8,92.34,19.8,92.29Z"/><path class="cls-3" d="M22.39,81.31s0,0,0,0S22.4,81.31,22.39,81.31Z"/><path class="cls-3" d="M29.31,73.25l0,0Z"/><path class="cls-3" d="M28.8,73.57l-.08.09A.3.3,0,0,0,28.8,73.57Z"/><path class="cls-3" d="M21,83.5a.38.38,0,0,0,0,.1A.17.17,0,0,0,21,83.5Z"/><path class="cls-3" d="M28.65,73.76l-.12.1h0Z"/><path class="cls-3" d="M29.45,73.13l-.14.12A.43.43,0,0,0,29.45,73.13Z"/><path class="cls-3" d="M24.63,78.1h0C24.57,78.22,24.61,78.15,24.63,78.1Z"/><polygon class="cls-3" points="28.27 74.3 28.25 74.31 28.24 74.36 28.27 74.3"/><path class="cls-3" d="M29.94,72.71l-.05.06.07,0Z"/><path class="cls-3" d="M26.15,76.46a.11.11,0,0,0,0-.09S26.1,76.44,26.15,76.46Z"/></g></g></svg>