<svg xmlns="http://www.w3.org/2000/svg" viewBox="0 0 44.3 59.4"><defs><style>.a{fill:none;stroke:#d95f2d;stroke-miterlimit:10;stroke-width:3px;}</style></defs><path class="a" d="M42.8,57.9H1.5V1.5H28.6L42.8,15.7Z"/><path class="a" d="M1.5,57.9V1.5h28L42.8,14.8V57.9Z"/><path class="a" d="M29.9,2V14.9H42.8"/><path class="a" d="M23.3,32.7a4.226,4.226,0,0,1,0,5.9L17,44.8a4.1,4.1,0,0,1-5.8,0l-.9-.9a4.226,4.226,0,0,1,0-5.9l6.3-6.3m11,4.9,6.3-6.3a4.018,4.018,0,0,0,.1-5.8l-1-1a4.1,4.1,0,0,0-5.8,0l-6.3,6.3a4.226,4.226,0,0,0,0,5.9"/></svg>