<svg xmlns="http://www.w3.org/2000/svg" viewBox="0 0 1901.58 641.28"><defs><style>.cls-1{opacity:0.3;}.cls-2{fill:#ddd;}</style></defs><title>Asset 1</title><g id="Layer_2" data-name="Layer 2"><g id="Layer_1-2" data-name="Layer 1" class="cls-1"><g id="Layer_6" data-name="Layer 6"><path class="cls-2" d="M30.35,208.39H24.79v-5.54a2,2,0,0,0-4,0v5.54H15.23a2,2,0,1,0,0,4h5.56V218a2,2,0,0,0,4,0v-5.55h5.54a2,2,0,1,0,0-4Z"/><path class="cls-2" d="M31.61,275.94H25.14v-6.47a2.35,2.35,0,0,0-4.7,0v6.47H14a2.35,2.35,0,0,0,0,4.7h6.47v6.47a2.35,2.35,0,0,0,4.7,0v-6.47h6.47a2.35,2.35,0,0,0,0-4.7Z"/><path class="cls-2" d="M32.87,342.68H25.48v-7.4a2.69,2.69,0,0,0-5.38,0v7.4H12.71a2.69,2.69,0,1,0-.33,5.37H20.1v7.4a2.69,2.69,0,0,0,5.38,0V348h7.39a2.69,2.69,0,0,0,.33-5.37h-.33Z"/><path class="cls-2" d="M34.79,410.24H26v-8.78a3.19,3.19,0,0,0-6.38,0v8.78H10.79a3.19,3.19,0,1,0,0,6.38h8.78v8.78a3.19,3.19,0,0,0,6.38,0v-8.78h8.84a3.19,3.19,0,1,0,0-6.38Z"/><path class="cls-2" d="M36.65,476.59H26.49V466.42a3.7,3.7,0,0,0-7.4,0v10.17H8.93A3.7,3.7,0,1,0,8.55,484H19.09v10.17a3.7,3.7,0,0,0,7.4,0V484H36.65a3.7,3.7,0,1,0,.38-7.39h-.38Z"/><path class="cls-2" d="M38.58,547.08H27V535.5a4.21,4.21,0,0,0-8.42,0v11.58H7a4.21,4.21,0,0,0,0,8.42H18.58v11.58a4.21,4.21,0,0,0,8.42,0V555.5H38.58a4.21,4.21,0,0,0,0-8.42Z"/><path class="cls-2" d="M41,613.44H27.63V600.13a4.84,4.84,0,0,0-9.68,0v13.31H4.63a4.85,4.85,0,0,0,0,9.69H18v13.31a4.84,4.84,0,0,0,9.68,0h0V623.13H41a4.85,4.85,0,0,0,0-9.69Z"/><path class="cls-2" d="M29.72,141.07H24.64V136a1.85,1.85,0,0,0-3.7,0v5.08H15.86a1.85,1.85,0,1,0,0,3.7h5.08v5.08a1.85,1.85,0,0,0,3.7,0v-5.08h5.08a1.85,1.85,0,1,0,0-3.7h0Z"/><path class="cls-2" d="M27.86,5.08H24.14V1.36a1.35,1.35,0,0,0-2.7,0V5.08H17.72a1.35,1.35,0,0,0,0,2.7h3.72v3.71a1.35,1.35,0,0,0,2.7,0V7.78h3.72a1.35,1.35,0,1,0,0-2.7Z"/><path class="cls-2" d="M28.79,73.83h-4.4V69.44a1.6,1.6,0,0,0-3.2,0v4.39h-4.4a1.6,1.6,0,0,0,0,3.18h4.4v4.4a1.6,1.6,0,0,0,3.2,0V77h4.4a1.6,1.6,0,0,0,0-3.19Z"/><path class="cls-2" d="M94.35,208.39H88.79v-5.54a2,2,0,0,0-4,0v5.54H79.23a2,2,0,0,0,0,4h5.56V218a2,2,0,0,0,4,0v-5.55h5.54a2,2,0,1,0,0-4Z"/><path class="cls-2" d="M95.61,275.94H89.14v-6.47a2.35,2.35,0,1,0-4.7,0v6.47H78a2.35,2.35,0,0,0,0,4.7h6.47v6.47a2.35,2.35,0,1,0,4.7,0v-6.47h6.47a2.35,2.35,0,0,0,0-4.7Z"/><path class="cls-2" d="M96.87,342.68H89.48v-7.4a2.69,2.69,0,1,0-5.38,0v7.4H76.71a2.69,2.69,0,1,0-.33,5.37H84.1v7.4a2.69,2.69,0,1,0,5.38,0V348h7.39a2.69,2.69,0,1,0,.33-5.37h-.33Z"/><path class="cls-2" d="M98.79,410.24H90v-8.78a3.19,3.19,0,1,0-6.38,0v8.78H74.79a3.19,3.19,0,0,0,0,6.38h8.78v8.78a3.19,3.19,0,1,0,6.38,0h0v-8.78h8.84a3.19,3.19,0,1,0,0-6.38Z"/><path class="cls-2" d="M100.65,476.59H90.49V466.42a3.7,3.7,0,1,0-7.4,0v10.17H72.93a3.7,3.7,0,1,0-.38,7.39H83.09v10.17a3.7,3.7,0,1,0,7.4,0h0V484h10.16a3.7,3.7,0,1,0,.38-7.39h-.38Z"/><path class="cls-2" d="M102.58,547.08H91V535.5a4.21,4.21,0,1,0-8.42,0v11.58H71a4.21,4.21,0,0,0,0,8.42H82.58v11.58a4.21,4.21,0,0,0,8.42,0V555.5h11.58a4.21,4.21,0,1,0,0-8.42Z"/><path class="cls-2" d="M105,613.44H91.63V600.13a4.84,4.84,0,1,0-9.68,0v13.31H68.63a4.85,4.85,0,0,0,0,9.69H82v13.31a4.84,4.84,0,0,0,9.68,0h0V623.13H105a4.85,4.85,0,0,0,0-9.69Z"/><path class="cls-2" d="M93.72,141.07H88.64V136a1.85,1.85,0,1,0-3.7,0v5.08H79.86a1.85,1.85,0,0,0,0,3.7h5.08v5.08a1.85,1.85,0,1,0,3.7,0v-5.08h5.08a1.85,1.85,0,0,0,0-3.7h0Z"/><path class="cls-2" d="M91.86,5.08H88.14V1.36a1.35,1.35,0,0,0-2.7,0h0V5.08H81.72a1.35,1.35,0,1,0,0,2.7h3.72v3.71a1.35,1.35,0,1,0,2.7,0h0V7.78h3.72a1.35,1.35,0,0,0,0-2.7Z"/><path class="cls-2" d="M92.79,73.83h-4.4V69.44a1.6,1.6,0,1,0-3.2,0v4.39h-4.4a1.6,1.6,0,0,0,0,3.18h4.4v4.4a1.6,1.6,0,1,0,3.2,0V77h4.4a1.6,1.6,0,0,0,0-3.19Z"/><path class="cls-2" d="M158.35,208.39h-5.56v-5.54a2,2,0,0,0-4,0v5.54h-5.54a2,2,0,0,0,0,4h5.54V218a2,2,0,0,0,4,0v-5.55h5.54a2,2,0,0,0,0-4Z"/><path class="cls-2" d="M159.61,275.94h-6.47v-6.47a2.35,2.35,0,1,0-4.7,0v6.47H142a2.35,2.35,0,0,0,0,4.7h6.47v6.47a2.35,2.35,0,0,0,4.7,0v-6.47h6.47a2.35,2.35,0,0,0,0-4.7Z"/><path class="cls-2" d="M160.87,342.68h-7.39v-7.4a2.69,2.69,0,0,0-5.38,0h0v7.4h-7.39a2.69,2.69,0,0,0-.33,5.37h7.72v7.4a2.69,2.69,0,0,0,5.38,0V348h7.39a2.69,2.69,0,1,0,.33-5.37h-.33Z"/><path class="cls-2" d="M162.79,410.24H154v-8.78a3.19,3.19,0,0,0-6.38,0v8.78h-8.84a3.19,3.19,0,0,0,0,6.38h8.78v8.78a3.19,3.19,0,0,0,6.38,0v-8.78h8.84a3.19,3.19,0,1,0,0-6.38Z"/><path class="cls-2" d="M164.65,476.59H154.49V466.42a3.7,3.7,0,0,0-7.4,0v10.17H136.93a3.7,3.7,0,1,0-.38,7.39h10.54v10.17a3.7,3.7,0,0,0,7.4,0V484h10.16a3.7,3.7,0,1,0,.38-7.39h-.38Z"/><path class="cls-2" d="M166.58,547.08H155V535.5a4.21,4.21,0,0,0-8.42,0v11.58H135a4.21,4.21,0,0,0,0,8.42h11.58v11.58a4.21,4.21,0,0,0,8.42,0V555.5h11.58a4.21,4.21,0,1,0,0-8.42Z"/><path class="cls-2" d="M169,613.44H155.63V600.13a4.84,4.84,0,1,0-9.68,0v13.31H132.63a4.85,4.85,0,0,0,0,9.69H146v13.31a4.84,4.84,0,0,0,9.68,0h0V623.13H169a4.85,4.85,0,0,0,0-9.69Z"/><path class="cls-2" d="M157.72,141.07h-5.08V136a1.85,1.85,0,1,0-3.7,0v5.08h-5.08a1.85,1.85,0,0,0,0,3.7h5.08v5.08a1.85,1.85,0,1,0,3.7,0v-5.08h5.08a1.85,1.85,0,0,0,0-3.7h0Z"/><path class="cls-2" d="M155.86,5.08h-3.72V1.36a1.35,1.35,0,1,0-2.7,0V5.08h-3.72a1.35,1.35,0,1,0,0,2.7h3.72v3.71a1.35,1.35,0,1,0,2.7,0h0V7.78h3.72a1.35,1.35,0,0,0,0-2.7Z"/><path class="cls-2" d="M156.79,73.83h-4.4V69.44a1.6,1.6,0,1,0-3.2,0v4.39h-4.4a1.6,1.6,0,0,0,0,3.18h4.39v4.4a1.6,1.6,0,0,0,3.2,0V77h4.41a1.6,1.6,0,0,0,0-3.19Z"/><path class="cls-2" d="M222.35,208.39h-5.56v-5.54a2,2,0,0,0-4,0v5.54h-5.54a2,2,0,0,0,0,4h5.54V218a2,2,0,0,0,4,0v-5.55h5.54a2,2,0,0,0,0-4Z"/><path class="cls-2" d="M223.61,275.94h-6.47v-6.47a2.35,2.35,0,1,0-4.7,0v6.47H206a2.35,2.35,0,0,0,0,4.7h6.47v6.47a2.35,2.35,0,1,0,4.7,0h0v-6.47h6.47a2.35,2.35,0,0,0,0-4.7Z"/><path class="cls-2" d="M224.87,342.68h-7.39v-7.4a2.69,2.69,0,0,0-5.38,0h0v7.4h-7.39a2.69,2.69,0,0,0-.33,5.37h7.72v7.4a2.69,2.69,0,0,0,5.38,0V348h7.39a2.69,2.69,0,1,0,.33-5.37h-.33Z"/><path class="cls-2" d="M226.79,410.24H218v-8.78a3.19,3.19,0,0,0-6.38,0v8.78h-8.84a3.19,3.19,0,0,0,0,6.38h8.78v8.78a3.19,3.19,0,0,0,6.38,0v-8.78h8.84a3.19,3.19,0,1,0,0-6.38Z"/><path class="cls-2" d="M228.65,476.59H218.49V466.42a3.7,3.7,0,0,0-7.4,0v10.17H200.93a3.7,3.7,0,1,0-.38,7.39h10.54v10.17a3.7,3.7,0,0,0,7.4,0V484h10.16a3.7,3.7,0,1,0,.38-7.39h-.38Z"/><path class="cls-2" d="M230.58,547.08H219V535.5a4.21,4.21,0,0,0-8.42,0v11.58H199a4.21,4.21,0,0,0,0,8.42h11.58v11.58a4.21,4.21,0,0,0,8.42,0V555.5h11.58a4.21,4.21,0,1,0,0-8.42Z"/><path class="cls-2" d="M233,613.44H219.63V600.13a4.84,4.84,0,1,0-9.68,0v13.31H196.63a4.85,4.85,0,0,0,0,9.69H210v13.31a4.84,4.84,0,0,0,9.68,0h0V623.13H233a4.85,4.85,0,0,0,0-9.69Z"/><path class="cls-2" d="M221.72,141.07h-5.08V136a1.85,1.85,0,1,0-3.7,0v5.08h-5.08a1.85,1.85,0,0,0,0,3.7h5.08v5.08a1.85,1.85,0,1,0,3.7,0v-5.08h5.08a1.85,1.85,0,0,0,0-3.7h0Z"/><path class="cls-2" d="M219.86,5.08h-3.72V1.36a1.35,1.35,0,1,0-2.7,0V5.08h-3.72a1.35,1.35,0,1,0,0,2.7h3.72v3.71a1.35,1.35,0,1,0,2.7,0h0V7.78h3.72a1.35,1.35,0,0,0,0-2.7Z"/><path class="cls-2" d="M220.79,73.83h-4.4V69.44a1.6,1.6,0,1,0-3.2,0v4.39h-4.4a1.6,1.6,0,0,0,0,3.18h4.39v4.4a1.6,1.6,0,1,0,3.2,0V77h4.41a1.6,1.6,0,0,0,0-3.19Z"/><path class="cls-2" d="M286.35,208.39h-5.56v-5.54a2,2,0,1,0-4,0v5.54h-5.54a2,2,0,0,0,0,4h5.54V218a2,2,0,0,0,4,0v-5.55h5.54a2,2,0,0,0,0-4Z"/><path class="cls-2" d="M287.61,275.94h-6.47v-6.47a2.35,2.35,0,1,0-4.7,0v6.47H270a2.35,2.35,0,0,0,0,4.7h6.47v6.47a2.35,2.35,0,1,0,4.7,0v-6.47h6.47a2.35,2.35,0,0,0,0-4.7Z"/><path class="cls-2" d="M288.87,342.68h-7.39v-7.4a2.69,2.69,0,1,0-5.38,0h0v7.4h-7.39a2.69,2.69,0,0,0-.33,5.37h7.72v7.4a2.69,2.69,0,0,0,5.38,0V348h7.39a2.69,2.69,0,1,0,.33-5.37h-.33Z"/><path class="cls-2" d="M290.79,410.24H282v-8.78a3.19,3.19,0,0,0-6.38,0v8.78h-8.84a3.19,3.19,0,0,0,0,6.38h8.78v8.78a3.19,3.19,0,0,0,6.38,0v-8.78h8.84a3.19,3.19,0,0,0,0-6.38Z"/><path class="cls-2" d="M292.65,476.59H282.49V466.42a3.7,3.7,0,0,0-7.4,0v10.17H264.93a3.7,3.7,0,1,0-.38,7.39h10.54v10.17a3.7,3.7,0,0,0,7.4,0V484h10.16a3.7,3.7,0,1,0,.38-7.39h-.38Z"/><path class="cls-2" d="M294.58,547.08H283V535.5a4.21,4.21,0,1,0-8.42,0v11.58H263a4.21,4.21,0,0,0,0,8.42h11.58v11.58a4.21,4.21,0,1,0,8.42,0V555.5h11.58a4.21,4.21,0,0,0,0-8.42Z"/><path class="cls-2" d="M297,613.44H283.63V600.13a4.84,4.84,0,1,0-9.68,0v13.31H260.63a4.85,4.85,0,0,0,0,9.69H274v13.31a4.84,4.84,0,0,0,9.68,0h0V623.13H297a4.85,4.85,0,0,0,0-9.69Z"/><path class="cls-2" d="M285.72,141.07h-5.08V136a1.85,1.85,0,1,0-3.7,0v5.08h-5.08a1.85,1.85,0,0,0,0,3.7h5.08v5.08a1.85,1.85,0,1,0,3.7,0h0v-5.08h5.08a1.85,1.85,0,0,0,0-3.7Z"/><path class="cls-2" d="M283.86,5.08h-3.72V1.36a1.35,1.35,0,1,0-2.7,0V5.08h-3.72a1.35,1.35,0,0,0,0,2.7h3.72v3.71a1.35,1.35,0,1,0,2.7,0V7.78h3.72a1.35,1.35,0,0,0,0-2.7Z"/><path class="cls-2" d="M284.79,73.83h-4.4V69.44a1.6,1.6,0,1,0-3.2,0v4.39h-4.4a1.6,1.6,0,0,0,0,3.18h4.39v4.4a1.6,1.6,0,0,0,3.2,0V77h4.41a1.6,1.6,0,0,0,0-3.19Z"/><path class="cls-2" d="M350.35,208.39h-5.56v-5.54a2,2,0,1,0-4,0v5.54h-5.54a2,2,0,0,0,0,4h5.54V218a2,2,0,0,0,4,0v-5.55h5.54a2,2,0,0,0,0-4Z"/><path class="cls-2" d="M351.61,275.94h-6.47v-6.47a2.35,2.35,0,1,0-4.7,0v6.47H334a2.35,2.35,0,0,0,0,4.7h6.47v6.47a2.35,2.35,0,1,0,4.7,0v-6.47h6.47a2.35,2.35,0,0,0,0-4.7Z"/><path class="cls-2" d="M352.87,342.68h-7.39v-7.4a2.69,2.69,0,1,0-5.38,0h0v7.4h-7.39a2.69,2.69,0,0,0-.33,5.37h7.72v7.4a2.69,2.69,0,0,0,5.38,0V348h7.39a2.69,2.69,0,1,0,.33-5.37h-.33Z"/><path class="cls-2" d="M354.79,410.24H346v-8.78a3.19,3.19,0,0,0-6.38,0v8.78h-8.84a3.19,3.19,0,0,0,0,6.38h8.78v8.78a3.19,3.19,0,0,0,6.38,0v-8.78h8.84a3.19,3.19,0,0,0,0-6.38Z"/><path class="cls-2" d="M356.65,476.59H346.49V466.42a3.7,3.7,0,1,0-7.4,0v10.17H328.93a3.7,3.7,0,1,0-.38,7.39h10.54v10.17a3.7,3.7,0,0,0,7.4,0V484h10.16a3.7,3.7,0,1,0,.38-7.39h-.38Z"/><path class="cls-2" d="M358.58,547.08H347V535.5a4.21,4.21,0,1,0-8.42,0v11.58H327a4.21,4.21,0,0,0,0,8.42h11.58v11.58a4.21,4.21,0,1,0,8.42,0V555.5h11.58a4.21,4.21,0,0,0,0-8.42Z"/><path class="cls-2" d="M361,613.44H347.63V600.13a4.84,4.84,0,1,0-9.68,0v13.31H324.63a4.85,4.85,0,0,0,0,9.69H338v13.31a4.84,4.84,0,0,0,9.68,0h0V623.13H361a4.85,4.85,0,0,0,0-9.69Z"/><path class="cls-2" d="M349.72,141.07h-5.08V136a1.85,1.85,0,1,0-3.7,0v5.08h-5.08a1.85,1.85,0,0,0,0,3.7h5.08v5.08a1.85,1.85,0,1,0,3.7,0h0v-5.08h5.08a1.85,1.85,0,0,0,0-3.7Z"/><path class="cls-2" d="M347.86,5.08h-3.72V1.36a1.35,1.35,0,1,0-2.7,0V5.08h-3.72a1.35,1.35,0,0,0,0,2.7h3.72v3.71a1.35,1.35,0,1,0,2.7,0V7.78h3.72a1.35,1.35,0,0,0,0-2.7Z"/><path class="cls-2" d="M348.79,73.83h-4.4V69.44a1.6,1.6,0,1,0-3.2,0v4.39h-4.4a1.6,1.6,0,0,0,0,3.18h4.39v4.4a1.6,1.6,0,0,0,3.2,0V77h4.41a1.6,1.6,0,0,0,0-3.19Z"/><path class="cls-2" d="M414.35,208.39h-5.56v-5.54a2,2,0,1,0-4,0v5.54h-5.54a2,2,0,0,0,0,4h5.54V218a2,2,0,0,0,4,0v-5.55h5.54a2,2,0,0,0,0-4Z"/><path class="cls-2" d="M415.61,275.94h-6.47v-6.47a2.35,2.35,0,1,0-4.7,0v6.47H398a2.35,2.35,0,0,0,0,4.7h6.47v6.47a2.35,2.35,0,1,0,4.7,0v-6.47h6.47a2.35,2.35,0,0,0,0-4.7Z"/><path class="cls-2" d="M416.87,342.68h-7.39v-7.4a2.69,2.69,0,1,0-5.38,0h0v7.4h-7.39a2.69,2.69,0,0,0-.33,5.37h7.72v7.4a2.69,2.69,0,0,0,5.38,0V348h7.39a2.69,2.69,0,1,0,.33-5.37h-.33Z"/><path class="cls-2" d="M418.79,410.24H410v-8.78a3.19,3.19,0,0,0-6.38,0v8.78h-8.84a3.19,3.19,0,0,0,0,6.38h8.78v8.78a3.19,3.19,0,0,0,6.38,0v-8.78h8.84a3.19,3.19,0,0,0,0-6.38Z"/><path class="cls-2" d="M420.65,476.59H410.49V466.42a3.7,3.7,0,1,0-7.4,0v10.17H392.93a3.7,3.7,0,1,0-.38,7.39h10.54v10.17a3.7,3.7,0,0,0,7.4,0V484h10.16a3.7,3.7,0,1,0,.38-7.39h-.38Z"/><path class="cls-2" d="M422.58,547.08H411V535.5a4.21,4.21,0,1,0-8.42,0v11.58H391a4.21,4.21,0,0,0,0,8.42h11.58v11.58a4.21,4.21,0,1,0,8.42,0V555.5h11.58a4.21,4.21,0,0,0,0-8.42Z"/><path class="cls-2" d="M425,613.44H411.63V600.13a4.84,4.84,0,1,0-9.68,0h0v13.31H388.63a4.85,4.85,0,0,0,0,9.69H402v13.31a4.84,4.84,0,0,0,9.68,0h0V623.13H425a4.85,4.85,0,0,0,0-9.69Z"/><path class="cls-2" d="M413.72,141.07h-5.08V136a1.85,1.85,0,1,0-3.7,0v5.08h-5.08a1.85,1.85,0,0,0,0,3.7h5.08v5.08a1.85,1.85,0,1,0,3.7,0h0v-5.08h5.08a1.85,1.85,0,0,0,0-3.7Z"/><path class="cls-2" d="M411.86,5.08h-3.72V1.36a1.35,1.35,0,1,0-2.7,0V5.08h-3.72a1.35,1.35,0,0,0,0,2.7h3.72v3.71a1.35,1.35,0,1,0,2.7,0V7.78h3.72a1.35,1.35,0,0,0,0-2.7Z"/><path class="cls-2" d="M412.79,73.83h-4.4V69.44a1.6,1.6,0,1,0-3.2,0v4.39h-4.4a1.6,1.6,0,0,0,0,3.18h4.39v4.4a1.6,1.6,0,0,0,3.2,0V77h4.41a1.6,1.6,0,0,0,0-3.19Z"/><path class="cls-2" d="M478.35,208.39h-5.56v-5.54a2,2,0,1,0-4,0v5.54h-5.54a2,2,0,0,0,0,4h5.54V218a2,2,0,0,0,4,0v-5.55h5.54a2,2,0,0,0,0-4Z"/><path class="cls-2" d="M479.61,275.94h-6.47v-6.47a2.35,2.35,0,1,0-4.7,0v6.47H462a2.35,2.35,0,0,0,0,4.7h6.47v6.47a2.35,2.35,0,1,0,4.7,0v-6.47h6.47a2.35,2.35,0,0,0,0-4.7Z"/><path class="cls-2" d="M480.87,342.68h-7.39v-7.4a2.69,2.69,0,1,0-5.38,0h0v7.4h-7.39a2.69,2.69,0,0,0-.33,5.37h7.72v7.4a2.69,2.69,0,0,0,5.38,0V348h7.39a2.69,2.69,0,1,0,.33-5.37h-.33Z"/><path class="cls-2" d="M482.79,410.24H474v-8.78a3.19,3.19,0,0,0-6.38,0v8.78h-8.84a3.19,3.19,0,0,0,0,6.38h8.78v8.78a3.19,3.19,0,0,0,6.38,0v-8.78h8.84a3.19,3.19,0,0,0,0-6.38Z"/><path class="cls-2" d="M484.65,476.59H474.49V466.42a3.7,3.7,0,1,0-7.4,0v10.17H456.93a3.7,3.7,0,1,0-.38,7.39h10.54v10.17a3.7,3.7,0,0,0,7.4,0V484h10.16a3.7,3.7,0,1,0,.38-7.39h-.38Z"/><path class="cls-2" d="M486.58,547.08H475V535.5a4.21,4.21,0,1,0-8.42,0v11.58H455a4.21,4.21,0,0,0,0,8.42h11.6v11.58a4.21,4.21,0,1,0,8.42,0V555.5h11.58a4.21,4.21,0,0,0,0-8.42Z"/><path class="cls-2" d="M489,613.44H475.63V600.13a4.84,4.84,0,1,0-9.68,0v13.31H452.63a4.85,4.85,0,0,0,0,9.69H466v13.31a4.84,4.84,0,0,0,9.68,0h0V623.13H489a4.85,4.85,0,0,0,0-9.69Z"/><path class="cls-2" d="M477.72,141.07h-5.08V136a1.85,1.85,0,1,0-3.7,0v5.08h-5.08a1.85,1.85,0,0,0,0,3.7h5.08v5.08a1.85,1.85,0,1,0,3.7,0h0v-5.08h5.08a1.85,1.85,0,0,0,0-3.7Z"/><path class="cls-2" d="M475.86,5.08h-3.72V1.36a1.35,1.35,0,1,0-2.7,0V5.08h-3.72a1.35,1.35,0,0,0,0,2.7h3.72v3.71a1.35,1.35,0,1,0,2.7,0V7.78h3.72a1.35,1.35,0,0,0,0-2.7Z"/><path class="cls-2" d="M476.79,73.83h-4.4V69.44a1.6,1.6,0,1,0-3.2,0v4.39h-4.4a1.6,1.6,0,0,0,0,3.18h4.39v4.4a1.6,1.6,0,0,0,3.2,0V77h4.41a1.6,1.6,0,0,0,0-3.19Z"/><path class="cls-2" d="M542.35,208.39h-5.56v-5.54a2,2,0,0,0-4,0v5.54h-5.54a2,2,0,0,0,0,4h5.54V218a2,2,0,0,0,4,0v-5.55h5.54a2,2,0,0,0,0-4Z"/><path class="cls-2" d="M543.61,275.94h-6.47v-6.47a2.35,2.35,0,1,0-4.7,0v6.47H526a2.35,2.35,0,0,0,0,4.7h6.47v6.47a2.35,2.35,0,0,0,4.7,0v-6.47h6.47a2.35,2.35,0,1,0,0-4.7Z"/><path class="cls-2" d="M544.87,342.68h-7.39v-7.4a2.69,2.69,0,0,0-5.38,0h0v7.4h-7.39a2.69,2.69,0,1,0-.33,5.37h7.72v7.4a2.69,2.69,0,0,0,5.38,0V348h7.39a2.69,2.69,0,0,0,.33-5.37h-.33Z"/><path class="cls-2" d="M546.79,410.24H538v-8.78a3.19,3.19,0,1,0-6.38,0v8.78h-8.84a3.19,3.19,0,1,0,0,6.38h8.78v8.78a3.19,3.19,0,0,0,6.38,0v-8.78h8.84a3.19,3.19,0,1,0,0-6.38Z"/><path class="cls-2" d="M548.65,476.59H538.49V466.42a3.7,3.7,0,0,0-7.4,0v10.17H520.93a3.7,3.7,0,1,0-.38,7.39h10.54v10.17a3.7,3.7,0,0,0,7.4,0V484h10.16a3.7,3.7,0,1,0,.38-7.39h-.38Z"/><path class="cls-2" d="M550.58,547.08H539V535.5a4.21,4.21,0,0,0-8.42,0v11.58H519a4.21,4.21,0,1,0,0,8.42h11.6v11.58a4.21,4.21,0,0,0,8.42,0V555.5h11.58a4.21,4.21,0,0,0,0-8.42Z"/><path class="cls-2" d="M553,613.44H539.63V600.13a4.84,4.84,0,1,0-9.68,0v13.31H516.63a4.85,4.85,0,0,0,0,9.69H530v13.31a4.84,4.84,0,0,0,9.68,0h0V623.13H553a4.85,4.85,0,0,0,0-9.69Z"/><path class="cls-2" d="M541.72,141.07h-5.08V136a1.85,1.85,0,0,0-3.7,0v5.08h-5.08a1.85,1.85,0,0,0,0,3.7h5.08v5.08a1.85,1.85,0,0,0,3.7,0h0v-5.08h5.08a1.85,1.85,0,1,0,0-3.7h0Z"/><path class="cls-2" d="M539.86,5.08h-3.72V1.36a1.35,1.35,0,1,0-2.7,0V5.08h-3.72a1.35,1.35,0,0,0,0,2.7h3.72v3.71a1.35,1.35,0,1,0,2.7,0V7.78h3.72a1.35,1.35,0,1,0,0-2.7Z"/><path class="cls-2" d="M540.79,73.83h-4.4V69.44a1.6,1.6,0,0,0-3.2,0v4.39h-4.4a1.6,1.6,0,0,0,0,3.18h4.39v4.4a1.6,1.6,0,1,0,3.2,0V77h4.41a1.6,1.6,0,0,0,0-3.19Z"/><path class="cls-2" d="M606.35,208.39h-5.56v-5.54a2,2,0,0,0-4,0v5.54h-5.54a2,2,0,0,0,0,4h5.54V218a2,2,0,0,0,4,0v-5.55h5.54a2,2,0,0,0,0-4Z"/><path class="cls-2" d="M607.61,275.94h-6.47v-6.47a2.35,2.35,0,1,0-4.7,0v6.47H590a2.35,2.35,0,0,0,0,4.7h6.47v6.47a2.35,2.35,0,0,0,4.7,0v-6.47h6.47a2.35,2.35,0,1,0,0-4.7Z"/><path class="cls-2" d="M608.87,342.68h-7.39v-7.4a2.69,2.69,0,0,0-5.38,0h0v7.4h-7.39a2.69,2.69,0,1,0-.33,5.37h7.72v7.4a2.69,2.69,0,0,0,5.38,0V348h7.39a2.69,2.69,0,0,0,.33-5.37h-.33Z"/><path class="cls-2" d="M610.79,410.24H602v-8.78a3.19,3.19,0,1,0-6.38,0v8.78h-8.84a3.19,3.19,0,1,0,0,6.38h8.78v8.78a3.19,3.19,0,0,0,6.38,0v-8.78h8.84a3.19,3.19,0,1,0,0-6.38Z"/><path class="cls-2" d="M612.65,476.59H602.49V466.42a3.7,3.7,0,0,0-7.4,0v10.17H584.93a3.7,3.7,0,1,0-.38,7.39h10.54v10.17a3.7,3.7,0,0,0,7.4,0V484h10.16a3.7,3.7,0,1,0,.38-7.39h-.38Z"/><path class="cls-2" d="M614.58,547.08H603V535.5a4.21,4.21,0,0,0-8.42,0v11.58H583a4.21,4.21,0,1,0,0,8.42h11.6v11.58a4.21,4.21,0,0,0,8.42,0V555.5h11.58a4.21,4.21,0,0,0,0-8.42Z"/><path class="cls-2" d="M617,613.44H603.63V600.13a4.84,4.84,0,1,0-9.68,0v13.31H580.63a4.85,4.85,0,0,0,0,9.69H594v13.31a4.84,4.84,0,0,0,9.68,0h0V623.13H617a4.85,4.85,0,0,0,0-9.69Z"/><path class="cls-2" d="M605.72,141.07h-5.08V136a1.85,1.85,0,0,0-3.7,0v5.08h-5.08a1.85,1.85,0,0,0,0,3.7h5.08v5.08a1.85,1.85,0,0,0,3.7,0h0v-5.08h5.08a1.85,1.85,0,1,0,0-3.7h0Z"/><path class="cls-2" d="M603.86,5.08h-3.72V1.36a1.35,1.35,0,1,0-2.7,0V5.08h-3.72a1.35,1.35,0,0,0,0,2.7h3.72v3.71a1.35,1.35,0,1,0,2.7,0V7.78h3.72a1.35,1.35,0,1,0,0-2.7Z"/><path class="cls-2" d="M604.79,73.83h-4.4V69.44a1.6,1.6,0,0,0-3.2,0v4.39h-4.4a1.6,1.6,0,0,0,0,3.18h4.39v4.4a1.6,1.6,0,1,0,3.2,0V77h4.41a1.6,1.6,0,0,0,0-3.19Z"/><path class="cls-2" d="M670.35,208.39h-5.56v-5.54a2,2,0,0,0-4,0v5.54h-5.54a2,2,0,0,0,0,4h5.54V218a2,2,0,0,0,4,0v-5.55h5.54a2,2,0,0,0,0-4Z"/><path class="cls-2" d="M671.61,275.94h-6.47v-6.47a2.35,2.35,0,1,0-4.7,0v6.47H654a2.35,2.35,0,0,0,0,4.7h6.47v6.47a2.35,2.35,0,0,0,4.7,0v-6.47h6.47a2.35,2.35,0,1,0,0-4.7Z"/><path class="cls-2" d="M672.87,342.68h-7.39v-7.4a2.69,2.69,0,0,0-5.38,0h0v7.4h-7.39a2.69,2.69,0,1,0-.33,5.37h7.72v7.4a2.69,2.69,0,0,0,5.38,0V348h7.39a2.69,2.69,0,0,0,.33-5.37h-.33Z"/><path class="cls-2" d="M674.79,410.24H666v-8.78a3.19,3.19,0,1,0-6.38,0v8.78h-8.84a3.19,3.19,0,1,0,0,6.38h8.78v8.78a3.19,3.19,0,0,0,6.38,0v-8.78h8.84a3.19,3.19,0,1,0,0-6.38Z"/><path class="cls-2" d="M676.65,476.59H666.49V466.42a3.7,3.7,0,0,0-7.4,0v10.17H648.93a3.7,3.7,0,1,0-.38,7.39h10.54v10.17a3.7,3.7,0,0,0,7.4,0V484h10.16a3.7,3.7,0,1,0,.38-7.39h-.38Z"/><path class="cls-2" d="M678.58,547.08H667V535.5a4.21,4.21,0,0,0-8.42,0v11.58H647a4.21,4.21,0,1,0,0,8.42h11.6v11.58a4.21,4.21,0,0,0,8.42,0V555.5h11.58a4.21,4.21,0,0,0,0-8.42Z"/><path class="cls-2" d="M681,613.44H667.63V600.13a4.84,4.84,0,1,0-9.68,0v13.31H644.63a4.85,4.85,0,0,0,0,9.69H658v13.31a4.84,4.84,0,0,0,9.68,0h0V623.13H681a4.85,4.85,0,0,0,0-9.69Z"/><path class="cls-2" d="M669.72,141.07h-5.08V136a1.85,1.85,0,0,0-3.7,0v5.08h-5.08a1.85,1.85,0,0,0,0,3.7h5.08v5.08a1.85,1.85,0,0,0,3.7,0h0v-5.08h5.08a1.85,1.85,0,1,0,0-3.7h0Z"/><path class="cls-2" d="M667.86,5.08h-3.72V1.36a1.35,1.35,0,1,0-2.7,0V5.08h-3.72a1.35,1.35,0,0,0,0,2.7h3.72v3.71a1.35,1.35,0,1,0,2.7,0V7.78h3.72a1.35,1.35,0,1,0,0-2.7Z"/><path class="cls-2" d="M668.79,73.83h-4.4V69.44a1.6,1.6,0,0,0-3.2,0v4.39h-4.4a1.6,1.6,0,0,0,0,3.18h4.39v4.4a1.6,1.6,0,1,0,3.2,0V77h4.41a1.6,1.6,0,0,0,0-3.19Z"/><path class="cls-2" d="M734.35,208.39h-5.56v-5.54a2,2,0,0,0-4,0v5.54h-5.54a2,2,0,0,0,0,4h5.54V218a2,2,0,0,0,4,0v-5.55h5.54a2,2,0,0,0,0-4Z"/><path class="cls-2" d="M735.61,275.94h-6.47v-6.47a2.35,2.35,0,1,0-4.7,0v6.47H718a2.35,2.35,0,0,0,0,4.7h6.47v6.47a2.35,2.35,0,0,0,4.7,0v-6.47h6.47a2.35,2.35,0,1,0,0-4.7Z"/><path class="cls-2" d="M736.87,342.68h-7.39v-7.4a2.69,2.69,0,0,0-5.38,0h0v7.4h-7.39a2.69,2.69,0,1,0-.33,5.37h7.72v7.4a2.69,2.69,0,0,0,5.38,0V348h7.39a2.69,2.69,0,0,0,.33-5.37h-.33Z"/><path class="cls-2" d="M738.79,410.24H730v-8.78a3.19,3.19,0,1,0-6.38,0v8.78h-8.84a3.19,3.19,0,1,0,0,6.38h8.78v8.78a3.19,3.19,0,0,0,6.38,0v-8.78h8.84a3.19,3.19,0,1,0,0-6.38Z"/><path class="cls-2" d="M740.65,476.59H730.49V466.42a3.7,3.7,0,0,0-7.4,0v10.17H712.93a3.7,3.7,0,1,0-.38,7.39h10.54v10.17a3.7,3.7,0,0,0,7.4,0V484h10.16a3.7,3.7,0,1,0,.38-7.39h-.38Z"/><path class="cls-2" d="M742.58,547.08H731V535.5a4.21,4.21,0,0,0-8.42,0v11.58H711a4.21,4.21,0,1,0,0,8.42h11.6v11.58a4.21,4.21,0,0,0,8.42,0V555.5h11.58a4.21,4.21,0,0,0,0-8.42Z"/><path class="cls-2" d="M745,613.44H731.63V600.13a4.84,4.84,0,1,0-9.68,0v13.31H708.63a4.85,4.85,0,0,0,0,9.69H722v13.31a4.84,4.84,0,0,0,9.68,0h0V623.13H745a4.85,4.85,0,0,0,0-9.69Z"/><path class="cls-2" d="M733.72,141.07h-5.08V136a1.85,1.85,0,0,0-3.7,0v5.08h-5.08a1.85,1.85,0,0,0,0,3.7h5.08v5.08a1.85,1.85,0,0,0,3.7,0h0v-5.08h5.08a1.85,1.85,0,1,0,0-3.7h0Z"/><path class="cls-2" d="M731.86,5.08h-3.72V1.36a1.35,1.35,0,1,0-2.7,0V5.08h-3.72a1.35,1.35,0,0,0,0,2.7h3.72v3.71a1.35,1.35,0,1,0,2.7,0V7.78h3.72a1.35,1.35,0,1,0,0-2.7Z"/><path class="cls-2" d="M732.79,73.83h-4.4V69.44a1.6,1.6,0,0,0-3.2,0v4.39h-4.4a1.6,1.6,0,0,0,0,3.18h4.39v4.4a1.6,1.6,0,1,0,3.2,0V77h4.41a1.6,1.6,0,0,0,0-3.19Z"/><path class="cls-2" d="M798.35,208.39h-5.56v-5.54a2,2,0,0,0-4,0v5.54h-5.54a2,2,0,0,0,0,4h5.54V218a2,2,0,0,0,4,0v-5.55h5.54a2,2,0,0,0,0-4Z"/><path class="cls-2" d="M799.61,275.94h-6.47v-6.47a2.35,2.35,0,0,0-4.7,0v6.47H782a2.35,2.35,0,0,0,0,4.7h6.47v6.47a2.35,2.35,0,0,0,4.7,0v-6.47h6.47a2.35,2.35,0,1,0,0-4.7Z"/><path class="cls-2" d="M800.87,342.68h-7.39v-7.4a2.69,2.69,0,0,0-5.38,0h0v7.4h-7.39a2.69,2.69,0,1,0-.33,5.37h7.72v7.4a2.69,2.69,0,0,0,5.38,0V348h7.39a2.69,2.69,0,0,0,.33-5.37h-.33Z"/><path class="cls-2" d="M802.79,410.24H794v-8.78a3.19,3.19,0,1,0-6.38,0v8.78h-8.84a3.19,3.19,0,1,0,0,6.38h8.78v8.78a3.19,3.19,0,0,0,6.38,0v-8.78h8.84a3.19,3.19,0,1,0,0-6.38Z"/><path class="cls-2" d="M804.65,476.59H794.49V466.42a3.7,3.7,0,0,0-7.4,0v10.17H776.93a3.7,3.7,0,1,0-.38,7.39h10.54v10.17a3.7,3.7,0,0,0,7.4,0V484h10.16a3.7,3.7,0,1,0,.38-7.39h-.38Z"/><path class="cls-2" d="M806.58,547.08H795V535.5a4.21,4.21,0,0,0-8.42,0v11.58H775a4.21,4.21,0,1,0,0,8.42h11.6v11.58a4.21,4.21,0,0,0,8.42,0V555.5h11.58a4.21,4.21,0,0,0,0-8.42Z"/><path class="cls-2" d="M809,613.44H795.63V600.13a4.84,4.84,0,1,0-9.68,0v13.31H772.63a4.85,4.85,0,0,0,0,9.69H786v13.31a4.84,4.84,0,0,0,9.68,0h0V623.13H809a4.85,4.85,0,0,0,0-9.69Z"/><path class="cls-2" d="M797.72,141.07h-5.08V136a1.85,1.85,0,0,0-3.7,0v5.08h-5.08a1.85,1.85,0,0,0,0,3.7h5.08v5.08a1.85,1.85,0,0,0,3.7,0h0v-5.08h5.08a1.85,1.85,0,1,0,0-3.7h0Z"/><path class="cls-2" d="M795.86,5.08h-3.72V1.36a1.35,1.35,0,1,0-2.7,0V5.08h-3.72a1.35,1.35,0,0,0,0,2.7h3.72v3.71a1.35,1.35,0,1,0,2.7,0V7.78h3.72a1.35,1.35,0,1,0,0-2.7Z"/><path class="cls-2" d="M796.79,73.83h-4.4V69.44a1.6,1.6,0,0,0-3.2,0v4.39h-4.4a1.6,1.6,0,0,0,0,3.18h4.39v4.4a1.6,1.6,0,1,0,3.2,0V77h4.41a1.6,1.6,0,0,0,0-3.19Z"/><path class="cls-2" d="M862.35,208.39h-5.56v-5.54a2,2,0,1,0-4,0v5.54h-5.54a2,2,0,0,0,0,4h5.54V218a2,2,0,0,0,4,0v-5.55h5.54a2,2,0,0,0,0-4Z"/><path class="cls-2" d="M863.61,275.94h-6.47v-6.47a2.35,2.35,0,0,0-4.7,0v6.47H846a2.35,2.35,0,0,0,0,4.7h6.47v6.47a2.35,2.35,0,0,0,4.7,0v-6.47h6.47a2.35,2.35,0,1,0,0-4.7Z"/><path class="cls-2" d="M864.87,342.68h-7.39v-7.4a2.69,2.69,0,0,0-5.38,0h0v7.4h-7.39a2.69,2.69,0,1,0-.33,5.37h7.72v7.4a2.69,2.69,0,0,0,5.38,0V348h7.39a2.69,2.69,0,0,0,.33-5.37h-.33Z"/><path class="cls-2" d="M866.79,410.24H858v-8.78a3.19,3.19,0,1,0-6.38,0v8.78h-8.84a3.19,3.19,0,1,0,0,6.38h8.78v8.78a3.19,3.19,0,0,0,6.38,0v-8.78h8.84a3.19,3.19,0,1,0,0-6.38Z"/><path class="cls-2" d="M868.65,476.59H858.49V466.42a3.7,3.7,0,0,0-7.4,0v10.17H840.93a3.7,3.7,0,1,0-.38,7.39h10.54v10.17a3.7,3.7,0,0,0,7.4,0V484h10.16a3.7,3.7,0,1,0,.38-7.39h-.38Z"/><path class="cls-2" d="M870.58,547.08H859V535.5a4.21,4.21,0,0,0-8.42,0v11.58H839a4.21,4.21,0,0,0,0,8.42h11.58v11.58a4.21,4.21,0,0,0,8.42,0V555.5h11.58a4.21,4.21,0,0,0,0-8.42Z"/><path class="cls-2" d="M873,613.44H859.63V600.13a4.84,4.84,0,1,0-9.68,0v13.31H836.63a4.85,4.85,0,0,0,0,9.69H850v13.31a4.84,4.84,0,0,0,9.68,0h0V623.13H873a4.85,4.85,0,0,0,0-9.69Z"/><path class="cls-2" d="M861.72,141.07h-5.08V136a1.85,1.85,0,0,0-3.7,0v5.08h-5.08a1.85,1.85,0,0,0,0,3.7h5.08v5.08a1.85,1.85,0,0,0,3.7,0h0v-5.08h5.08a1.85,1.85,0,1,0,0-3.7h0Z"/><path class="cls-2" d="M859.86,5.08h-3.72V1.36a1.35,1.35,0,1,0-2.7,0V5.08h-3.72a1.35,1.35,0,0,0,0,2.7h3.72v3.71a1.35,1.35,0,1,0,2.7,0V7.78h3.72a1.35,1.35,0,1,0,0-2.7Z"/><path class="cls-2" d="M860.79,73.83h-4.4V69.44a1.6,1.6,0,0,0-3.2,0v4.39h-4.4a1.6,1.6,0,0,0,0,3.18h4.39v4.4a1.6,1.6,0,1,0,3.2,0V77h4.41a1.6,1.6,0,0,0,0-3.19Z"/><path class="cls-2" d="M926.35,208.39h-5.56v-5.54a2,2,0,1,0-4,0v5.54h-5.54a2,2,0,0,0,0,4h5.54V218a2,2,0,0,0,4,0v-5.55h5.54a2,2,0,0,0,0-4Z"/><path class="cls-2" d="M927.61,275.94h-6.47v-6.47a2.35,2.35,0,0,0-4.7,0v6.47H910a2.35,2.35,0,0,0,0,4.7h6.47v6.47a2.35,2.35,0,0,0,4.7,0v-6.47h6.47a2.35,2.35,0,1,0,0-4.7Z"/><path class="cls-2" d="M928.87,342.68h-7.39v-7.4a2.69,2.69,0,0,0-5.38,0h0v7.4h-7.39a2.69,2.69,0,1,0-.33,5.37h7.72v7.4a2.69,2.69,0,0,0,5.38,0V348h7.39a2.69,2.69,0,0,0,.33-5.37h-.33Z"/><path class="cls-2" d="M930.79,410.24H922v-8.78a3.19,3.19,0,1,0-6.38,0v8.78h-8.84a3.19,3.19,0,1,0,0,6.38h8.78v8.78a3.19,3.19,0,0,0,6.38,0v-8.78h8.84a3.19,3.19,0,1,0,0-6.38Z"/><path class="cls-2" d="M932.65,476.59H922.49V466.42a3.7,3.7,0,0,0-7.4,0v10.17H904.93a3.7,3.7,0,1,0-.38,7.39h10.54v10.17a3.7,3.7,0,0,0,7.4,0V484h10.16a3.7,3.7,0,1,0,.38-7.39h-.38Z"/><path class="cls-2" d="M934.58,547.08H923V535.5a4.21,4.21,0,0,0-8.42,0v11.58H903a4.21,4.21,0,0,0,0,8.42h11.58v11.58a4.21,4.21,0,0,0,8.42,0V555.5h11.58a4.21,4.21,0,0,0,0-8.42Z"/><path class="cls-2" d="M937,613.44H923.63V600.13a4.84,4.84,0,1,0-9.68,0v13.31H900.63a4.85,4.85,0,0,0,0,9.69H914v13.31a4.84,4.84,0,0,0,9.68,0h0V623.13H937a4.85,4.85,0,0,0,0-9.69Z"/><path class="cls-2" d="M925.72,141.07h-5.08V136a1.85,1.85,0,0,0-3.7,0v5.08h-5.08a1.85,1.85,0,0,0,0,3.7h5.08v5.08a1.85,1.85,0,0,0,3.7,0h0v-5.08h5.08a1.85,1.85,0,1,0,0-3.7h0Z"/><path class="cls-2" d="M923.86,5.08h-3.72V1.36a1.35,1.35,0,1,0-2.7,0V5.08h-3.72a1.35,1.35,0,0,0,0,2.7h3.72v3.71a1.35,1.35,0,1,0,2.7,0V7.78h3.72a1.35,1.35,0,1,0,0-2.7Z"/><path class="cls-2" d="M924.79,73.83h-4.4V69.44a1.6,1.6,0,0,0-3.2,0v4.39h-4.4a1.6,1.6,0,0,0,0,3.18h4.39v4.4a1.6,1.6,0,1,0,3.2,0V77h4.41a1.6,1.6,0,0,0,0-3.19Z"/><path class="cls-2" d="M990.35,208.39h-5.56v-5.54a2,2,0,1,0-4,0v5.54h-5.54a2,2,0,0,0,0,4h5.54V218a2,2,0,0,0,4,0v-5.55h5.54a2,2,0,0,0,0-4Z"/><path class="cls-2" d="M991.61,275.94h-6.47v-6.47a2.35,2.35,0,0,0-4.7,0v6.47H974a2.35,2.35,0,0,0,0,4.7h6.47v6.47a2.35,2.35,0,0,0,4.7,0v-6.47h6.47a2.35,2.35,0,1,0,0-4.7Z"/><path class="cls-2" d="M992.87,342.68h-7.39v-7.4a2.69,2.69,0,0,0-5.38,0h0v7.4h-7.39a2.69,2.69,0,1,0-.33,5.37h7.72v7.4a2.69,2.69,0,0,0,5.38,0V348h7.39a2.69,2.69,0,0,0,.33-5.37h-.33Z"/><path class="cls-2" d="M994.79,410.24H986v-8.78a3.19,3.19,0,1,0-6.38,0v8.78h-8.84a3.19,3.19,0,1,0,0,6.38h8.78v8.78a3.19,3.19,0,0,0,6.38,0v-8.78h8.84a3.19,3.19,0,1,0,0-6.38Z"/><path class="cls-2" d="M996.65,476.59H986.49V466.42a3.7,3.7,0,0,0-7.4,0v10.17H968.93a3.7,3.7,0,1,0-.38,7.39h10.54v10.17a3.7,3.7,0,0,0,7.4,0V484h10.16a3.7,3.7,0,1,0,.38-7.39h-.38Z"/><path class="cls-2" d="M998.58,547.08H987V535.5a4.21,4.21,0,0,0-8.42,0v11.58H967a4.21,4.21,0,0,0,0,8.42h11.58v11.58a4.21,4.21,0,0,0,8.42,0V555.5h11.58a4.21,4.21,0,0,0,0-8.42Z"/><path class="cls-2" d="M1001,613.44H987.63V600.13a4.84,4.84,0,1,0-9.68,0v13.31H964.63a4.85,4.85,0,0,0,0,9.69H978v13.31a4.84,4.84,0,0,0,9.68,0h0V623.13H1001a4.85,4.85,0,0,0,0-9.69Z"/><path class="cls-2" d="M989.72,141.07h-5.08V136a1.85,1.85,0,0,0-3.7,0v5.08h-5.08a1.85,1.85,0,0,0,0,3.7h5.08v5.08a1.85,1.85,0,0,0,3.7,0h0v-5.08h5.08a1.85,1.85,0,1,0,0-3.7h0Z"/><path class="cls-2" d="M987.86,5.08h-3.72V1.36a1.35,1.35,0,1,0-2.7,0V5.08h-3.72a1.35,1.35,0,0,0,0,2.7h3.72v3.71a1.35,1.35,0,1,0,2.7,0V7.78h3.72a1.35,1.35,0,1,0,0-2.7Z"/><path class="cls-2" d="M988.79,73.83h-4.4V69.44a1.6,1.6,0,0,0-3.2,0v4.39h-4.4a1.6,1.6,0,0,0,0,3.18h4.39v4.4a1.6,1.6,0,1,0,3.2,0V77h4.41a1.6,1.6,0,0,0,0-3.19Z"/><path class="cls-2" d="M1054.35,208.39h-5.56v-5.54a2,2,0,1,0-4,0v5.54h-5.54a2,2,0,0,0,0,4h5.54V218a2,2,0,0,0,4,0v-5.55h5.54a2,2,0,0,0,0-4Z"/><path class="cls-2" d="M1055.61,275.94h-6.47v-6.47a2.35,2.35,0,1,0-4.7,0v6.49H1038a2.35,2.35,0,0,0,0,4.7h6.47v6.47a2.35,2.35,0,1,0,4.7,0v-6.49h6.47a2.35,2.35,0,1,0,0-4.7Z"/><path class="cls-2" d="M1056.87,342.68h-7.39v-7.4a2.69,2.69,0,0,0-5.38,0h0v7.4h-7.39a2.69,2.69,0,0,0-.33,5.37h7.72v7.4a2.69,2.69,0,0,0,5.38,0V348h7.39a2.69,2.69,0,0,0,.33-5.37h-.33Z"/><path class="cls-2" d="M1058.79,410.24H1050v-8.78a3.19,3.19,0,0,0-6.38,0v8.78h-8.84a3.19,3.19,0,0,0,0,6.38h8.78v8.78a3.19,3.19,0,0,0,6.38,0v-8.78h8.84a3.19,3.19,0,1,0,0-6.38Z"/><path class="cls-2" d="M1060.65,476.59h-10.16V466.42a3.7,3.7,0,0,0-7.4,0v10.17h-10.16a3.7,3.7,0,1,0-.38,7.39h10.54v10.17a3.7,3.7,0,1,0,7.4,0V484h10.16a3.7,3.7,0,1,0,.38-7.39h-.38Z"/><path class="cls-2" d="M1062.58,547.08H1051V535.5a4.21,4.21,0,0,0-8.42,0v11.58H1031a4.21,4.21,0,0,0,0,8.42h11.58v11.58a4.21,4.21,0,0,0,8.42,0V555.5h11.58a4.21,4.21,0,0,0,0-8.42Z"/><path class="cls-2" d="M1065,613.44h-13.32V600.13a4.84,4.84,0,0,0-9.68,0h0v13.31h-13.32a4.85,4.85,0,0,0,0,9.69H1042v13.31a4.84,4.84,0,1,0,9.68,0V623.13H1065a4.85,4.85,0,0,0,0-9.69Z"/><path class="cls-2" d="M1053.72,141.07h-5.08V136a1.85,1.85,0,0,0-3.7,0v5.08h-5.08a1.85,1.85,0,1,0,0,3.7h5.08v5.08a1.85,1.85,0,0,0,3.7,0v-5.1h5.08a1.85,1.85,0,0,0,0-3.7Z"/><path class="cls-2" d="M1051.86,5.08h-3.72V1.36a1.35,1.35,0,0,0-2.7,0V5.08h-3.72a1.35,1.35,0,0,0,0,2.7h3.72v3.71a1.35,1.35,0,1,0,2.7,0h0V7.78h3.72a1.35,1.35,0,1,0,0-2.7Z"/><path class="cls-2" d="M1052.79,73.83h-4.39V69.44a1.6,1.6,0,0,0-3.2,0v4.39h-4.41a1.6,1.6,0,0,0,0,3.19h4.39v4.39a1.6,1.6,0,1,0,3.2,0V77h4.41a1.6,1.6,0,0,0,0-3.19Z"/><path class="cls-2" d="M1118.35,208.39h-5.56v-5.54a2,2,0,1,0-4,0v5.54h-5.54a2,2,0,0,0,0,4h5.54V218a2,2,0,0,0,4,0v-5.55h5.54a2,2,0,0,0,0-4Z"/><path class="cls-2" d="M1119.61,275.94h-6.47v-6.47a2.35,2.35,0,0,0-4.7,0v6.47H1102a2.35,2.35,0,0,0,0,4.7h6.47v6.47a2.35,2.35,0,0,0,4.7,0v-6.47h6.47a2.35,2.35,0,1,0,0-4.7Z"/><path class="cls-2" d="M1120.87,342.68h-7.39v-7.4a2.69,2.69,0,0,0-5.38,0h0v7.4h-7.39a2.69,2.69,0,0,0-.33,5.37h7.72v7.4a2.69,2.69,0,0,0,5.38,0V348h7.39a2.69,2.69,0,0,0,.33-5.37h-.33Z"/><path class="cls-2" d="M1122.79,410.24H1114v-8.78a3.19,3.19,0,0,0-6.38,0v8.78h-8.84a3.19,3.19,0,0,0,0,6.38h8.78v8.78a3.19,3.19,0,1,0,6.38,0v-8.78h8.84a3.19,3.19,0,1,0,0-6.38Z"/><path class="cls-2" d="M1124.65,476.59h-10.16V466.42a3.7,3.7,0,1,0-7.4,0v10.17h-10.16a3.7,3.7,0,1,0-.38,7.39h10.54v10.17a3.7,3.7,0,1,0,7.4,0V484h10.16a3.7,3.7,0,1,0,.38-7.39h-.38Z"/><path class="cls-2" d="M1126.58,547.08H1115V535.5a4.21,4.21,0,0,0-8.42,0v11.58H1095a4.21,4.21,0,0,0,0,8.42h11.58v11.58a4.21,4.21,0,0,0,8.42,0V555.5h11.58a4.21,4.21,0,0,0,0-8.42Z"/><path class="cls-2" d="M1129,613.44h-13.32V600.13a4.84,4.84,0,0,0-9.68,0h0v13.31h-13.32a4.85,4.85,0,0,0,0,9.69H1106v13.31a4.84,4.84,0,1,0,9.68,0V623.13H1129a4.85,4.85,0,0,0,0-9.69Z"/><path class="cls-2" d="M1117.72,141.07h-5.08V136a1.85,1.85,0,0,0-3.7,0v5.08h-5.08a1.85,1.85,0,1,0,0,3.7h5.08v5.08a1.85,1.85,0,0,0,3.7,0v-5.08h5.08a1.85,1.85,0,0,0,0-3.7Z"/><path class="cls-2" d="M1115.86,5.08h-3.72V1.36a1.35,1.35,0,0,0-2.7,0V5.08h-3.72a1.35,1.35,0,0,0,0,2.7h3.72v3.71a1.35,1.35,0,1,0,2.7,0h0V7.78h3.72a1.35,1.35,0,1,0,0-2.7Z"/><path class="cls-2" d="M1116.79,73.83h-4.39V69.44a1.6,1.6,0,0,0-3.2,0v4.39h-4.41a1.6,1.6,0,0,0,0,3.19h4.39v4.39a1.6,1.6,0,1,0,3.2,0V77h4.41a1.6,1.6,0,0,0,0-3.19Z"/><path class="cls-2" d="M1182.35,208.39h-5.56v-5.54a2,2,0,1,0-4,0v5.54h-5.54a2,2,0,0,0,0,4h5.54V218a2,2,0,0,0,4,0v-5.55h5.54a2,2,0,0,0,0-4Z"/><path class="cls-2" d="M1183.61,275.94h-6.47v-6.47a2.35,2.35,0,1,0-4.7,0v6.49H1166a2.35,2.35,0,0,0,0,4.7h6.47v6.47a2.35,2.35,0,1,0,4.7,0v-6.49h6.47a2.35,2.35,0,1,0,0-4.7Z"/><path class="cls-2" d="M1184.87,342.68h-7.39v-7.4a2.69,2.69,0,0,0-5.38,0h0v7.4h-7.39a2.69,2.69,0,0,0-.33,5.37h7.72v7.4a2.69,2.69,0,0,0,5.38,0V348h7.39a2.69,2.69,0,0,0,.33-5.37h-.33Z"/><path class="cls-2" d="M1186.79,410.24H1178v-8.78a3.19,3.19,0,0,0-6.38,0v8.78h-8.84a3.19,3.19,0,0,0,0,6.38h8.78v8.78a3.19,3.19,0,0,0,6.38,0v-8.78h8.84a3.19,3.19,0,1,0,0-6.38Z"/><path class="cls-2" d="M1188.65,476.59h-10.16V466.42a3.7,3.7,0,1,0-7.4,0v10.17h-10.16a3.7,3.7,0,1,0-.38,7.39h10.54v10.17a3.7,3.7,0,1,0,7.4,0V484h10.16a3.7,3.7,0,1,0,.38-7.39h-.38Z"/><path class="cls-2" d="M1190.58,547.08H1179V535.5a4.21,4.21,0,0,0-8.42,0v11.58H1159a4.21,4.21,0,0,0,0,8.42h11.58v11.58a4.21,4.21,0,0,0,8.42,0V555.5h11.58a4.21,4.21,0,0,0,0-8.42Z"/><path class="cls-2" d="M1193,613.44h-13.32V600.13a4.84,4.84,0,0,0-9.68,0h0v13.31h-13.32a4.85,4.85,0,0,0,0,9.69H1170v13.31a4.84,4.84,0,0,0,9.68,0V623.13H1193a4.85,4.85,0,0,0,0-9.69Z"/><path class="cls-2" d="M1181.72,141.07h-5.08V136a1.85,1.85,0,0,0-3.7,0v5.08h-5.08a1.85,1.85,0,1,0,0,3.7h5.08v5.08a1.85,1.85,0,0,0,3.7,0v-5.1h5.08a1.85,1.85,0,0,0,0-3.7Z"/><path class="cls-2" d="M1179.86,5.08h-3.72V1.36a1.35,1.35,0,0,0-2.7,0V5.08h-3.72a1.35,1.35,0,0,0,0,2.7h3.72v3.71a1.35,1.35,0,1,0,2.7,0h0V7.78h3.72a1.35,1.35,0,1,0,0-2.7Z"/><path class="cls-2" d="M1180.79,73.83h-4.39V69.44a1.6,1.6,0,0,0-3.2,0v4.39h-4.41a1.6,1.6,0,0,0,0,3.19h4.39v4.39a1.6,1.6,0,1,0,3.2,0V77h4.41a1.6,1.6,0,0,0,0-3.19Z"/><path class="cls-2" d="M1246.35,208.39h-5.56v-5.54a2,2,0,1,0-4,0v5.54h-5.54a2,2,0,0,0,0,4h5.54V218a2,2,0,0,0,4,0v-5.55h5.54a2,2,0,0,0,0-4Z"/><path class="cls-2" d="M1247.61,275.94h-6.47v-6.47a2.35,2.35,0,0,0-4.7,0v6.47H1230a2.35,2.35,0,0,0,0,4.7h6.47v6.47a2.35,2.35,0,0,0,4.7,0v-6.47h6.47a2.35,2.35,0,1,0,0-4.7Z"/><path class="cls-2" d="M1248.87,342.68h-7.39v-7.4a2.69,2.69,0,0,0-5.38,0h0v7.4h-7.39a2.69,2.69,0,1,0-.33,5.37h7.72v7.4a2.69,2.69,0,0,0,5.38,0V348h7.39a2.69,2.69,0,0,0,.33-5.37h-.33Z"/><path class="cls-2" d="M1250.79,410.24H1242v-8.78a3.19,3.19,0,0,0-6.38,0v8.78h-8.84a3.19,3.19,0,0,0,0,6.38h8.78v8.78a3.19,3.19,0,1,0,6.38,0v-8.78h8.84a3.19,3.19,0,1,0,0-6.38Z"/><path class="cls-2" d="M1252.65,476.59h-10.16V466.42a3.7,3.7,0,0,0-7.4,0v10.17h-10.16a3.7,3.7,0,1,0-.38,7.39h10.54v10.17a3.7,3.7,0,1,0,7.4,0V484h10.16a3.7,3.7,0,1,0,.38-7.39h-.38Z"/><path class="cls-2" d="M1254.58,547.08H1243V535.5a4.21,4.21,0,0,0-8.42,0v11.58H1223a4.21,4.21,0,0,0,0,8.42h11.58v11.58a4.21,4.21,0,0,0,8.42,0V555.5h11.58a4.21,4.21,0,0,0,0-8.42Z"/><path class="cls-2" d="M1257,613.44h-13.32V600.13a4.84,4.84,0,0,0-9.68,0h0v13.31h-13.32a4.85,4.85,0,0,0,0,9.69H1234v13.31a4.84,4.84,0,0,0,9.68,0V623.13H1257a4.85,4.85,0,0,0,0-9.69Z"/><path class="cls-2" d="M1245.72,141.07h-5.08V136a1.85,1.85,0,0,0-3.7,0v5.08h-5.08a1.85,1.85,0,1,0,0,3.7h5.08v5.08a1.85,1.85,0,0,0,3.7,0v-5.08h5.08a1.85,1.85,0,0,0,0-3.7Z"/><path class="cls-2" d="M1243.86,5.08h-3.72V1.36a1.35,1.35,0,0,0-2.7,0V5.08h-3.72a1.35,1.35,0,0,0,0,2.7h3.72v3.71a1.35,1.35,0,1,0,2.7,0h0V7.78h3.72a1.35,1.35,0,1,0,0-2.7Z"/><path class="cls-2" d="M1244.79,73.83h-4.39V69.44a1.6,1.6,0,0,0-3.2,0v4.39h-4.41a1.6,1.6,0,0,0,0,3.19h4.39v4.39a1.6,1.6,0,1,0,3.2,0V77h4.41a1.6,1.6,0,0,0,0-3.19Z"/><path class="cls-2" d="M1310.35,208.39h-5.56v-5.54a2,2,0,1,0-4,0v5.54h-5.54a2,2,0,0,0,0,4h5.54V218a2,2,0,0,0,4,0v-5.55h5.54a2,2,0,0,0,0-4Z"/><path class="cls-2" d="M1311.61,275.94h-6.47v-6.47a2.35,2.35,0,1,0-4.7,0v6.49H1294a2.35,2.35,0,0,0,0,4.7h6.47v6.47a2.35,2.35,0,1,0,4.7,0v-6.49h6.47a2.35,2.35,0,1,0,0-4.7Z"/><path class="cls-2" d="M1312.87,342.68h-7.39v-7.4a2.69,2.69,0,0,0-5.38,0h0v7.4h-7.39a2.69,2.69,0,1,0-.33,5.37h7.72v7.4a2.69,2.69,0,0,0,5.38,0V348h7.39a2.69,2.69,0,0,0,.33-5.37h-.33Z"/><path class="cls-2" d="M1314.79,410.24H1306v-8.78a3.19,3.19,0,0,0-6.38,0v8.78h-8.84a3.19,3.19,0,0,0,0,6.38h8.78v8.78a3.19,3.19,0,0,0,6.38,0v-8.78h8.84a3.19,3.19,0,1,0,0-6.38Z"/><path class="cls-2" d="M1316.65,476.59h-10.16V466.42a3.7,3.7,0,0,0-7.4,0v10.17h-10.16a3.7,3.7,0,1,0-.38,7.39h10.54v10.17a3.7,3.7,0,1,0,7.4,0V484h10.16a3.7,3.7,0,1,0,.38-7.39h-.38Z"/><path class="cls-2" d="M1318.58,547.08H1307V535.5a4.21,4.21,0,0,0-8.42,0v11.58H1287a4.21,4.21,0,0,0,0,8.42h11.58v11.58a4.21,4.21,0,0,0,8.42,0V555.5h11.58a4.21,4.21,0,0,0,0-8.42Z"/><path class="cls-2" d="M1321,613.44h-13.32V600.13a4.84,4.84,0,0,0-9.68,0h0v13.31h-13.32a4.85,4.85,0,0,0,0,9.69H1298v13.31a4.84,4.84,0,0,0,9.68,0V623.13H1321a4.85,4.85,0,0,0,0-9.69Z"/><path class="cls-2" d="M1309.72,141.07h-5.08V136a1.85,1.85,0,0,0-3.7,0v5.08h-5.08a1.85,1.85,0,1,0,0,3.7h5.08v5.08a1.85,1.85,0,0,0,3.7,0v-5.1h5.08a1.85,1.85,0,0,0,0-3.7Z"/><path class="cls-2" d="M1307.86,5.08h-3.72V1.36a1.35,1.35,0,0,0-2.7,0V5.08h-3.72a1.35,1.35,0,0,0,0,2.7h3.72v3.71a1.35,1.35,0,1,0,2.7,0h0V7.78h3.72a1.35,1.35,0,1,0,0-2.7Z"/><path class="cls-2" d="M1308.79,73.83h-4.39V69.44a1.6,1.6,0,0,0-3.2,0v4.39h-4.41a1.6,1.6,0,0,0,0,3.19h4.39v4.39a1.6,1.6,0,1,0,3.2,0V77h4.41a1.6,1.6,0,0,0,0-3.19Z"/><path class="cls-2" d="M1374.35,208.39h-5.56v-5.54a2,2,0,1,0-4,0v5.54h-5.54a2,2,0,0,0,0,4h5.54V218a2,2,0,0,0,4,0v-5.55h5.54a2,2,0,0,0,0-4Z"/><path class="cls-2" d="M1375.61,275.94h-6.47v-6.47a2.35,2.35,0,1,0-4.7,0v6.49H1358a2.35,2.35,0,0,0,0,4.7h6.47v6.47a2.35,2.35,0,1,0,4.7,0v-6.49h6.47a2.35,2.35,0,1,0,0-4.7Z"/><path class="cls-2" d="M1376.87,342.68h-7.39v-7.4a2.69,2.69,0,0,0-5.38,0h0v7.4h-7.39a2.69,2.69,0,1,0-.33,5.37h7.72v7.4a2.69,2.69,0,0,0,5.38,0V348h7.39a2.69,2.69,0,0,0,.33-5.37h-.33Z"/><path class="cls-2" d="M1378.79,410.24H1370v-8.78a3.19,3.19,0,0,0-6.38,0v8.78h-8.84a3.19,3.19,0,0,0,0,6.38h8.78v8.78a3.19,3.19,0,1,0,6.38,0v-8.78h8.84a3.19,3.19,0,1,0,0-6.38Z"/><path class="cls-2" d="M1380.65,476.59h-10.16V466.42a3.7,3.7,0,0,0-7.4,0v10.17h-10.16a3.7,3.7,0,1,0-.38,7.39h10.54v10.17a3.7,3.7,0,1,0,7.4,0V484h10.16a3.7,3.7,0,1,0,.38-7.39h-.38Z"/><path class="cls-2" d="M1382.58,547.08H1371V535.5a4.21,4.21,0,0,0-8.42,0v11.58H1351a4.21,4.21,0,0,0,0,8.42h11.58v11.58a4.21,4.21,0,0,0,8.42,0V555.5h11.58a4.21,4.21,0,0,0,0-8.42Z"/><path class="cls-2" d="M1385,613.44h-13.32V600.13a4.84,4.84,0,0,0-9.68,0h0v13.31h-13.32a4.85,4.85,0,0,0,0,9.69H1362v13.31a4.84,4.84,0,0,0,9.68,0V623.13H1385a4.85,4.85,0,0,0,0-9.69Z"/><path class="cls-2" d="M1373.72,141.07h-5.08V136a1.85,1.85,0,0,0-3.7,0v5.08h-5.08a1.85,1.85,0,1,0,0,3.7h5.08v5.08a1.85,1.85,0,0,0,3.7,0v-5.08h5.08a1.85,1.85,0,0,0,0-3.7Z"/><path class="cls-2" d="M1371.86,5.08h-3.72V1.36a1.35,1.35,0,0,0-2.7,0V5.08h-3.72a1.35,1.35,0,0,0,0,2.7h3.72v3.71a1.35,1.35,0,1,0,2.7,0h0V7.78h3.72a1.35,1.35,0,1,0,0-2.7Z"/><path class="cls-2" d="M1372.79,73.83h-4.39V69.44a1.6,1.6,0,0,0-3.2,0v4.39h-4.41a1.6,1.6,0,0,0,0,3.19h4.39v4.39a1.6,1.6,0,1,0,3.2,0V77h4.41a1.6,1.6,0,0,0,0-3.19Z"/><path class="cls-2" d="M1438.35,208.39h-5.56v-5.54a2,2,0,1,0-4,0v5.54h-5.54a2,2,0,0,0,0,4h5.54V218a2,2,0,0,0,4,0v-5.55h5.54a2,2,0,0,0,0-4Z"/><path class="cls-2" d="M1439.61,275.94h-6.47v-6.47a2.35,2.35,0,0,0-4.7,0v6.47H1422a2.35,2.35,0,0,0,0,4.7h6.47v6.47a2.35,2.35,0,0,0,4.7,0v-6.47h6.47a2.35,2.35,0,1,0,0-4.7Z"/><path class="cls-2" d="M1440.87,342.68h-7.39v-7.4a2.69,2.69,0,0,0-5.38,0h0v7.4h-7.39a2.69,2.69,0,1,0-.33,5.37h7.72v7.4a2.69,2.69,0,1,0,5.38,0V348h7.39a2.69,2.69,0,0,0,.33-5.37h-.33Z"/><path class="cls-2" d="M1442.79,410.24H1434v-8.78a3.19,3.19,0,0,0-6.38,0v8.78h-8.84a3.19,3.19,0,0,0,0,6.38h8.78v8.78a3.19,3.19,0,0,0,6.38,0v-8.78h8.84a3.19,3.19,0,1,0,0-6.38Z"/><path class="cls-2" d="M1444.65,476.59h-10.16V466.42a3.7,3.7,0,0,0-7.4,0v10.17h-10.16a3.7,3.7,0,1,0-.38,7.39h10.54v10.17a3.7,3.7,0,1,0,7.4,0V484h10.16a3.7,3.7,0,1,0,.38-7.39h-.38Z"/><path class="cls-2" d="M1446.58,547.08H1435V535.5a4.21,4.21,0,0,0-8.42,0v11.58H1415a4.21,4.21,0,0,0,0,8.42h11.58v11.58a4.21,4.21,0,0,0,8.42,0V555.5h11.58a4.21,4.21,0,0,0,0-8.42Z"/><path class="cls-2" d="M1449,613.44h-13.32V600.13a4.84,4.84,0,0,0-9.68,0h0v13.31h-13.32a4.85,4.85,0,0,0,0,9.69H1426v13.31a4.84,4.84,0,0,0,9.68,0V623.13H1449a4.85,4.85,0,0,0,0-9.69Z"/><path class="cls-2" d="M1437.72,141.07h-5.08V136a1.85,1.85,0,0,0-3.7,0v5.08h-5.08a1.85,1.85,0,1,0,0,3.7h5.08v5.08a1.85,1.85,0,0,0,3.7,0v-5.1h5.08a1.85,1.85,0,0,0,0-3.7Z"/><path class="cls-2" d="M1435.86,5.08h-3.72V1.36a1.35,1.35,0,0,0-2.7,0V5.08h-3.72a1.35,1.35,0,0,0,0,2.7h3.72v3.71a1.35,1.35,0,1,0,2.7,0h0V7.78h3.72a1.35,1.35,0,1,0,0-2.7Z"/><path class="cls-2" d="M1436.79,73.83h-4.39V69.44a1.6,1.6,0,0,0-3.2,0v4.39h-4.41a1.6,1.6,0,0,0,0,3.19h4.39v4.39a1.6,1.6,0,1,0,3.2,0V77h4.41a1.6,1.6,0,0,0,0-3.19Z"/><path class="cls-2" d="M1502.35,208.39h-5.56v-5.54a2,2,0,1,0-4,0v5.54h-5.54a2,2,0,0,0,0,4h5.54V218a2,2,0,0,0,4,0v-5.55h5.54a2,2,0,0,0,0-4Z"/><path class="cls-2" d="M1503.61,275.94h-6.47v-6.47a2.35,2.35,0,1,0-4.7,0v6.49H1486a2.35,2.35,0,0,0,0,4.7h6.47v6.47a2.35,2.35,0,1,0,4.7,0v-6.49h6.47a2.35,2.35,0,1,0,0-4.7Z"/><path class="cls-2" d="M1504.87,342.68h-7.39v-7.4a2.69,2.69,0,0,0-5.38,0h0v7.4h-7.39a2.69,2.69,0,1,0-.33,5.37h7.72v7.4a2.69,2.69,0,1,0,5.38,0V348h7.39a2.69,2.69,0,0,0,.33-5.37h-.33Z"/><path class="cls-2" d="M1506.79,410.24H1498v-8.78a3.19,3.19,0,0,0-6.38,0v8.78h-8.84a3.19,3.19,0,0,0,0,6.38h8.78v8.78a3.19,3.19,0,1,0,6.38,0v-8.78h8.84a3.19,3.19,0,1,0,0-6.38Z"/><path class="cls-2" d="M1508.65,476.59h-10.16V466.42a3.7,3.7,0,1,0-7.4,0v10.17h-10.16a3.7,3.7,0,1,0-.38,7.39h10.54v10.17a3.7,3.7,0,1,0,7.4,0V484h10.16a3.7,3.7,0,1,0,.38-7.39h-.38Z"/><path class="cls-2" d="M1510.58,547.08H1499V535.5a4.21,4.21,0,0,0-8.42,0v11.58H1479a4.21,4.21,0,0,0,0,8.42h11.58v11.58a4.21,4.21,0,0,0,8.42,0V555.5h11.58a4.21,4.21,0,1,0,0-8.42Z"/><path class="cls-2" d="M1513,613.44h-13.32V600.13a4.84,4.84,0,0,0-9.68,0h0v13.31h-13.32a4.85,4.85,0,0,0,0,9.69H1490v13.31a4.84,4.84,0,0,0,9.68,0V623.13H1513a4.85,4.85,0,0,0,0-9.69Z"/><path class="cls-2" d="M1501.72,141.07h-5.08V136a1.85,1.85,0,0,0-3.7,0v5.08h-5.08a1.85,1.85,0,1,0,0,3.7h5.08v5.08a1.85,1.85,0,0,0,3.7,0v-5.08h5.08a1.85,1.85,0,0,0,0-3.7Z"/><path class="cls-2" d="M1499.86,5.08h-3.72V1.36a1.35,1.35,0,0,0-2.7,0V5.08h-3.72a1.35,1.35,0,0,0,0,2.7h3.72v3.71a1.35,1.35,0,1,0,2.7,0h0V7.78h3.72a1.35,1.35,0,1,0,0-2.7Z"/><path class="cls-2" d="M1500.79,73.83h-4.39V69.44a1.6,1.6,0,0,0-3.2,0v4.39h-4.41a1.6,1.6,0,0,0,0,3.19h4.39v4.39a1.6,1.6,0,1,0,3.2,0V77h4.41a1.6,1.6,0,0,0,0-3.19Z"/><path class="cls-2" d="M1566.35,208.39h-5.56v-5.54a2,2,0,1,0-4,0v5.54h-5.54a2,2,0,0,0,0,4h5.54V218a2,2,0,0,0,4,0v-5.55h5.54a2,2,0,0,0,0-4Z"/><path class="cls-2" d="M1567.61,275.94h-6.47v-6.47a2.35,2.35,0,0,0-4.7,0v6.47H1550a2.35,2.35,0,0,0,0,4.7h6.47v6.47a2.35,2.35,0,0,0,4.7,0v-6.47h6.47a2.35,2.35,0,1,0,0-4.7Z"/><path class="cls-2" d="M1568.87,342.68h-7.39v-7.4a2.69,2.69,0,0,0-5.38,0h0v7.4h-7.39a2.69,2.69,0,1,0-.33,5.37h7.72v7.4a2.69,2.69,0,0,0,5.38,0V348h7.39a2.69,2.69,0,0,0,.33-5.37h-.33Z"/><path class="cls-2" d="M1570.79,410.24H1562v-8.78a3.19,3.19,0,0,0-6.38,0v8.78h-8.84a3.19,3.19,0,0,0,0,6.38h8.78v8.78a3.19,3.19,0,0,0,6.38,0v-8.78h8.84a3.19,3.19,0,1,0,0-6.38Z"/><path class="cls-2" d="M1572.65,476.59h-10.16V466.42a3.7,3.7,0,1,0-7.4,0v10.17h-10.16a3.7,3.7,0,1,0-.38,7.39h10.54v10.17a3.7,3.7,0,1,0,7.4,0V484h10.16a3.7,3.7,0,1,0,.38-7.39h-.38Z"/><path class="cls-2" d="M1574.58,547.08H1563V535.5a4.21,4.21,0,0,0-8.42,0v11.58H1543a4.21,4.21,0,0,0,0,8.42h11.58v11.58a4.21,4.21,0,0,0,8.42,0V555.5h11.58a4.21,4.21,0,1,0,0-8.42Z"/><path class="cls-2" d="M1577,613.44h-13.32V600.13a4.84,4.84,0,0,0-9.68,0h0v13.31h-13.32a4.85,4.85,0,0,0,0,9.69H1554v13.31a4.84,4.84,0,0,0,9.68,0V623.13H1577a4.85,4.85,0,0,0,0-9.69Z"/><path class="cls-2" d="M1565.72,141.07h-5.08V136a1.85,1.85,0,0,0-3.7,0v5.08h-5.08a1.85,1.85,0,1,0,0,3.7h5.08v5.08a1.85,1.85,0,0,0,3.7,0v-5.1h5.08a1.85,1.85,0,0,0,0-3.7Z"/><path class="cls-2" d="M1563.86,5.08h-3.72V1.36a1.35,1.35,0,0,0-2.7,0V5.08h-3.72a1.35,1.35,0,0,0,0,2.7h3.72v3.71a1.35,1.35,0,1,0,2.7,0h0V7.78h3.72a1.35,1.35,0,1,0,0-2.7Z"/><path class="cls-2" d="M1564.79,73.83h-4.39V69.44a1.6,1.6,0,0,0-3.2,0v4.39h-4.41a1.6,1.6,0,0,0,0,3.19h4.39v4.39a1.6,1.6,0,1,0,3.2,0V77h4.41a1.6,1.6,0,0,0,0-3.19Z"/><path class="cls-2" d="M1630.35,208.39h-5.56v-5.54a2,2,0,1,0-4,0v5.54h-5.54a2,2,0,0,0,0,4h5.54V218a2,2,0,0,0,4,0v-5.55h5.54a2,2,0,0,0,0-4Z"/><path class="cls-2" d="M1631.61,275.94h-6.47v-6.47a2.35,2.35,0,1,0-4.7,0v6.49H1614a2.35,2.35,0,0,0,0,4.7h6.47v6.47a2.35,2.35,0,1,0,4.7,0v-6.49h6.47a2.35,2.35,0,1,0,0-4.7Z"/><path class="cls-2" d="M1632.87,342.68h-7.39v-7.4a2.69,2.69,0,0,0-5.38,0h0v7.4h-7.39a2.69,2.69,0,1,0-.33,5.37h7.72v7.4a2.69,2.69,0,0,0,5.38,0V348h7.39a2.69,2.69,0,0,0,.33-5.37h-.33Z"/><path class="cls-2" d="M1634.79,410.24H1626v-8.78a3.19,3.19,0,0,0-6.38,0v8.78h-8.84a3.19,3.19,0,0,0,0,6.38h8.78v8.78a3.19,3.19,0,1,0,6.38,0v-8.78h8.84a3.19,3.19,0,1,0,0-6.38Z"/><path class="cls-2" d="M1636.65,476.59h-10.16V466.42a3.7,3.7,0,1,0-7.4,0v10.17h-10.16a3.7,3.7,0,1,0-.38,7.39h10.54v10.17a3.7,3.7,0,1,0,7.4,0V484h10.16a3.7,3.7,0,1,0,.38-7.39h-.38Z"/><path class="cls-2" d="M1638.58,547.08H1627V535.5a4.21,4.21,0,0,0-8.42,0v11.58H1607a4.21,4.21,0,0,0,0,8.42h11.58v11.58a4.21,4.21,0,0,0,8.42,0V555.5h11.58a4.21,4.21,0,1,0,0-8.42Z"/><path class="cls-2" d="M1641,613.44h-13.32V600.13a4.84,4.84,0,0,0-9.68,0h0v13.31h-13.32a4.85,4.85,0,0,0,0,9.69H1618v13.31a4.84,4.84,0,0,0,9.68,0V623.13H1641a4.85,4.85,0,0,0,0-9.69Z"/><path class="cls-2" d="M1629.72,141.07h-5.08V136a1.85,1.85,0,0,0-3.7,0v5.08h-5.08a1.85,1.85,0,1,0,0,3.7h5.08v5.08a1.85,1.85,0,0,0,3.7,0v-5.08h5.08a1.85,1.85,0,0,0,0-3.7Z"/><path class="cls-2" d="M1627.86,5.08h-3.72V1.36a1.35,1.35,0,0,0-2.7,0V5.08h-3.72a1.35,1.35,0,0,0,0,2.7h3.72v3.71a1.35,1.35,0,1,0,2.7,0h0V7.78h3.72a1.35,1.35,0,1,0,0-2.7Z"/><path class="cls-2" d="M1628.79,73.83h-4.39V69.44a1.6,1.6,0,0,0-3.2,0v4.39h-4.41a1.6,1.6,0,0,0,0,3.19h4.39v4.39a1.6,1.6,0,1,0,3.2,0V77h4.41a1.6,1.6,0,0,0,0-3.19Z"/><path class="cls-2" d="M1694.35,208.39h-5.56v-5.54a2,2,0,1,0-4,0v5.54h-5.54a2,2,0,0,0,0,4h5.54V218a2,2,0,0,0,4,0v-5.55h5.54a2,2,0,0,0,0-4Z"/><path class="cls-2" d="M1695.61,275.94h-6.47v-6.47a2.35,2.35,0,1,0-4.7,0v6.49H1678a2.35,2.35,0,0,0,0,4.7h6.47v6.47a2.35,2.35,0,1,0,4.7,0v-6.49h6.47a2.35,2.35,0,1,0,0-4.7Z"/><path class="cls-2" d="M1696.87,342.68h-7.39v-7.4a2.69,2.69,0,0,0-5.38,0h0v7.4h-7.39a2.69,2.69,0,1,0-.33,5.37h7.72v7.4a2.69,2.69,0,0,0,5.38,0V348h7.39a2.69,2.69,0,0,0,.33-5.37h-.33Z"/><path class="cls-2" d="M1698.79,410.24H1690v-8.78a3.19,3.19,0,0,0-6.38,0v8.78h-8.84a3.19,3.19,0,0,0,0,6.38h8.78v8.78a3.19,3.19,0,0,0,6.38,0v-8.78h8.84a3.19,3.19,0,1,0,0-6.38Z"/><path class="cls-2" d="M1700.65,476.59h-10.16V466.42a3.7,3.7,0,0,0-7.4,0v10.17h-10.16a3.7,3.7,0,1,0-.38,7.39h10.54v10.17a3.7,3.7,0,1,0,7.4,0V484h10.16a3.7,3.7,0,1,0,.38-7.39h-.38Z"/><path class="cls-2" d="M1702.58,547.08H1691V535.5a4.21,4.21,0,0,0-8.42,0v11.58H1671a4.21,4.21,0,0,0,0,8.42h11.58v11.58a4.21,4.21,0,0,0,8.42,0V555.5h11.58a4.21,4.21,0,1,0,0-8.42Z"/><path class="cls-2" d="M1705,613.44h-13.32V600.13a4.84,4.84,0,0,0-9.68,0h0v13.31h-13.32a4.85,4.85,0,0,0,0,9.69H1682v13.31a4.84,4.84,0,0,0,9.68,0V623.13H1705a4.85,4.85,0,0,0,0-9.69Z"/><path class="cls-2" d="M1693.72,141.07h-5.08V136a1.85,1.85,0,0,0-3.7,0v5.08h-5.08a1.85,1.85,0,1,0,0,3.7h5.08v5.08a1.85,1.85,0,0,0,3.7,0v-5.1h5.08a1.85,1.85,0,0,0,0-3.7Z"/><path class="cls-2" d="M1691.86,5.08h-3.72V1.36a1.35,1.35,0,0,0-2.7,0V5.08h-3.72a1.35,1.35,0,0,0,0,2.7h3.72v3.71a1.35,1.35,0,1,0,2.7,0h0V7.78h3.72a1.35,1.35,0,1,0,0-2.7Z"/><path class="cls-2" d="M1692.79,73.83h-4.39V69.44a1.6,1.6,0,0,0-3.2,0v4.39h-4.41a1.6,1.6,0,0,0,0,3.19h4.39v4.39a1.6,1.6,0,1,0,3.2,0V77h4.41a1.6,1.6,0,0,0,0-3.19Z"/><path class="cls-2" d="M1758.35,208.39h-5.56v-5.54a2,2,0,1,0-4,0v5.54h-5.54a2,2,0,0,0,0,4h5.54V218a2,2,0,0,0,4,0v-5.55h5.54a2,2,0,0,0,0-4Z"/><path class="cls-2" d="M1759.61,275.94h-6.47v-6.47a2.35,2.35,0,1,0-4.7,0v6.49H1742a2.35,2.35,0,0,0,0,4.7h6.47v6.47a2.35,2.35,0,1,0,4.7,0v-6.49h6.47a2.35,2.35,0,1,0,0-4.7Z"/><path class="cls-2" d="M1760.87,342.68h-7.39v-7.4a2.69,2.69,0,0,0-5.38,0h0v7.4h-7.39a2.69,2.69,0,1,0-.33,5.37h7.72v7.4a2.69,2.69,0,0,0,5.38,0V348h7.39a2.69,2.69,0,0,0,.33-5.37h-.33Z"/><path class="cls-2" d="M1762.79,410.24H1754v-8.78a3.19,3.19,0,0,0-6.38,0v8.78h-8.84a3.19,3.19,0,0,0,0,6.38h8.78v8.78a3.19,3.19,0,1,0,6.38,0v-8.78h8.84a3.19,3.19,0,1,0,0-6.38Z"/><path class="cls-2" d="M1764.65,476.59h-10.16V466.42a3.7,3.7,0,0,0-7.4,0v10.17h-10.16a3.7,3.7,0,1,0-.38,7.39h10.54v10.17a3.7,3.7,0,1,0,7.4,0V484h10.16a3.7,3.7,0,1,0,.38-7.39h-.38Z"/><path class="cls-2" d="M1766.58,547.08H1755V535.5a4.21,4.21,0,0,0-8.42,0v11.58H1735a4.21,4.21,0,0,0,0,8.42h11.58v11.58a4.21,4.21,0,0,0,8.42,0V555.5h11.58a4.21,4.21,0,1,0,0-8.42Z"/><path class="cls-2" d="M1769,613.44h-13.32V600.13a4.84,4.84,0,0,0-9.68,0h0v13.31h-13.32a4.85,4.85,0,0,0,0,9.69H1746v13.31a4.84,4.84,0,0,0,9.68,0V623.13H1769a4.85,4.85,0,0,0,0-9.69Z"/><path class="cls-2" d="M1757.72,141.07h-5.08V136a1.85,1.85,0,0,0-3.7,0v5.08h-5.08a1.85,1.85,0,1,0,0,3.7h5.08v5.08a1.85,1.85,0,0,0,3.7,0v-5.08h5.08a1.85,1.85,0,0,0,0-3.7Z"/><path class="cls-2" d="M1755.86,5.08h-3.72V1.36a1.35,1.35,0,0,0-2.7,0V5.08h-3.72a1.35,1.35,0,0,0,0,2.7h3.72v3.71a1.35,1.35,0,1,0,2.7,0h0V7.78h3.72a1.35,1.35,0,1,0,0-2.7Z"/><path class="cls-2" d="M1756.79,73.83h-4.39V69.44a1.6,1.6,0,0,0-3.2,0v4.39h-4.41a1.6,1.6,0,0,0,0,3.19h4.39v4.39a1.6,1.6,0,1,0,3.2,0V77h4.41a1.6,1.6,0,0,0,0-3.19Z"/><path class="cls-2" d="M1822.35,208.39h-5.56v-5.54a2,2,0,1,0-4,0v5.54h-5.54a2,2,0,0,0,0,4h5.54V218a2,2,0,0,0,4,0v-5.55h5.54a2,2,0,0,0,0-4Z"/><path class="cls-2" d="M1823.61,275.94h-6.47v-6.47a2.35,2.35,0,1,0-4.7,0v6.49H1806a2.35,2.35,0,0,0,0,4.7h6.47v6.47a2.35,2.35,0,0,0,4.7,0v-6.49h6.47a2.35,2.35,0,1,0,0-4.7Z"/><path class="cls-2" d="M1824.87,342.68h-7.39v-7.4a2.69,2.69,0,1,0-5.38,0h0v7.4h-7.39a2.69,2.69,0,1,0-.33,5.37h7.72v7.4a2.69,2.69,0,0,0,5.38,0V348h7.39a2.69,2.69,0,0,0,.33-5.37h-.33Z"/><path class="cls-2" d="M1826.79,410.24H1818v-8.78a3.19,3.19,0,0,0-6.38,0v8.78h-8.84a3.19,3.19,0,0,0,0,6.38h8.78v8.78a3.19,3.19,0,0,0,6.38,0v-8.78h8.84a3.19,3.19,0,1,0,0-6.38Z"/><path class="cls-2" d="M1828.65,476.59h-10.16V466.42a3.7,3.7,0,0,0-7.4,0v10.17h-10.16a3.7,3.7,0,1,0-.38,7.39h10.54v10.17a3.7,3.7,0,1,0,7.4,0V484h10.16a3.7,3.7,0,1,0,.38-7.39h-.38Z"/><path class="cls-2" d="M1830.58,547.08H1819V535.5a4.21,4.21,0,0,0-8.42,0v11.58H1799a4.21,4.21,0,0,0,0,8.42h11.58v11.58a4.21,4.21,0,0,0,8.42,0V555.5h11.58a4.21,4.21,0,1,0,0-8.42Z"/><path class="cls-2" d="M1833,613.44h-13.32V600.13a4.84,4.84,0,0,0-9.68,0h0v13.31h-13.32a4.85,4.85,0,0,0,0,9.69H1810v13.31a4.84,4.84,0,0,0,9.68,0V623.13H1833a4.85,4.85,0,0,0,0-9.69Z"/><path class="cls-2" d="M1821.72,141.07h-5.08V136a1.85,1.85,0,0,0-3.7,0v5.08h-5.08a1.85,1.85,0,1,0,0,3.7h5.08v5.08a1.85,1.85,0,0,0,3.7,0v-5.1h5.08a1.85,1.85,0,0,0,0-3.7Z"/><path class="cls-2" d="M1819.86,5.08h-3.72V1.36a1.35,1.35,0,0,0-2.7,0V5.08h-3.72a1.35,1.35,0,0,0,0,2.7h3.72v3.71a1.35,1.35,0,1,0,2.7,0h0V7.78h3.72a1.35,1.35,0,1,0,0-2.7Z"/><path class="cls-2" d="M1820.79,73.83h-4.39V69.44a1.6,1.6,0,0,0-3.2,0v4.39h-4.41a1.6,1.6,0,0,0,0,3.19h4.39v4.39a1.6,1.6,0,1,0,3.2,0V77h4.41a1.6,1.6,0,0,0,0-3.19Z"/><path class="cls-2" d="M1886.35,208.39h-5.56v-5.54a2,2,0,1,0-4,0v5.54h-5.54a2,2,0,0,0,0,4h5.54V218a2,2,0,1,0,4,0v-5.55h5.54a2,2,0,0,0,0-4Z"/><path class="cls-2" d="M1887.61,275.94h-6.47v-6.47a2.35,2.35,0,0,0-4.7,0v6.47H1870a2.35,2.35,0,0,0,0,4.7h6.47v6.47a2.35,2.35,0,0,0,4.7,0v-6.47h6.47a2.35,2.35,0,1,0,0-4.7Z"/><path class="cls-2" d="M1888.87,342.68h-7.39v-7.4a2.69,2.69,0,0,0-5.38,0h0v7.4h-7.39a2.69,2.69,0,1,0-.33,5.37h7.72v7.4a2.69,2.69,0,0,0,5.38,0V348h7.39a2.69,2.69,0,0,0,.33-5.37h-.33Z"/><path class="cls-2" d="M1890.79,410.24H1882v-8.78a3.19,3.19,0,0,0-6.38,0v8.78h-8.84a3.19,3.19,0,0,0,0,6.38h8.78v8.78a3.19,3.19,0,1,0,6.38,0v-8.78h8.84a3.19,3.19,0,1,0,0-6.38Z"/><path class="cls-2" d="M1892.65,476.59h-10.16V466.42a3.7,3.7,0,0,0-7.4,0v10.17h-10.16a3.7,3.7,0,1,0-.38,7.39h10.54v10.17a3.7,3.7,0,1,0,7.4,0V484h10.16a3.7,3.7,0,1,0,.38-7.39h-.38Z"/><path class="cls-2" d="M1894.58,547.08H1883V535.5a4.21,4.21,0,0,0-8.42,0v11.58H1863a4.21,4.21,0,0,0,0,8.42h11.58v11.58a4.21,4.21,0,0,0,8.42,0V555.5h11.58a4.21,4.21,0,1,0,0-8.42Z"/><path class="cls-2" d="M1897,613.44h-13.32V600.13a4.84,4.84,0,0,0-9.68,0h0v13.31h-13.32a4.85,4.85,0,0,0,0,9.69H1874v13.31a4.84,4.84,0,0,0,9.68,0V623.13H1897a4.85,4.85,0,0,0,0-9.69Z"/><path class="cls-2" d="M1885.72,141.07h-5.08V136a1.85,1.85,0,0,0-3.7,0v5.08h-5.08a1.85,1.85,0,1,0,0,3.7h5.08v5.08a1.85,1.85,0,0,0,3.7,0v-5.08h5.08a1.85,1.85,0,0,0,0-3.7Z"/><path class="cls-2" d="M1883.86,5.08h-3.72V1.36a1.35,1.35,0,0,0-2.7,0V5.08h-3.72a1.35,1.35,0,0,0,0,2.7h3.72v3.71a1.35,1.35,0,1,0,2.7,0h0V7.78h3.72a1.35,1.35,0,1,0,0-2.7Z"/><path class="cls-2" d="M1884.79,73.83h-4.39V69.44a1.6,1.6,0,0,0-3.2,0v4.39h-4.41a1.6,1.6,0,0,0,0,3.19h4.39v4.39a1.6,1.6,0,1,0,3.2,0V77h4.41a1.6,1.6,0,0,0,0-3.19Z"/></g></g></g></svg>