<svg xmlns="http://www.w3.org/2000/svg" viewBox="0 0 52.065 58.659"><defs><style>.a,.c{fill:#fff;}.a,.b,.c{stroke:#d95f2d;stroke-miterlimit:10;}.a{stroke-width:0.786px;}.b{fill:none;stroke-linecap:round;stroke-linejoin:round;}.b,.c{stroke-width:2.359px;}</style></defs><g transform="translate(-657.02 -926.12)"><path class="a" d="M705.2,927.3v32.5H660.8V938.5L672,927.3Z"/><path class="b" d="M705.2,959.8H660.8v-22l10.5-10.5h33.9Z"/><path class="b" d="M661.2,937.5h10.2V927.3"/><path class="c" d="M704.6,948H676.1l-2.5-3.1a3.9,3.9,0,0,0-3-1.4h-9.1a3.265,3.265,0,0,0-3.3,3.3v33.5a3.265,3.265,0,0,0,3.3,3.3h43.1a3.265,3.265,0,0,0,3.3-3.3v-29A3.2,3.2,0,0,0,704.6,948Z"/><line class="b" x2="21.2" transform="translate(677.8 944.1)"/><line class="b" x2="23.5" transform="translate(675.5 937.5)"/><path class="c" d="M691.3,957.3a1.9,1.9,0,0,1,0,3.8,1.839,1.839,0,0,1-1.9-1.9A2.043,2.043,0,0,1,691.3,957.3Zm-13.3,13a3.6,3.6,0,1,1,3.6-3.6A3.585,3.585,0,0,1,678,970.3Zm13.3,5.8a1.9,1.9,0,0,1,0-3.8,1.839,1.839,0,0,1,1.9,1.9A1.9,1.9,0,0,1,691.3,976.1Z"/><line class="c" x2="8.6" y2="4.8" transform="translate(681 968.8)"/><line class="c" y1="4.8" x2="8.6" transform="translate(681.1 960.1)"/></g></svg>